<svg xmlns="http://www.w3.org/2000/svg" width="90" height="85" viewBox="0 0 90 85">
  <g id="highlight_icon_02" transform="translate(-6260 -1675)">
    <rect id="Rectangle_2602" data-name="Rectangle 2602" width="90" height="85" transform="translate(6260 1675)" fill="#fff" opacity="0"/>
    <path id="noun-customer-service-3847440" d="M213.166,97.865V96.7a25.467,25.467,0,0,0-25.438-25.438h-4.515A25.467,25.467,0,0,0,157.775,96.7v1.165a8.582,8.582,0,0,0-7.8,8.518V122.02a8.61,8.61,0,0,0,8.6,8.6h2.385a8.608,8.608,0,0,0,8.6-8.6V106.383a8.583,8.583,0,0,0-7.806-8.518V96.7a21.484,21.484,0,0,1,21.464-21.464h4.515A21.484,21.484,0,0,1,209.193,96.7v1.165a8.582,8.582,0,0,0-7.8,8.518V122.02a8.585,8.585,0,0,0,7.791,8.518v.024a7.4,7.4,0,0,1-7.4,7.389h-11.3a5.4,5.4,0,1,0,0,3.974h11.308a11.38,11.38,0,0,0,11.368-11.364v-.032a8.581,8.581,0,0,0,7.806-8.518V106.383a8.582,8.582,0,0,0-7.8-8.518Zm-47.594,8.518V122.02a4.624,4.624,0,0,1-4.623,4.623h-2.384a4.628,4.628,0,0,1-4.615-4.623V106.384a4.627,4.627,0,0,1,4.623-4.623h2.385a4.624,4.624,0,0,1,4.615,4.623Zm19.9,34.979a1.427,1.427,0,1,1,1.423-1.423,1.428,1.428,0,0,1-1.423,1.423Zm31.52-19.345a4.627,4.627,0,0,1-4.623,4.623h-2.385a4.623,4.623,0,0,1-4.623-4.623V106.383a4.623,4.623,0,0,1,4.623-4.623h2.385a4.627,4.627,0,0,1,4.623,4.623Z" transform="translate(6120.024 1608.738)"/>
  </g>
</svg>
