<svg xmlns="http://www.w3.org/2000/svg" width="90" height="85" viewBox="0 0 90 85">
  <g id="highlight_icon_04" transform="translate(-6264 -1912)">
    <rect id="Rectangle_2604" data-name="Rectangle 2604" width="90" height="85" transform="translate(6264 1912)" fill="#fff" opacity="0"/>
    <g id="noun-product-demo-4245254" transform="translate(6268 1914)">
      <path id="Path_7802" data-name="Path 7802" d="M147.232,0H90.324A4.055,4.055,0,0,0,88.97,7.88V28.454a13.549,13.549,0,0,0-7.523,24.81A14.919,14.919,0,0,0,70,67.747v8.13a5.419,5.419,0,0,0,5.42,5.42H97.1a1.355,1.355,0,0,0,1.355-1.355V71.018l.164.164a6.734,6.734,0,0,0,4.791,1.985h13.336a6.1,6.1,0,1,0,0-12.194H105.79l-2.71-2.71h40.088a5.419,5.419,0,0,0,5.42-5.42V7.88A4.055,4.055,0,0,0,147.233,0ZM78.13,42a10.852,10.852,0,1,1,3.179,7.661A10.84,10.84,0,0,1,78.13,42ZM118.778,25.98l1.942,3.751a4.159,4.159,0,0,0,3.709,2.233,4.267,4.267,0,0,0,1.219-.176l10.744-3.2V45.1l-17.614,5.029L102.066,45.4h0a13.28,13.28,0,0,0-.9-9.268V28.588l10.75,3.195a4.268,4.268,0,0,0,1.219.178,4.16,4.16,0,0,0,3.707-2.233Zm18.231-6.74,2.04,4.375h0a1.267,1.267,0,0,1-.09.948,1.413,1.413,0,0,1-.87.706L124.873,29.2a1.49,1.49,0,0,1-1.747-.7l-2.383-4.607Zm-18.231,2.385L104.694,17.6l13.718-4h0a1.321,1.321,0,0,1,.733,0l13.726,4Zm-1.965,2.258-2.385,4.607h0a1.49,1.49,0,0,1-1.744.7L99.466,25.261a1.415,1.415,0,0,1-.87-.706,1.268,1.268,0,0,1-.09-.949l2.041-4.366Zm-11.023,39.8h10.956a3.387,3.387,0,1,1,0,6.774H103.409a4.034,4.034,0,0,1-2.875-1.191l-2.477-2.477a1.355,1.355,0,0,0-2.313.958v10.84h-14.9V67.747a1.355,1.355,0,1,0-2.71,0v10.84h-2.71a2.709,2.709,0,0,1-2.709-2.709v-8.13A12.207,12.207,0,0,1,84.906,55.552h6.581a12.123,12.123,0,0,1,8.624,3.572l3.764,3.764a2.735,2.735,0,0,0,1.916.794Zm40.088-10.84a2.711,2.711,0,0,1-2.71,2.71H100.04a14.722,14.722,0,0,0-4.025-2,13.629,13.629,0,0,0,5.105-5.6l16.911,4.786a2.706,2.706,0,0,0,.747.108,2.6,2.6,0,0,0,.734-.1l17.634-5.033a2.743,2.743,0,0,0,1.955-2.6V27.762a4.146,4.146,0,0,0,2.267-1.965,3.954,3.954,0,0,0,.225-3.125l-.053-.136-2.566-5.5-.014.007a1.345,1.345,0,0,0-.835-.734L119.9,11a4.009,4.009,0,0,0-2.248,0L99.429,16.313a1.345,1.345,0,0,0-.835.734l-.014-.007-2.566,5.5a1.377,1.377,0,0,0-.053.136h0a3.954,3.954,0,0,0,.225,3.125,4.147,4.147,0,0,0,2.267,1.961v4.584a13.526,13.526,0,0,0-6.775-3.619V8.129h54.2Zm1.355-47.423H90.325a1.355,1.355,0,1,1,0-2.709h56.907a1.355,1.355,0,0,1,0,2.709Z" transform="translate(-70 0)"/>
      <path id="Path_7803" data-name="Path 7803" d="M378,235.992v5.531a2.659,2.659,0,0,0,4.131,2.209l4.166-2.766a2.647,2.647,0,0,0,0-4.417l-4.166-2.767a2.66,2.66,0,0,0-4.131,2.21Zm6.75,2.749-4.04,2.781-.078-5.475Z" transform="translate(-333.287 -199.464)"/>
    </g>
  </g>
</svg>
