<svg xmlns="http://www.w3.org/2000/svg" width="90" height="85" viewBox="0 0 90 85">
  <g id="highlight_icon_03" transform="translate(-6260 -1787)">
    <rect id="Rectangle_2603" data-name="Rectangle 2603" width="90" height="85" transform="translate(6260 1787)" fill="#fff" opacity="0"/>
    <g id="noun-customer-2334520" transform="translate(6264 1792)">
      <path id="Path_7798" data-name="Path 7798" d="M111.729,343.65l-5.3-.427-2.05-4.955a2.777,2.777,0,0,0-5.126,0l-2.05,4.955-5.3.427a2.942,2.942,0,0,0-2.477,1.965,2.825,2.825,0,0,0,.854,2.99l4.1,3.5-1.2,5.211a2.437,2.437,0,0,0,.94,2.9,2.7,2.7,0,0,0,3.075.085l4.613-2.819,4.613,2.819a2.881,2.881,0,0,0,1.452.427,2.63,2.63,0,0,0,1.623-.512,2.777,2.777,0,0,0,1.111-2.9l-1.2-5.211,4.1-3.5a2.825,2.825,0,0,0,.854-2.99,3.177,3.177,0,0,0-2.648-1.965Zm-4.442,6.236a3.058,3.058,0,0,0-.94,2.819l1.2,4.955-4.356-2.648a2.682,2.682,0,0,0-2.9,0l-4.356,2.648,1.2-4.955a2.8,2.8,0,0,0-.94-2.819l-3.844-3.332,5.04-.427a2.958,2.958,0,0,0,2.392-1.708l1.965-4.7,1.965,4.7a2.84,2.84,0,0,0,2.392,1.708l5.04.427Z" transform="translate(-88.662 -290.858)"/>
      <path id="Path_7799" data-name="Path 7799" d="M288.129,371.09l-5.3-.512-2.05-4.869a2.777,2.777,0,0,0-5.126,0l-2.05,4.955-5.3.427a2.942,2.942,0,0,0-2.477,1.965,2.825,2.825,0,0,0,.854,2.99l4.1,3.5-1.2,5.211a2.776,2.776,0,0,0,1.111,2.9,2.7,2.7,0,0,0,3.075.085l4.613-2.819L283,387.748a2.881,2.881,0,0,0,1.452.427,2.63,2.63,0,0,0,1.623-.512,2.777,2.777,0,0,0,1.111-2.9l-1.2-5.211,4.1-3.5a2.825,2.825,0,0,0,.854-2.99,3.488,3.488,0,0,0-2.819-1.965Zm-4.442,6.151a2.973,2.973,0,0,0-.94,2.734l1.2,4.955-4.356-2.648a2.681,2.681,0,0,0-2.9,0l-4.356,2.648,1.2-4.955a2.8,2.8,0,0,0-.94-2.819l-3.844-3.332,5.04-.427a2.957,2.957,0,0,0,2.392-1.708l1.965-4.7,1.965,4.7a2.84,2.84,0,0,0,2.392,1.708l5.04.427Z" transform="translate(-238.153 -314.112)"/>
      <path id="Path_7800" data-name="Path 7800" d="M464.529,343.65l-5.3-.427-2.05-4.955a2.777,2.777,0,0,0-5.126,0l-2.05,4.955-5.3.427a2.942,2.942,0,0,0-2.477,1.965,2.825,2.825,0,0,0,.855,2.99l4.1,3.5-1.2,5.211a2.776,2.776,0,0,0,1.111,2.9,2.7,2.7,0,0,0,3.075.085l4.613-2.819,4.613,2.819a2.881,2.881,0,0,0,1.452.427,2.63,2.63,0,0,0,1.623-.512,2.777,2.777,0,0,0,1.111-2.9l-1.2-5.211,4.1-3.5a2.825,2.825,0,0,0,.854-2.99,3.681,3.681,0,0,0-2.819-1.965Zm-4.442,6.236a3.058,3.058,0,0,0-.94,2.819l1.2,4.955-4.357-2.648a2.682,2.682,0,0,0-2.9,0l-4.357,2.648,1.2-4.955a2.8,2.8,0,0,0-.94-2.819l-3.844-3.332,5.04-.427a2.958,2.958,0,0,0,2.392-1.708l1.965-4.7,1.965,4.7a2.84,2.84,0,0,0,2.392,1.708l5.04.427Z" transform="translate(-387.644 -290.858)"/>
      <path id="Path_7801" data-name="Path 7801" d="M166.09,73.949l-.94-8.115a11.547,11.547,0,0,0-7.944-9.567,10.831,10.831,0,1,0-17.683-8.371,10.573,10.573,0,0,0,4.015,8.371,11.615,11.615,0,0,0-7.005,6.151,12.128,12.128,0,0,0-4.1-2.307,10.7,10.7,0,0,0,4.015-8.371,10.849,10.849,0,0,0-21.7,0,10.573,10.573,0,0,0,4.015,8.371,9.754,9.754,0,0,0-4.015,2.221,11.357,11.357,0,0,0-7.005-6.151,10.7,10.7,0,0,0,4.015-8.371,10.849,10.849,0,1,0-21.7,0,10.573,10.573,0,0,0,4.015,8.371,11.332,11.332,0,0,0-7.944,9.567l-.94,8.115a3.231,3.231,0,0,0,2.478,3.93,65.169,65.169,0,0,0,13.07,1.367,61.519,61.519,0,0,0,8.97-.683,3.544,3.544,0,0,0,2.734,3.246,65.169,65.169,0,0,0,13.07,1.367,60.061,60.061,0,0,0,13.07-1.367,3.545,3.545,0,0,0,2.734-3.246,62.7,62.7,0,0,0,9.055.683,60.061,60.061,0,0,0,13.07-1.367,3.586,3.586,0,0,0,2.647-3.844ZM142.427,47.894a7.859,7.859,0,1,1,7.859,7.859A7.839,7.839,0,0,1,142.427,47.894Zm-24.859,3.929a7.859,7.859,0,1,1,7.859,7.859A7.839,7.839,0,0,1,117.569,51.824ZM92.881,47.894a7.859,7.859,0,1,1,7.859,7.859A7.839,7.839,0,0,1,92.881,47.894ZM88.354,74.888a.432.432,0,0,1-.427-.6l.94-8.115a8.408,8.408,0,0,1,8.371-7.432h6.833a8.41,8.41,0,0,1,8.115,6.322,12.4,12.4,0,0,0-1.708,4.7l-.683,5.723a58.5,58.5,0,0,1-21.442-.6ZM137.9,78.818a60.928,60.928,0,0,1-24.859,0,.642.642,0,0,1-.427-.6l.94-8.115a8.408,8.408,0,0,1,8.371-7.432h7.005A8.408,8.408,0,0,1,137.3,70.1l.94,8.115c.086.257-.085.6-.341.6Zm24.773-3.929a62.15,62.15,0,0,1-21.783.512l-.6-5.638a10.651,10.651,0,0,0-1.623-4.613,8.512,8.512,0,0,1,8.2-6.407H153.7a8.408,8.408,0,0,1,8.371,7.432l.94,8.115c.172.342,0,.6-.341.6Z" transform="translate(-85.105 -36.96)"/>
    </g>
  </g>
</svg>
