<svg xmlns="http://www.w3.org/2000/svg" width="90" height="85" viewBox="0 0 90 85">
  <g id="highlight_icon_01" transform="translate(-6260 -1537)">
    <rect id="Rectangle_2601" data-name="Rectangle 2601" width="90" height="85" transform="translate(6260 1537)" fill="#fff" opacity="0"/>
    <g id="noun-trust-2054522" transform="translate(6261 1544)">
      <path id="Path_7797" data-name="Path 7797" d="M217.158,120.353l-8.306,8.267a9.109,9.109,0,0,0-1.524-1.231l-.176-.1h0a9.767,9.767,0,0,0-5.2-1.524,10.044,10.044,0,0,0-3.655.7,8.573,8.573,0,0,0-1.329.684l-.391.215-.2.137a9.771,9.771,0,0,0-12.371,1.095l-8.306-8.287-23.452,23.452,8.248,8.306,2.7,2.834a1.948,1.948,0,0,0,2.755-2.755l20.736-20.736a5.864,5.864,0,0,1,6.605-1.075l-9.362,9.362a5.863,5.863,0,0,0,0,8.286l1.368,1.387h0a5.864,5.864,0,0,0,8.306,0l9.674-9.674,20.325,20.325c1.954,1.954,2.267,4.065,1.778,4.554L224,165.968a1.736,1.736,0,0,1-1.446,0,6.911,6.911,0,0,1-3.088-1.954l-6.782-6.664a1.963,1.963,0,0,0-2.775,2.775l6.84,6.84c1.954,1.954,2.267,4.065,1.778,4.534l-1.368,1.387a1.776,1.776,0,0,1-1.446,0,7,7,0,0,1-3.108-1.954l-6.84-6.84a1.955,1.955,0,1,0-2.755,2.775l6.821,6.821c1.954,1.954,2.287,4.065,1.8,4.554l-1.387,1.387c-.489.469-2.58.176-4.554-1.8l-6.84-6.821h0a1.954,1.954,0,0,0-2.756,0,1.51,1.51,0,0,0-.273.41l-.43-.137a5.863,5.863,0,0,0-1.447-5.531l-1.387-1.368a5.864,5.864,0,0,0-2.443-1.447,5.862,5.862,0,0,0-1.505-5.784l-1.387-1.368a5.864,5.864,0,0,0-7.622-.547,6,6,0,0,0-1.173-1.72l-1.349-1.447a5.864,5.864,0,0,0-8.287,0l-2.775,2.755h0a5.862,5.862,0,0,0,0,8.287L167.4,164.5a5.862,5.862,0,0,0,3.909,1.681,5.73,5.73,0,0,0,1.68,3.909l1.387,1.368h0a5.868,5.868,0,0,0,3.909,1.7,5.865,5.865,0,0,0,1.68,3.909l1.387,1.387h0a5.723,5.723,0,0,0,3.909,1.68,5.723,5.723,0,0,0,1.68,3.909l1.387,1.387h0a5.867,5.867,0,0,0,4.143,1.7,5.6,5.6,0,0,0,2.5-.586l1.231,1.231h0a9.772,9.772,0,0,0,6.625,3.127,4.768,4.768,0,0,0,3.362-1.447l1.387-1.387a5,5,0,0,0,1.251-4.3,6.03,6.03,0,0,0,.8.1,4.852,4.852,0,0,0,3.479-1.329l1.368-1.387h0a4.925,4.925,0,0,0,1.25-4.279,6.03,6.03,0,0,0,.8.1,4.786,4.786,0,0,0,3.342-1.33l1.387-1.387a5,5,0,0,0,1.251-4.3,6.027,6.027,0,0,0,.8.1,4.807,4.807,0,0,0,3.479-1.329l1.368-1.387c2.326-2.326,1.544-6.743-1.778-10.065l-.977-.977-19.212-19.349a1.955,1.955,0,1,0-2.755-2.774l-12.449,12.449h0a1.954,1.954,0,0,1-2.756,0l-1.387-1.387a1.953,1.953,0,0,1,0-2.755l11.061-11.061h0a5.982,5.982,0,0,1,8.287,0l8.286,8.286,3.44,3.46,8.99,8.99-1.387,1.368a1.955,1.955,0,1,0,2.755,2.774l1.387-1.387,2.678-2.834,8.306-8.306Zm-59.432,23.452,17.961-17.961,5.531,5.531-12.43,12.43-5.589,5.57ZM168.787,160.4h0a1.955,1.955,0,0,1,0-2.774l2.756-2.756a1.956,1.956,0,0,1,2.775,0l1.368,1.387h0a1.955,1.955,0,0,1,0,2.755l-2.717,2.834a1.953,1.953,0,0,1-2.755,0Zm6.9,6.9h0a1.954,1.954,0,0,1,0-2.756l2.775-2.7,3.264-3.264a1.956,1.956,0,0,1,2.775,0l1.368,1.387h0a1.953,1.953,0,0,1,0,2.755l-1.6,1.622-4.437,4.416h0a1.955,1.955,0,0,1-2.755,0Zm6.919,6.919h0a1.956,1.956,0,0,1,0-2.775l4.416-4.416h0a1.98,1.98,0,0,1,2.774,0l1.368,1.387a1.954,1.954,0,0,1,0,2.756l-1.661,1.661-2.755,2.775a1.955,1.955,0,0,1-2.755,0Zm8.287,8.287-1.387-1.387v0a1.955,1.955,0,0,1,0-2.755l2.775-2.755a1.954,1.954,0,0,1,2.756,0l1.387,1.368a1.953,1.953,0,0,1,0,2.774l-2.755,2.755h0a1.955,1.955,0,0,1-2.775.039Zm12.038-1.778c1.954,1.954,2.267,4.065,1.778,4.554l-1.368,1.368h0a1.705,1.705,0,0,1-1.447,0,6.831,6.831,0,0,1-3.108-1.954l-.977-.977,1.368-1.387h0a5.86,5.86,0,0,0,1.7-3.909l1.954,1.954Zm26.715-31.35-5.531-5.531-3.518-3.5-8.971-8.971,5.531-5.531L235.117,143.8Z" transform="translate(-152.255 -120.314)"/>
    </g>
  </g>
</svg>
