<svg xmlns="http://www.w3.org/2000/svg" width="26.986" height="21.312" viewBox="0 0 26.986 21.312">
    <g id="Group_1" data-name="Group 1" transform="translate(-1339.484 -616.935)">
        <g id="noun-track-order-3154344" transform="translate(1219.395 518.497)">
            <path id="Path_1" data-name="Path 1"
                  d="M193,98.438a4.079,4.079,0,0,0-4.015,3.459,4.128,4.128,0,0,0-.045.6c0,.106,0,.209.013.315.01.125.026.25.045.375a3.88,3.88,0,0,0,.164.639,7.1,7.1,0,0,0,.879,1.553A43.4,43.4,0,0,0,193,109.073l.087-.1a42.72,42.72,0,0,0,2.872-3.6,7.1,7.1,0,0,0,.879-1.553,4.336,4.336,0,0,0,.164-.639c.013-.067.022-.138.029-.209a4.023,4.023,0,0,0,.029-.478A4.065,4.065,0,0,0,193,98.438Zm0,5.334a1.274,1.274,0,1,1,1.274-1.274A1.275,1.275,0,0,1,193,103.772Z"
                  transform="translate(-64.81 0)"/>
            <path id="Path_2" data-name="Path 2"
                  d="M134.419,172.92h-.9c-.006.106-.016.209-.026.315-.006.055-.013.112-.022.167-.006.035-.013.074-.016.109a5.256,5.256,0,0,1-.215.838,8.289,8.289,0,0,1-1.037,1.861,47.9,47.9,0,0,1-3.543,4.364l-.173.189-.3.331-.475-.517a47.892,47.892,0,0,1-3.543-4.364,8.383,8.383,0,0,1-1.033-1.858c-.055-.154-.1-.311-.138-.469a3.644,3.644,0,0,1-.077-.372c-.006-.035-.013-.074-.016-.109-.022-.16-.042-.321-.048-.481h-.927a1.833,1.833,0,0,0-1.842,1.771v11.136a1.7,1.7,0,0,0,.568,1.261,1.912,1.912,0,0,0,1.274.5h2.307a2.728,2.728,0,0,0,5.379,0h6.55V174.7a1.747,1.747,0,0,0-1.749-1.775Zm-7.494,15.655a1.446,1.446,0,0,1-1.444-1.444v-.016a1.444,1.444,0,0,1,2.888,0v.016A1.446,1.446,0,0,1,126.925,188.575Z"
                  transform="translate(0 -70.111)"/>
            <path id="Path_3" data-name="Path 3"
                  d="M419.507,219.561v-1.284h5.651l-3.867-4.836H415.9v12.291h1.993a2.728,2.728,0,0,0,5.379,0h2.256v-6.171Zm2.442,6.171a1.444,1.444,0,0,1-2.815-.459v-.022a1.491,1.491,0,0,1,.09-.481,1.441,1.441,0,0,1,2.7,0,1.336,1.336,0,0,1,.09.481v.022a1.283,1.283,0,0,1-.067.459Z"
                  transform="translate(-278.449 -108.254)"/>
        </g>
    </g>
</svg>
