<svg xmlns="http://www.w3.org/2000/svg" width="22" height="22" viewBox="0 0 22 22">
  <path id="colse_login" d="M225.661,152.139l-6.9-6.9,6.895-6.9a2.018,2.018,0,0,0,0-2.862l-.641-.642a1.993,1.993,0,0,0-1.433-.6h0a2.007,2.007,0,0,0-1.43.594l-6.9,6.9-6.9-6.895a2.017,2.017,0,0,0-2.859,0l-.642.635a2.023,2.023,0,0,0,0,2.869l6.9,6.9-6.9,6.9a2.021,2.021,0,0,0,0,2.865l.641.641a2,2,0,0,0,1.434.6,2.027,2.027,0,0,0,1.433-.594l6.9-6.9,6.9,6.893a2.025,2.025,0,0,0,2.862,0l.641-.639a1.984,1.984,0,0,0,.6-1.433,2,2,0,0,0-.592-1.434Z" transform="translate(-204.255 -134.245)"/>
</svg>
