<svg id="Group_5565" data-name="Group 5565" xmlns="http://www.w3.org/2000/svg" xmlns:xlink="http://www.w3.org/1999/xlink" width="319.53" height="91.473" viewBox="0 0 319.53 91.473">
  <defs>
    <clipPath id="clip-path">
      <rect id="Rectangle_64" data-name="Rectangle 64" width="319.53" height="91.473" fill="#fff"/>
    </clipPath>
  </defs>
  <path id="Path_3090" data-name="Path 3090" d="M254.679,96.632V76.458l-6.807,20.173h-8.013l-6.85-20.173V96.632H225.34V68.271h11.633l7.109,20.852,6.634-20.852h11.632v28.36Z" transform="translate(-120.903 -36.63)" fill="#fff"/>
  <path id="Path_3091" data-name="Path 3091" d="M320.428,96.632V68.271h24.945v6.423H328.1v4.84h13.441v5.79H328.1v4.885h18.138v6.423Z" transform="translate(-171.921 -36.63)" fill="#fff"/>
  <g id="Group_342" data-name="Group 342">
    <g id="Group_341" data-name="Group 341" clip-path="url(#clip-path)">
      <path id="Path_3092" data-name="Path 3092" d="M387.909,96.632V68.271h15.768c6.505,0,10.814,2.126,10.814,7.418,0,3.935-2.8,5.88-6.979,6.468,5,.272,8.143,2.669,8.143,6.649,0,4.659-3.146,7.825-10.771,7.825Zm18.827-19.811c0-1.946-1.421-2.76-3.489-2.76h-7.668v5.7h7.755c2.025,0,3.4-.814,3.4-2.94m.991,10.9c0-1.945-1.681-2.849-3.877-2.849h-8.272v5.97h8.315c2.2,0,3.834-.995,3.834-3.121" transform="translate(-208.127 -36.63)" fill="#fff"/>
      <path id="Path_3093" data-name="Path 3093" d="M473.214,91.52H460.979l-1.723,5.112h-8.143l11.546-28.361h9.478l11.33,28.361h-8.573Zm-10.383-5.382H471.4L467.183,74.6Z" transform="translate(-242.038 -36.63)" fill="#fff"/>
      <path id="Path_3094" data-name="Path 3094" d="M524.915,92.385l3.231-5.88a20.091,20.091,0,0,0,11.934,3.845c3.533,0,5.342-1.04,5.342-2.578,0-1.267-1.724-1.764-5-2.352l-5-.9c-5.127-.95-10.039-3.076-10.039-8.5,0-5.111,4.524-8.911,13.485-8.911,6.85,0,11.115,2.171,13.356,4.072l-3.4,5.563c-2.154-1.99-6.16-3.392-10.253-3.392-3.447,0-5.256.769-5.256,2.261,0,1.357,2.154,2.171,5.256,2.669l4.523.769c6.2,1.04,10.555,3.121,10.555,8.187,0,5.2-4.351,9.318-14.475,9.318a24.729,24.729,0,0,1-14.26-4.161" transform="translate(-281.635 -36.002)" fill="#fff"/>
      <path id="Path_3095" data-name="Path 3095" d="M617.658,96.632V85.6H604.992V96.632h-7.669V68.271h7.669V79.308h12.666V68.271h7.625v28.36Z" transform="translate(-320.485 -36.63)" fill="#fff"/>
      <rect id="Rectangle_63" data-name="Rectangle 63" width="7.669" height="28.36" transform="translate(311.861 31.641)" fill="#fff"/>
      <path id="Path_3096" data-name="Path 3096" d="M115.921,14.025,91.636,0,56.723,20.156,49.531,22.7,71.278,35.253l34.508-19.925Z" transform="translate(-26.575 0)" fill="#e5002b"/>
      <path id="Path_3097" data-name="Path 3097" d="M100.594,76.5l0,39.858-3.941,9.425,24.291-14.026V71.438l1.394-7.5Z" transform="translate(-51.858 -34.305)" fill="#e5002b"/>
      <path id="Path_3098" data-name="Path 3098" d="M40.711,83.572l0-25.111L6.243,38.564,0,30.3,0,58.457,34.971,78.649l-.049-.023Z" transform="translate(0 -16.255)" fill="#e5002b"/>
    </g>
  </g>
</svg>
