<svg xmlns="http://www.w3.org/2000/svg" xmlns:xlink="http://www.w3.org/1999/xlink" width="77.385" height="270.318" viewBox="0 0 77.385 270.318">
  <defs>
    <clipPath id="clip-path">
      <rect id="Rectangle_64" data-name="Rectangle 64" width="270.318" height="77.385" fill="#fff"/>
    </clipPath>
  </defs>
  <g id="Group_5593" data-name="Group 5593" transform="translate(0 270.318) rotate(-90)">
    <path id="Path_3090" data-name="Path 3090" d="M250.161,92.264V75.2L244.4,92.264h-6.779L231.828,75.2V92.264H225.34V68.271h9.841l6.014,17.641,5.613-17.641h9.841V92.264Z" transform="translate(-136.988 -41.503)" fill="#fff"/>
    <path id="Path_3091" data-name="Path 3091" d="M320.428,92.264V68.271h21.1v5.434H326.916V77.8h11.371v4.9H326.916V86.83H342.26v5.434Z" transform="translate(-194.793 -41.503)" fill="#fff"/>
    <g id="Group_342" data-name="Group 342">
      <g id="Group_341" data-name="Group 341" clip-path="url(#clip-path)">
        <path id="Path_3092" data-name="Path 3092" d="M387.909,92.264V68.271h13.34c5.5,0,9.148,1.8,9.148,6.276,0,3.329-2.369,4.975-5.9,5.472,4.227.23,6.889,2.258,6.889,5.625,0,3.942-2.661,6.62-9.112,6.62ZM403.836,75.5c0-1.646-1.2-2.335-2.952-2.335H394.4v4.822h6.56c1.713,0,2.879-.689,2.879-2.487m.839,9.222c0-1.646-1.422-2.411-3.28-2.411h-7v5.05h7.034c1.858,0,3.244-.841,3.244-2.64" transform="translate(-235.816 -41.503)" fill="#fff"/>
        <path id="Path_3093" data-name="Path 3093" d="M469.81,87.94H459.459L458,92.264h-6.889l9.768-23.993H468.9l9.585,23.993h-7.253Zm-8.784-4.553h7.253l-3.572-9.758Z" transform="translate(-274.238 -41.503)" fill="#fff"/>
        <path id="Path_3094" data-name="Path 3094" d="M524.915,88.491l2.734-4.975a17,17,0,0,0,10.1,3.253c2.989,0,4.52-.88,4.52-2.181,0-1.072-1.458-1.493-4.228-1.99l-4.228-.765c-4.337-.8-8.492-2.6-8.492-7.194,0-4.324,3.827-7.539,11.408-7.539,5.795,0,9.4,1.837,11.3,3.444l-2.879,4.706c-1.822-1.684-5.212-2.87-8.674-2.87-2.916,0-4.447.65-4.447,1.913,0,1.148,1.822,1.837,4.447,2.258l3.827.65c5.249.88,8.929,2.64,8.929,6.926,0,4.4-3.681,7.883-12.246,7.883a20.92,20.92,0,0,1-12.064-3.521" transform="translate(-319.104 -40.791)" fill="#fff"/>
        <path id="Path_3095" data-name="Path 3095" d="M614.526,92.264V82.927H603.811v9.336h-6.488V68.271h6.488v9.337h10.715V68.271h6.451V92.264Z" transform="translate(-363.122 -41.503)" fill="#fff"/>
        <rect id="Rectangle_63" data-name="Rectangle 63" width="6.488" height="23.992" transform="translate(263.83 26.768)" fill="#fff"/>
        <path id="Path_3096" data-name="Path 3096" d="M105.7,11.865,85.151,0,55.615,17.052,49.531,19.2l18.4,10.62L97.122,12.967Z" transform="translate(-30.11 0)" fill="#fff"/>
        <path id="Path_3097" data-name="Path 3097" d="M99.987,74.562l0,33.719-3.334,7.973,20.55-11.866V70.283l1.179-6.345Z" transform="translate(-58.758 -38.869)" fill="#fff"/>
        <path id="Path_3098" data-name="Path 3098" d="M34.441,75.366l0-21.244L5.281,37.29,0,30.3,0,54.12,29.585,71.2l-.042-.019Z" transform="translate(0 -18.417)" fill="#fff"/>
      </g>
    </g>
  </g>
</svg>
