<svg id="Group_5582" data-name="Group 5582" xmlns="http://www.w3.org/2000/svg" xmlns:xlink="http://www.w3.org/1999/xlink" width="250.635" height="71.75" viewBox="0 0 250.635 71.75">
  <defs>
    <clipPath id="clip-path">
      <rect id="Rectangle_64" data-name="Rectangle 64" width="250.635" height="71.75" fill="none"/>
    </clipPath>
  </defs>
  <path id="Path_3090" data-name="Path 3090" d="M248.353,90.517V74.693l-5.34,15.824h-6.286l-5.373-15.824V90.517H225.34V68.271h9.124l5.576,16.356,5.2-16.356h9.124V90.517Z" transform="translate(-143.421 -43.452)" fill="#1a1818"/>
  <path id="Path_3091" data-name="Path 3091" d="M320.428,90.517V68.271h19.566V73.31H326.444v3.8h10.543v4.542H326.444v3.832h14.227v5.038Z" transform="translate(-203.941 -43.452)" fill="#1a1818"/>
  <g id="Group_342" data-name="Group 342">
    <g id="Group_341" data-name="Group 341" clip-path="url(#clip-path)">
      <path id="Path_3092" data-name="Path 3092" d="M387.909,90.517V68.271h12.369c5.1,0,8.482,1.668,8.482,5.819,0,3.087-2.2,4.613-5.474,5.074,3.92.213,6.387,2.094,6.387,5.216,0,3.655-2.467,6.138-8.449,6.138Zm14.768-15.54c0-1.526-1.115-2.165-2.737-2.165h-6.015v4.471h6.083c1.588,0,2.669-.639,2.669-2.306m.778,8.55c0-1.526-1.318-2.235-3.041-2.235h-6.488v4.683h6.522c1.723,0,3.008-.78,3.008-2.448" transform="translate(-246.89 -43.452)" fill="#1a1818"/>
      <path id="Path_3093" data-name="Path 3093" d="M468.449,86.507h-9.6L457.5,90.517h-6.387l9.057-22.246H467.6l8.887,22.246h-6.725ZM460.3,82.286h6.725l-3.312-9.047Z" transform="translate(-287.117 -43.452)" fill="#1a1818"/>
      <path id="Path_3094" data-name="Path 3094" d="M524.915,86.933l2.535-4.613a15.759,15.759,0,0,0,9.361,3.016c2.771,0,4.19-.816,4.19-2.022,0-.994-1.352-1.384-3.92-1.845l-3.92-.71c-4.021-.745-7.874-2.413-7.874-6.67,0-4.009,3.549-6.99,10.577-6.99,5.373,0,8.719,1.7,10.476,3.194l-2.67,4.364A12.492,12.492,0,0,0,535.628,72c-2.7,0-4.123.6-4.123,1.774,0,1.065,1.689,1.7,4.123,2.094l3.548.6c4.866.816,8.279,2.448,8.279,6.421,0,4.08-3.413,7.309-11.354,7.309a19.4,19.4,0,0,1-11.186-3.264" transform="translate(-334.09 -42.707)" fill="#1a1818"/>
      <path id="Path_3095" data-name="Path 3095" d="M613.273,90.517V81.86h-9.935v8.657h-6.015V68.271h6.015v8.657h9.935V68.271h5.981V90.517Z" transform="translate(-380.175 -43.452)" fill="#1a1818"/>
      <rect id="Rectangle_63" data-name="Rectangle 63" width="6.015" height="22.245" transform="translate(244.62 24.819)" fill="#1a1818"/>
      <path id="Path_3096" data-name="Path 3096" d="M101.606,11,82.557,0,55.172,15.81,49.531,17.8l17.059,9.847L93.657,12.023Z" transform="translate(-31.525 0)" fill="#e5002b"/>
      <path id="Path_3097" data-name="Path 3097" d="M99.744,73.788v31.264l-3.092,7.393,19.054-11V69.821l1.093-5.883Z" transform="translate(-61.517 -40.695)" fill="#e5002b"/>
      <path id="Path_3098" data-name="Path 3098" d="M31.933,72.085v-19.7L4.9,36.781,0,30.3v22.09L27.431,68.223l-.039-.018Z" transform="translate(0 -19.282)" fill="#e5002b"/>
    </g>
  </g>
</svg>
