<svg xmlns="http://www.w3.org/2000/svg" width="25" height="22.423" viewBox="0 0 25 22.423">
  <path id="tag-vacuum-cleaner" d="M41.439,15.2a3.61,3.61,0,0,1,3.336,5.009h3.6V12.061A2.646,2.646,0,0,0,45.74,9.423H43.395a2.646,2.646,0,0,0-2.638,2.638v3.2a3.747,3.747,0,0,1,.683-.067Zm2.731,5.984A3.614,3.614,0,1,1,39.782,15.6V12.061a3.627,3.627,0,0,1,3.613-3.613H45.74a3.627,3.627,0,0,1,3.613,3.613V13.5a2.466,2.466,0,0,0,.847-.375,2.111,2.111,0,0,0,.755-.955,2.858,2.858,0,0,0,.18-1.3,3.925,3.925,0,0,0-.708-1.9,5.246,5.246,0,0,0-3.3-2.022,5.094,5.094,0,0,1-2.848-1.545,4.264,4.264,0,0,1-.554-.847,2.892,2.892,0,0,1-.246-2.007A3.055,3.055,0,0,1,44.544.939a4.4,4.4,0,0,1,5.4-.01,10.265,10.265,0,0,1,3.526,4.3l6.349,14.658h1.735a1.248,1.248,0,0,1,.893.375,1.266,1.266,0,0,1,.375.893v.785a.491.491,0,0,1-.488.488H56.924a.492.492,0,0,1-.493-.488v-.785a1.264,1.264,0,0,1,.344-.862l.031-.031a1.269,1.269,0,0,1,.9-.375h1.062L52.484,5.419a9.221,9.221,0,0,0-3.069-3.675,3.454,3.454,0,0,0-4.255-.051,2.085,2.085,0,0,0-.734,1.1A1.956,1.956,0,0,0,44.6,4.136a3.367,3.367,0,0,0,.426.652,4.39,4.39,0,0,0,2.366,1.227,6.065,6.065,0,0,1,3.829,2.4,4.956,4.956,0,0,1,.888,2.381,3.827,3.827,0,0,1-.252,1.745,3.094,3.094,0,0,1-1.1,1.386,3.654,3.654,0,0,1-1.406.57v6.195a.487.487,0,0,1-.488.488h-4.7Zm13.242.272h4.439v-.3a.3.3,0,0,0-.293-.293H57.7a.291.291,0,0,0-.205.087l-.015.015a.282.282,0,0,0-.072.19v.3ZM41.44,16.177a2.638,2.638,0,1,0,2.638,2.638A2.634,2.634,0,0,0,41.44,16.177Z" transform="translate(-37.826 -0.005)"/>
</svg>
