<svg xmlns="http://www.w3.org/2000/svg" width="25" height="32" viewBox="0 0 25 32">
  <g id="tag-coffee-machine" transform="translate(-131.25 0.001)">
    <path id="Path_7839" data-name="Path 7839" d="M289.75,420.5a.5.5,0,1,1-.5-.5.5.5,0,0,1,.5.5" transform="translate(-148.5 -396.001)"/>
    <path id="Path_7840" data-name="Path 7840" d="M153.25,13.459a3.5,3.5,0,0,0,3-3.46V.5a.5.5,0,0,0-.5-.5h-24a.5.5,0,0,0-.5.5V10a3.5,3.5,0,0,0,3,3.46V27h-.5a2.5,2.5,0,0,0,0,5h20a2.5,2.5,0,0,0,0-5h-.5Zm-21-3.46V1h23v9a2.5,2.5,0,0,1-2.5,2.5h-18a2.5,2.5,0,0,1-2.5-2.5Zm10,3.5h3V15h-3Zm12.559,14.936A1.5,1.5,0,0,1,153.75,31h-20a1.5,1.5,0,1,1,0-3h20a1.5,1.5,0,0,1,1.059.436Zm-15.327-2.171a2.466,2.466,0,0,1-.732-1.765v-6h9v6a2.5,2.5,0,0,1-2.5,2.5h-4A2.468,2.468,0,0,1,139.482,26.264ZM149.5,18.5a2.75,2.75,0,0,1,0,5.5h-.75V23h.75a1.75,1.75,0,1,0,0-3.5h-.75v-1Zm-.75,2h.75a.75.75,0,0,1,0,1.5h-.75Zm3.5,6.5h-4.556a3.488,3.488,0,0,0,1.016-2h.79a3.471,3.471,0,0,0,2.75-1.2Zm-2.75-9.5H138.25a.5.5,0,0,0-.5.5v6.5a3.474,3.474,0,0,0,1.056,2.5H135.25V13.5h6v2a.5.5,0,0,0,.5.5h4a.5.5,0,0,0,.5-.5v-2h6v5.209A3.736,3.736,0,0,0,149.5,17.5Z" transform="translate(0 0)"/>
    <path id="Path_7841" data-name="Path 7841" d="M275.75,44a4.5,4.5,0,1,0-3.181-1.319A4.5,4.5,0,0,0,275.75,44Zm0-8a3.5,3.5,0,1,1-2.474,1.026A3.5,3.5,0,0,1,275.75,36Z" transform="translate(-132 -33.001)"/>
    <path id="Path_7842" data-name="Path 7842" d="M316.745,81.207a.526.526,0,0,0,.707,0,.5.5,0,0,0,0-.707l-1.5-1.5a.5.5,0,0,0-.707.707Z" transform="translate(-173.349 -74.355)"/>
    <path id="Path_7843" data-name="Path 7843" d="M456.745,56a1.75,1.75,0,1,0-1.237-.513A1.751,1.751,0,0,0,456.745,56Zm0-2.5a.75.75,0,1,1-.75.75.75.75,0,0,1,.75-.75Z" transform="translate(-305.245 -49.501)"/>
    <path id="Path_7844" data-name="Path 7844" d="M456.745,134.75a1.75,1.75,0,1,0-1.237-.512A1.751,1.751,0,0,0,456.745,134.75Zm0-2.5a.75.75,0,1,1-.75.75.75.75,0,0,1,.75-.75Z" transform="translate(-305.245 -123.751)"/>
    <path id="Path_7845" data-name="Path 7845" d="M179,51.75v-7.5a.5.5,0,0,0-.5-.5h-3a.5.5,0,0,0-.5.5v7.5a.5.5,0,0,0,.5.5h3a.5.5,0,0,0,.5-.5Zm-3-4.5h2v1.5h-2Zm2-2.5v1.5h-2v-1.5Zm-2,6.5v-1.5h2v1.5Z" transform="translate(-41.25 -41.251)"/>
    <path id="Path_7846" data-name="Path 7846" d="M289.25,350a.5.5,0,0,0-.5.5v2a.5.5,0,0,0,1,0v-2a.5.5,0,0,0-.5-.5Z" transform="translate(-148.5 -330.001)"/>
    <path id="Path_7847" data-name="Path 7847" d="M499.75,508a.5.5,0,1,1-.5-.5.5.5,0,0,1,.5.5" transform="translate(-346.5 -478.501)"/>
    <path id="Path_7848" data-name="Path 7848" d="M464.75,508a.5.5,0,1,1-.5-.5.5.5,0,0,1,.5.5" transform="translate(-313.5 -478.501)"/>
  </g>
</svg>
