<svg xmlns="http://www.w3.org/2000/svg" width="25.2" height="24.509" viewBox="0 0 25.2 24.509">
  <g id="tag-juicer" transform="translate(-86.366 -23.646)">
    <path id="Path_7849" data-name="Path 7849" d="M113.585,428.759h-1.046v-3.33a.188.188,0,1,0-.376,0v3.518a.188.188,0,0,0,.188.188h1.234a.188.188,0,1,0,0-.376Z" transform="translate(-24.525 -382.252)" stroke="#000" stroke-width="0.2"/>
    <path id="Path_7850" data-name="Path 7850" d="M112.361,365.472a.188.188,0,0,0,.188-.188v-1.158a.188.188,0,1,0-.376,0v1.158A.188.188,0,0,0,112.361,365.472Z" transform="translate(-24.533 -324.013)" stroke="#000" stroke-width="0.2"/>
    <path id="Path_7851" data-name="Path 7851" d="M259.593,352.09a3.161,3.161,0,0,0-3.054,2.383.188.188,0,1,0,.364.094,2.773,2.773,0,0,1,5.38,0,.188.188,0,1,0,.364-.094A3.162,3.162,0,0,0,259.593,352.09Z" transform="translate(-161.896 -312.695)" stroke="#000" stroke-width="0.2"/>
    <path id="Path_7852" data-name="Path 7852" d="M282.1,378.03a1.984,1.984,0,1,0,1.984,1.984A1.986,1.986,0,0,0,282.1,378.03Zm0,3.592a1.6,1.6,0,0,1-.188-3.2v1.589a.188.188,0,1,0,.376,0v-1.589a1.6,1.6,0,0,1-.188,3.2Z" transform="translate(-184.393 -337.195)" stroke="#000" stroke-width="0.2"/>
    <path id="Path_7853" data-name="Path 7853" d="M192.238,152.9a.188.188,0,0,0,.159-.213.191.191,0,0,0-.213-.159,8.9,8.9,0,0,0-1.912.5.188.188,0,1,0,.134.351,8.551,8.551,0,0,1,1.831-.477Z" transform="translate(-98.749 -122.658)" stroke="#000" stroke-width="0.2"/>
    <path id="Path_7854" data-name="Path 7854" d="M261.751,151.021h3.908a.188.188,0,1,0,0-.376h-3.908a.188.188,0,1,0,0,.376Z" transform="translate(-166.723 -120.876)" stroke="#000" stroke-width="0.2"/>
    <path id="Path_7855" data-name="Path 7855" d="M110.773,41.486h-.859v-.74a.2.2,0,0,0-.2-.2h-3.4l-3.448-3.573v-.77a.2.2,0,0,0-.2-.2h-.887l1.073-3.175a.188.188,0,0,0,0-.032.2.2,0,0,0,.006-.031V29.884a1.339,1.339,0,0,0-1.337-1.338h-1.319v-2.57a.571.571,0,0,0,.218-.447V24.321a.575.575,0,0,0-.575-.575H98.206a.575.575,0,0,0-.575.575v1.208a.571.571,0,0,0,.218.447v2.57H94.764A10.38,10.38,0,0,0,86.5,32.672a.232.232,0,0,0-.031.092s0,.007,0,.011V46.719A1.338,1.338,0,0,0,87.8,48.056h4.952a.2.2,0,0,0,.2-.2v-.829H94.04v.829a.2.2,0,0,0,.2.2h1.9a.2.2,0,0,0,.2-.2v-.829h2.763v.829a.2.2,0,0,0,.2.2h1.9a.2.2,0,0,0,.2-.2v-.829h1.285a.2.2,0,0,0,.2-.2V39.317l1.191,1.233h-.066a.2.2,0,0,0-.2.2v6.312a1,1,0,0,0,1,1h4.123a1,1,0,0,0,1-1v-1.8l1.245-.836a.693.693,0,0,0,.307-.576V42.179a.7.7,0,0,0-.694-.694ZM95.942,47.665H94.431v-.633h1.511Zm5.054,0H99.485v-.633H101Zm8.526-5.5h-5.334V40.941h5.336c0,.04,0,1.3,0,1.224ZM92.951,36.013v-2.1a1.332,1.332,0,0,0-.394-.946H102.4l-1.028,3.042ZM98.023,24.32a.184.184,0,0,1,.184-.184h1.648a.184.184,0,0,1,.184.184v1.208a.184.184,0,0,1-.184.184H98.206a.184.184,0,0,1-.184-.184ZM98.24,26.1h1.58v2.442H98.24Zm-3.476,2.833h6.766a.948.948,0,0,1,.947.947v2.7H87.064a10.014,10.014,0,0,1,7.7-3.644Zm-2.2,18.728H87.8a.947.947,0,0,1-.946-.946V32.971h4.757a.947.947,0,0,1,.946.946c0,6.2,0,8.036,0,13.748Zm9.916-1.025H92.951V36.4h9.526Zm.391-7.885V37.54l2.905,3.011H104.6Zm6.05,8.91h-4.123a.607.607,0,0,1-.607-.607v-4.5h5.334v2.6s0,0,0,.006v1.9a.607.607,0,0,1-.607.606Zm2.159-3.819a.3.3,0,0,1-.134.251l-1.028.69v-2.91h.859a.3.3,0,0,1,.3.3Z" transform="translate(0 0)" stroke="#000" stroke-width="0.2"/>
  </g>
</svg>
