<svg width="250" height="310" viewBox="0 0 250 310" fill="none" xmlns="http://www.w3.org/2000/svg">
<mask id="mask0_13801_50180" style="mask-type:alpha" maskUnits="userSpaceOnUse" x="0" y="0" width="250" height="310">
<rect width="250" height="310" rx="60" fill="#C4C4C4"/>
</mask>
<g mask="url(#mask0_13801_50180)">
<g clip-path="url(#clip0_13801_50180)">
<path d="M325 -13H-56V367.996H325V-13Z" fill="#91C7FE"/>
<path d="M325 212.319H-55.9717V367.997H325V212.319Z" fill="#60AEFE"/>
<path style="mix-blend-mode:soft-light" d="M-55.6579 212.1L-55.8307 314.621H325V212.1H-55.6579Z" fill="url(#paint0_linear_13801_50180)"/>
<path style="mix-blend-mode:soft-light" d="M317.009 -10.527H-47.5088V209.25H317.009V-10.527Z" fill="url(#paint1_linear_13801_50180)"/>
<g style="mix-blend-mode:soft-light">
<path d="M201.295 4.52957L161.77 28.6807L125.585 26.2113L197.351 4.25793L201.295 4.52957Z" fill="white"/>
<path d="M159.734 55.2307L177.391 56.4302C180.77 56.663 183.367 59.1113 183.18 61.9018C182.986 64.6887 180.086 66.7595 176.699 66.5267L159.053 65.3272C155.66 65.0909 153.899 64.2372 154.196 59.9227C154.474 55.841 156.351 55.0014 159.734 55.2307Z" fill="#9BA4AB"/>
<path d="M101.67 17.6176C116.787 16.6581 141.294 19.3921 163.004 22.0626C208.83 27.7036 245.685 34.05 244.574 43.0494C244.574 43.0494 205.726 51.8089 159.597 49.7345C111.411 47.5685 76.9125 37.1615 78.0237 28.1516C78.6058 23.4173 99.6667 17.7411 101.67 17.6141V17.6176Z" fill="white"/>
<path d="M78.1261 27.7564C78.1261 27.7564 86.0847 33.2915 100.291 33.2033C128.64 33.041 244.595 42.6048 244.595 42.6048C244.602 42.7565 244.595 42.9047 244.574 43.0528C244.574 43.0528 205.726 51.8123 159.597 49.738C111.411 47.5719 76.9125 37.165 78.0237 28.155C78.0414 28.028 78.0802 27.8834 78.1261 27.7529V27.7564Z" fill="#9BA4AB"/>
<path d="M221.876 87.1008L215.607 86.434L119.659 37.6625L168.649 37.8706L221.876 87.1008Z" fill="white"/>
<path d="M256.699 15.1869L244.069 40.3541L225.411 35.3341L249.269 14.8659L256.699 15.1869Z" fill="#9BA4AB"/>
<path d="M253.968 58.815L243.162 58.0741L224.73 41.7017L244.185 43.0282L253.968 58.815Z" fill="#E53600"/>
<path d="M155.794 56.2185C156.542 56.2679 157.021 58.0777 156.87 60.2719C156.721 62.4521 156.009 63.9937 155.272 63.9373C154.531 63.8879 154.037 62.2722 154.185 60.0814C154.333 57.8942 155.056 56.1656 155.794 56.2185Z" fill="black"/>
<path d="M98.259 23.0293C100.64 24.7579 105.586 25.407 104.634 27.9999C103.671 30.5858 95.7649 29.8873 92.2935 28.0952C88.8293 26.2889 86.0458 22.4296 86.0458 22.4296L94.4455 19.4592C94.4455 19.4592 95.8742 21.3112 98.259 23.0328V23.0293Z" fill="black"/>
<path d="M219.78 86.882L161.18 37.3625L164.461 37.5813L219.78 86.882Z" fill="#E53600"/>
<path d="M166.285 22.4718L163.004 22.0626L199.351 4.39551L166.285 22.4718Z" fill="#E53600"/>
</g>
<path d="M323.839 95.0735H-54.3349V102.044H323.839V95.0735Z" fill="#91C7FE"/>
<path d="M45.5682 -13H37.7824V209.571H45.5682V-13Z" fill="#91C7FE"/>
<path d="M138.433 -12.9894H130.648V209.627H138.433V-12.9894Z" fill="#91C7FE"/>
<path d="M231.299 -12.9295H223.513V209.687H231.299V-12.9295Z" fill="#91C7FE"/>
<path opacity="0.25" d="M132.729 281.908C167.536 281.908 195.753 275.169 195.753 266.855C195.753 258.542 167.536 251.802 132.729 251.802C97.9223 251.802 69.7056 258.542 69.7056 266.855C69.7056 275.169 97.9223 281.908 132.729 281.908Z" fill="#174065"/>
<path d="M273.706 218.503H37.8534V220.913H273.706V218.503Z" fill="#768791"/>
<path d="M37.8534 187.882H33.7294V262.202H37.8534V187.882Z" fill="#516774"/>
<path d="M93.4265 213.395H37.8534V218.687H93.4265V213.395Z" fill="#355979"/>
<path d="M89.2355 154.238H42.0444C39.7302 154.238 37.8534 156.115 37.8534 158.429V213.685H93.4265V158.429C93.4265 156.115 91.5497 154.238 89.2355 154.238Z" fill="#174065"/>
<path d="M97.5503 187.791H93.4263V262.11H97.5503V187.791Z" fill="#516774"/>
<path d="M153.123 213.303H97.5503V218.595H153.123V213.303Z" fill="#355979"/>
<path d="M148.932 154.146H101.741C99.4271 154.146 97.5503 156.023 97.5503 158.337V213.593H153.123V158.337C153.123 156.023 151.247 154.146 148.932 154.146Z" fill="#174065"/>
<path d="M157.247 187.699H153.123V262.019H157.247V187.699Z" fill="#516774"/>
<path d="M212.82 213.212H157.247V218.503H212.82V213.212Z" fill="#355979"/>
<path d="M208.629 154.054H161.438C159.124 154.054 157.247 155.931 157.247 158.245V213.501H212.82V158.245C212.82 155.931 210.944 154.054 208.629 154.054Z" fill="#174065"/>
<path d="M216.944 187.607H212.82V261.927H216.944V187.607Z" fill="#516774"/>
<path d="M272.517 213.12H216.944V218.412H272.517V213.12Z" fill="#355979"/>
<path d="M268.326 153.963H221.135C218.821 153.963 216.944 155.839 216.944 158.154V213.409H272.517V158.154C272.517 155.839 270.641 153.963 268.326 153.963Z" fill="#174065"/>
<g style="mix-blend-mode:multiply">
<path d="M210.721 154.682L210.609 154.876C210.609 154.876 211.413 194.564 201.373 201.249C191.675 207.708 159.488 210.739 157.325 210.936V213.596H212.898V158.341C212.898 156.76 212.013 155.398 210.718 154.686L210.721 154.682Z" fill="#95C7DD"/>
</g>
<g style="mix-blend-mode:multiply">
<path d="M91.2462 154.929L91.1333 155.123C91.1333 155.123 91.9376 194.811 81.8975 201.496C72.1997 207.955 40.0122 210.986 37.8497 211.183V213.843H93.4228V158.588C93.4228 157.007 92.5373 155.645 91.2426 154.933L91.2462 154.929Z" fill="#95C7DD"/>
</g>
<g style="mix-blend-mode:multiply">
<path d="M270.341 154.488L270.228 154.682C270.228 154.682 271.032 194.37 260.992 201.055C251.294 207.514 219.107 210.545 216.944 210.742V213.402H272.517V158.147C272.517 156.566 271.632 155.204 270.337 154.492L270.341 154.488Z" fill="#95C7DD"/>
</g>
<g style="mix-blend-mode:multiply">
<path d="M150.947 154.682L150.834 154.876C150.834 154.876 151.638 194.564 141.598 201.249C131.9 207.708 99.7128 210.739 97.5503 210.936V213.596H153.123V158.341C153.123 156.76 152.238 155.398 150.943 154.686L150.947 154.682Z" fill="#95C7DD"/>
</g>
<path d="M37.0984 186.252H34.2021C32.9321 186.252 31.8949 187.293 31.8949 188.56C31.8949 189.826 32.9356 190.867 34.2021 190.867H37.0984C38.3684 190.867 39.4055 189.826 39.4055 188.56C39.4055 187.293 38.3648 186.252 37.0984 186.252Z" fill="#516774"/>
<path d="M96.9365 185.483H94.0402C92.7702 185.483 91.7295 186.524 91.7295 187.794C91.7295 189.064 92.7702 190.101 94.0402 190.101H96.9365C98.2065 190.101 99.2437 189.064 99.2437 187.794C99.2437 186.524 98.203 185.483 96.9365 185.483Z" fill="#516774"/>
<path d="M156.633 184.714H153.737C152.467 184.714 151.43 185.755 151.43 187.021C151.43 188.288 152.471 189.329 153.737 189.329H156.633C157.903 189.329 158.941 188.291 158.941 187.021C158.941 185.751 157.903 184.714 156.633 184.714Z" fill="#516774"/>
<path d="M216.331 183.945H213.434C212.164 183.945 211.127 184.986 211.127 186.252C211.127 187.519 212.168 188.56 213.434 188.56H216.331C217.601 188.56 218.641 187.519 218.641 186.252C218.641 184.986 217.601 183.945 216.331 183.945Z" fill="#516774"/>
<path d="M127.54 116.413C123.539 114.466 121.349 119.641 121.349 119.641L122.28 126.562C122.28 126.562 123.92 129.437 123.504 133.639C123.088 137.837 126.912 138.617 128.214 138.571C129.515 138.525 129.949 137.026 129.371 137.022C128.792 137.022 129.949 128.488 131.251 126.326C132.553 124.163 131.54 118.36 127.54 116.413Z" fill="#8D3B26"/>
<path d="M107.781 150.333C105.304 149.567 101.127 156.668 98.7813 164.885C94.7068 179.162 91.2848 183.208 95.5428 184.961C99.4058 186.552 101.321 180.809 106.433 169.122C110.43 159.985 112.907 151.917 107.781 150.333Z" fill="#FFA47C"/>
<path d="M119.955 200.787C118.152 199.542 109.386 199.757 106.698 201.958C104.895 203.433 104.98 206.089 105.876 209.546C107.096 214.256 111.862 221.139 112.289 221.809C114.233 224.86 120.971 224.733 121.994 222.306C122.276 221.636 123.493 208.231 123.119 206.724C122.745 205.218 122.375 202.459 119.955 200.787Z" fill="#FFBD95"/>
<path d="M142.702 151.338C141.739 149.172 135.544 148.032 133.265 147.352C130.937 146.657 124.051 146.42 124.051 146.42C124.051 146.42 117.165 146.657 114.836 147.352C112.557 148.032 106.359 149.168 105.4 151.338C103.946 154.615 113.926 175.63 112.624 187.709C112.191 191.72 105.033 203.302 106.042 207.207C107.273 211.98 123.123 214.933 123.123 214.933H124.986C124.986 214.933 140.836 211.98 142.067 207.207C143.076 203.302 135.689 191.886 135.703 187.85C135.763 166.641 144.163 154.608 142.709 151.334L142.702 151.338Z" fill="#FFBD95"/>
<path d="M128.147 200.787C125.727 202.459 125.353 205.218 124.982 206.724C124.608 208.231 125.825 221.64 126.108 222.306C127.131 224.73 133.869 224.86 135.812 221.809C136.239 221.139 141.005 214.256 142.226 209.546C143.122 206.093 143.203 203.436 141.404 201.958C138.719 199.757 129.949 199.542 128.147 200.787Z" fill="#FFBD95"/>
<path d="M129.029 142.882C128.33 141.065 128.401 134.225 128.401 134.225H119.698C119.698 134.225 119.768 141.069 119.07 142.882C118.371 144.699 114.833 147.352 114.833 147.352H133.265C133.265 147.352 129.727 144.699 129.029 142.882Z" fill="#FFBD95"/>
<path d="M131.759 266.594C131.759 266.594 131.484 269.268 132.193 270.767C132.902 272.267 135.47 275.371 136.652 274.983C137.834 274.599 139.033 271.05 139.164 270.492C139.975 267.007 137.816 261.549 137.816 261.549L131.759 266.594Z" fill="#8D3B26"/>
<path d="M112.377 212.012C106.923 214.528 110.12 227.64 111.573 230.851C112.49 232.883 118.823 242.379 124.88 250.236C128.242 254.596 130.069 257.006 130.821 259.32C131.932 262.738 135.527 260.703 136.391 260.099C137.255 259.496 126.894 231.782 122.432 221.887C117.969 211.991 115.785 210.442 112.374 212.016L112.377 212.012Z" fill="#FFA47C"/>
<path d="M135.647 257.094L130.821 259.316C130.821 259.316 131.671 266.954 132.006 267.755C132.341 268.552 134.451 271.233 135.527 270.736C138.529 269.353 138.529 262.773 137.587 260.936C136.641 259.098 135.65 257.094 135.65 257.094H135.647Z" fill="#FFA47C"/>
<path d="M130.408 209.356C126.718 209.91 125.649 212.435 126.862 223.305C128.076 234.174 133.294 263.43 134.331 263.465C135.371 263.497 139.298 263.874 138.592 260.343C138.123 257.976 138.638 252.853 139.171 246.214C139.855 237.656 140.656 226.624 140.427 224.578C140.035 221.047 136.303 208.467 130.401 209.356H130.408Z" fill="#FFBD95"/>
<path d="M141.376 266.435L133.685 265.511C133.685 265.511 134.609 271.339 137.061 273.847C137.456 274.249 140.264 276.595 141.464 276.267C142.66 275.939 143.274 271.882 143.115 270.217C142.96 268.552 141.376 266.435 141.376 266.435Z" fill="#8D3B26"/>
<path d="M138.494 259.743L133.276 260.53C133.276 260.53 133.449 262.78 133.576 264.865C133.703 266.947 137.029 272.531 140.275 272.041C141.436 271.865 141.873 268.421 141.753 267.561C141.633 266.696 138.494 259.747 138.494 259.747V259.743Z" fill="#FFBD95"/>
<path d="M138.155 171.577C139.259 170.377 141.005 159.865 141.005 159.865C141.005 159.865 126.637 156.171 122.386 156.097C117.923 156.019 106.797 159.155 106.797 159.155C106.797 159.155 107.34 168.536 109.435 170.783C111.464 172.953 111.69 185.385 111.665 187.939C111.626 192.034 106.666 195.262 104.348 204.233C102.034 213.205 107.985 236.022 107.985 236.022C107.985 236.022 110.282 236.717 126.457 236.717C140.363 236.717 141.894 234.463 141.894 234.463C141.894 234.463 141.63 224 141.136 214.94C140.921 211.017 143.44 213.6 143.697 210.813C144.579 201.27 136.701 190.973 136.663 186.877C136.645 184.919 137.054 172.78 138.155 171.584V171.577Z" fill="#79B84F"/>
<path d="M128.404 135.421V135.407L124.432 134.225H119.698C119.698 134.225 119.768 141.069 119.07 142.882C118.371 144.699 114.833 147.352 114.833 147.352C114.833 147.352 120.809 145.87 121.931 145.471C123.052 145.073 129.029 142.885 129.029 142.885C129.029 142.885 128.496 138.888 128.496 138.881C128.429 137.604 128.408 136.32 128.401 135.424L128.404 135.421Z" fill="#FFA47C"/>
<path d="M122.202 118.078C117.038 118.184 113.002 122.699 113.781 129.494C114.572 136.384 119.285 141.88 122.682 141.813C126.171 141.742 131.925 136.08 131.787 129.247C131.65 122.41 127.37 117.976 122.206 118.082L122.202 118.078Z" fill="#FFBD95"/>
<path d="M116.18 120.128C116.233 120.731 117.496 122.756 118.008 123.589C119.073 125.317 121.116 126.114 125.218 125.716C128.157 125.43 130.75 129.106 131.001 130.704C131.096 131.314 130.93 134.369 130.93 134.369C130.93 134.369 136.07 127.261 129.113 120.608C122.156 113.954 116.124 119.525 116.177 120.128H116.18Z" fill="#8D3B26"/>
<path d="M116.18 120.128C111.764 122.364 113.415 128.884 113.415 128.884C113.415 128.884 115.344 126.492 117.62 125.508C119.895 124.523 119.387 121.736 119.387 121.736C119.387 121.736 120.601 117.891 116.184 120.124L116.18 120.128Z" fill="#8D3B26"/>
<path d="M135.703 195.188C125.829 195.675 116.565 190.934 116.565 190.934C116.565 190.934 116.766 187.177 116.565 185.247C116.364 183.317 119.659 178.11 121.666 176.375C123.673 174.639 131.533 173.898 131.533 173.898L127.526 172.79C127.526 172.79 122.167 172.321 118.89 172.752C115.609 173.178 112.522 170.007 110.55 168.815C108.578 167.622 108.014 158.824 108.014 158.824C107.259 159.025 106.796 159.156 106.796 159.156C106.796 159.156 107.34 168.536 109.435 170.783C111.464 172.953 111.69 185.385 111.665 187.939C111.626 192.034 106.581 195.241 104.348 204.234C102.006 213.66 107.985 236.022 107.985 236.022C110.13 236.079 105.816 218.496 108.105 210.502C109.615 205.232 116.854 205.641 118.678 209.314C122.121 216.249 125.712 222.479 124.975 217.95C122.566 203.122 139.471 195.005 135.696 195.192L135.703 195.188Z" fill="#659C40"/>
<path d="M125.233 190.454C122.7 190.546 111.615 188.623 111.615 188.623L111.009 190.574C111.009 190.574 124.195 192.391 125.233 192.518C126.27 192.645 137.647 190.461 137.647 190.461L136.885 188.627C136.885 188.627 127.762 190.369 125.229 190.457L125.233 190.454Z" fill="#303030"/>
<path d="M109.897 167.816C107.491 169.287 103.12 172.261 99.6738 174.703C94.1246 178.629 92.9428 182.192 94.6891 184.503C96.0049 186.242 99.8573 185.025 103.607 180.933C107.932 176.216 114.258 169.591 112.917 168.18C112.289 167.52 111.076 167.097 109.897 167.816Z" fill="#FFA47C"/>
<path d="M106.68 149.694C103.113 151.8 102.013 156.093 102.013 156.093L106.8 159.152L113.831 157.388L111.386 148.258C111.386 148.258 107.569 149.168 106.684 149.694H106.68Z" fill="#79B84F"/>
<path d="M146.234 166.666C146.403 158.125 144.244 150.079 141.841 150.079C136.871 150.079 136.857 158.517 137.897 168.427C139.227 181.102 139.351 187.155 143.203 186.774C147.451 186.355 145.937 181.511 146.234 166.666Z" fill="#FFBD95"/>
<path d="M135.562 147.539L133.117 158.129L136.948 162.214L146.138 161.304C146.138 161.304 145.408 152.305 143.221 150.177C141.767 148.766 135.562 147.535 135.562 147.535V147.539Z" fill="#79B84F"/>
<path d="M114.131 153.963H119.599C120.565 153.963 121.352 154.749 121.352 155.716V169.337C121.352 170.303 120.565 171.09 119.599 171.09H114.131C113.164 171.09 112.377 170.303 112.377 169.337V155.716C112.377 154.749 113.164 153.963 114.131 153.963Z" fill="#303030"/>
<path d="M133.992 173.626C125.469 169.442 122.375 164.274 120.756 166.574C119.571 168.261 122.686 171.527 131.921 179.962C138.949 186.379 144.265 188.041 145.493 186.069C148.033 181.987 142.625 177.86 133.989 173.623L133.992 173.626Z" fill="#FFBD95"/>
<path d="M120.756 160.941C119.433 160.969 119.927 167.001 119.927 167.001L124.972 168.582C124.972 168.582 122.255 160.905 120.756 160.941Z" fill="#FFBD95"/>
<path d="M121.839 166.264C121.853 166.063 121.991 165.763 122.005 165.562C122.015 165.4 121.931 165.089 121.941 164.931C121.952 164.782 122.043 164.655 122.054 164.514C122.068 164.324 121.906 164.066 121.916 163.883C121.927 163.728 122.015 163.431 122.033 163.29C122.114 162.722 121.722 162.69 121.729 162.514C121.754 161.967 121.751 161.805 121.722 161.706C121.595 161.219 119.842 159.434 119.514 159.286C119.182 159.138 117.126 159.343 117.066 159.551C116.914 160.076 117.637 160.433 118.195 160.341C119.32 160.157 120.452 162.154 120.227 162.034C120.124 161.981 119.585 161.66 118.946 161.696C118.17 161.738 117.246 162.154 116.808 162.214C116.434 162.267 116.187 162.666 116.388 162.909C116.688 163.276 118.233 163.202 118.233 163.202C118.233 163.202 116.847 164.507 116.861 164.669C116.907 165.23 118.424 164.655 118.646 164.821C118.833 164.959 117.697 166.162 117.743 166.402C117.916 167.298 119.92 165.943 119.69 166.832C119.574 167.28 121.285 169.88 122.559 170.24C122.559 170.24 121.698 168.162 121.832 166.264H121.839Z" fill="#FFBD95"/>
<path d="M110.631 161.823C109.195 162.253 108.97 170.392 108.97 170.392L113.284 167.336C113.284 167.336 111.901 161.445 110.631 161.826V161.823Z" fill="#FFA47C"/>
<path d="M113.729 163.195C113.729 163.195 115.221 162.793 115.394 162.352C115.51 162.059 115.15 161.755 114.78 161.819C113.986 161.957 112.261 162.031 112.085 162.211C111.908 162.39 112.49 161.135 113.019 160.122C113.549 159.113 113.182 158.386 112.981 158.302C112.783 158.217 111.587 159.932 111.316 160.175C111.047 160.418 109.915 162.341 109.947 162.842C109.954 162.944 110 163.1 110.19 163.615C110.25 163.78 109.887 163.932 110.141 164.447C110.204 164.578 110.377 164.832 110.437 164.976C110.504 165.146 110.427 165.438 110.497 165.618C110.55 165.752 110.677 165.844 110.733 165.982C110.793 166.13 110.808 166.451 110.868 166.603C110.942 166.79 111.167 167.033 111.241 167.22C111.954 168.984 111.774 171.228 111.774 171.228C112.878 170.494 113.704 167.492 113.457 167.104C112.967 166.327 115.291 166.998 115.178 166.095C115.147 165.851 113.697 165.057 113.831 164.867C113.993 164.641 115.612 164.722 115.485 164.175C115.45 164.017 113.729 163.202 113.729 163.202V163.195Z" fill="#FFA47C"/>
</g>
</g>
<defs>
<linearGradient id="paint0_linear_13801_50180" x1="134.585" y1="212.947" x2="134.585" y2="310.144" gradientUnits="userSpaceOnUse">
<stop stop-color="white"/>
<stop offset="0.14" stop-color="#D2D2D2"/>
<stop offset="0.29" stop-color="#ABABAB"/>
<stop offset="0.44" stop-color="#8D8D8D"/>
<stop offset="0.58" stop-color="#777777"/>
<stop offset="0.72" stop-color="#6A6A6A"/>
<stop offset="0.85" stop-color="#666666"/>
</linearGradient>
<linearGradient id="paint1_linear_13801_50180" x1="85.5767" y1="261.034" x2="183.261" y2="-60.1311" gradientUnits="userSpaceOnUse">
<stop stop-color="white"/>
<stop offset="0.23" stop-color="#FBFBFB"/>
<stop offset="0.41" stop-color="#F2F2F2"/>
<stop offset="0.57" stop-color="#E1E1E1"/>
<stop offset="0.72" stop-color="#CACACA"/>
<stop offset="0.86" stop-color="#ACACAC"/>
<stop offset="1" stop-color="#878787"/>
</linearGradient>
<clipPath id="clip0_13801_50180">
<rect width="381" height="380.996" fill="white" transform="translate(-56 -13)"/>
</clipPath>
</defs>
</svg>
