<svg width="25" height="22" viewBox="0 0 25 22" fill="none" xmlns="http://www.w3.org/2000/svg">
<path d="M9.89182 3C5.5356 3 2.00458 5.72352 2.00458 9.07391C2.0255 10.3774 2.54073 11.6243 3.44603 12.5624C3.0964 13.3139 2.63948 14.0106 2.08958 14.6307C2.06121 14.6588 2.03868 14.6921 2.0233 14.7289C2.00792 14.7657 2 14.8052 2 14.845C2 14.8849 2.00792 14.9244 2.0233 14.9611C2.03868 14.9979 2.06121 15.0313 2.08958 15.0593C2.14599 15.113 2.22065 15.1434 2.29854 15.1443C3.48439 15.1319 4.64559 14.8043 5.6631 14.1951C6.97848 14.8287 8.42122 15.1533 9.88119 15.1443C14.2339 15.1443 17.7649 12.4278 17.7649 9.07746C17.7649 5.72706 14.2445 3 9.89182 3ZM10.3664 13.3239C10.3034 13.3871 10.2282 13.437 10.1455 13.4705C10.0627 13.504 9.97401 13.5203 9.88474 13.5187C9.75246 13.5163 9.62375 13.4754 9.51437 13.401C9.405 13.3265 9.31971 13.2218 9.26896 13.0996C9.21821 12.9775 9.2042 12.8431 9.22865 12.7131C9.2531 12.5831 9.31495 12.463 9.40661 12.3676C9.5374 12.2472 9.7087 12.1803 9.88651 12.1803C10.0643 12.1803 10.2356 12.2472 10.3664 12.3676C10.4304 12.4297 10.4814 12.504 10.5161 12.5862C10.5509 12.6683 10.5688 12.7566 10.5688 12.8458C10.5688 12.935 10.5509 13.0232 10.5161 13.1054C10.4814 13.1875 10.4304 13.2618 10.3664 13.3239ZM11.266 9.45287C10.7418 9.83537 10.3664 10.1187 10.3664 10.9085C10.3561 11.0277 10.3015 11.1388 10.2133 11.2197C10.1251 11.3006 10.0097 11.3455 9.89005 11.3455C9.77036 11.3455 9.65502 11.3006 9.56683 11.2197C9.47863 11.1388 9.42399 11.0277 9.4137 10.9085C9.4137 9.63349 10.122 9.10933 10.7135 8.68788C11.2129 8.33371 11.5422 8.08934 11.5422 7.41643C11.5526 7.19302 11.5175 6.96984 11.4391 6.76038C11.3608 6.55092 11.2407 6.35952 11.0863 6.19777C10.9319 6.03601 10.7462 5.90726 10.5406 5.81929C10.335 5.73132 10.1137 5.68596 9.89005 5.68596C9.66641 5.68596 9.44509 5.73132 9.23947 5.81929C9.03386 5.90726 8.84822 6.03601 8.69379 6.19777C8.53935 6.35952 8.41932 6.55092 8.34096 6.76038C8.26259 6.96984 8.22753 7.19302 8.23787 7.41643C8.22762 7.53476 8.17337 7.64495 8.08583 7.72523C7.9983 7.80551 7.88384 7.85005 7.76506 7.85005C7.64629 7.85005 7.53183 7.80551 7.44429 7.72523C7.35676 7.64495 7.30251 7.53476 7.29225 7.41643C7.29225 6.72698 7.56614 6.06577 8.05365 5.57826C8.54116 5.09074 9.20237 4.81686 9.89182 4.81686C10.5813 4.81686 11.2425 5.09074 11.73 5.57826C12.2175 6.06577 12.4914 6.72698 12.4914 7.41643C12.4914 8.57808 11.8114 9.07037 11.266 9.45995V9.45287Z" fill="white"/>
<path d="M22.4034 17.4145C23.3075 16.4756 23.8225 15.2292 23.8449 13.926C23.8449 11.3902 21.8155 9.21916 18.9468 8.3125C18.9823 8.56476 19.0001 8.8192 18.9999 9.07395C18.9999 13.0866 14.9164 16.352 9.90142 16.352C9.49906 16.35 9.09709 16.3264 8.69727 16.2812C9.88726 18.4628 12.6887 19.9999 15.9576 19.9999C17.4182 20.0067 18.8609 19.6797 20.1757 19.0437C21.1956 19.6571 22.3608 19.9872 23.5509 19.9999C23.6102 19.999 23.6681 19.9812 23.7176 19.9486C23.7672 19.916 23.8064 19.8699 23.8307 19.8158C23.8539 19.761 23.8606 19.7006 23.8499 19.642C23.8392 19.5835 23.8116 19.5294 23.7705 19.4864C23.2159 18.8664 22.7553 18.1683 22.4034 17.4145Z" fill="white"/>
</svg>
