<svg width="46" height="46" viewBox="0 0 46 46" fill="none" xmlns="http://www.w3.org/2000/svg">
<rect x="0.453913" y="0.453913" width="44.4835" height="44.4835" rx="22.2417" stroke="white" stroke-width="0.907826"/>
<path fill-rule="evenodd" clip-rule="evenodd" d="M28.1426 15.4331H17.2487C16.2474 15.4331 15.433 16.2474 15.433 17.2488V28.1427C15.433 29.144 16.2474 29.9583 17.2487 29.9583H22.6957V24.9653H20.88V22.6957H22.6957V20.8801C22.6957 20.1578 22.9826 19.465 23.4933 18.9543C24.0041 18.4435 24.6968 18.1566 25.4191 18.1566H27.2348V20.4261H26.327C25.8258 20.4261 25.4191 20.3789 25.4191 20.8801V22.6957H27.6887L26.7809 24.9653H25.4191V29.9583H28.1426C29.1439 29.9583 29.9583 29.144 29.9583 28.1427V17.2488C29.9583 16.2474 29.1439 15.4331 28.1426 15.4331Z" fill="white"/>
</svg>
