<svg width="46" height="46" viewBox="0 0 46 46" fill="none" xmlns="http://www.w3.org/2000/svg">
<rect x="0.923456" y="0.453669" width="44.4835" height="44.4835" rx="22.2417" stroke="white" stroke-width="0.907826"/>
<path d="M19.2079 21.5304V24.0966H23.1391C23.0299 25.134 21.9925 27.0996 19.2079 27.0996C16.8601 27.0996 14.9491 25.134 14.9491 22.7316C14.9491 20.3292 16.7509 18.3636 19.0987 18.3636C20.4637 18.3636 21.3919 18.9096 21.8833 19.401L23.7943 17.5992C22.815 16.6698 21.582 16.0518 20.2514 15.8233C18.9207 15.5948 17.5522 15.7661 16.3189 16.3155C15.0857 16.865 14.043 17.7678 13.323 18.9099C12.6029 20.052 12.2378 21.3819 12.2737 22.7316C12.2737 26.5536 15.3859 29.6658 19.2079 29.6658C23.2483 29.6658 25.8691 26.772 25.8691 22.8408L25.7599 21.5304" fill="white"/>
<path fill-rule="evenodd" clip-rule="evenodd" d="M31.6294 23.2503V25.68H30.046V23.2503H27.6163V21.6669H30.046V19.2372H31.6294V21.6669H34.0591V23.2503H31.6294Z" fill="white"/>
</svg>
