<svg width="47" height="46" viewBox="0 0 47 46" fill="none" xmlns="http://www.w3.org/2000/svg">
<rect x="1.39312" y="0.453669" width="44.4835" height="44.4835" rx="22.2417" stroke="white" stroke-width="0.907826"/>
<path d="M23.6348 16.7454C25.5598 16.7454 25.8223 16.7454 26.6098 16.7454C27.3099 16.7454 27.6599 16.9204 27.9224 17.0079C28.2724 17.1829 28.5349 17.2704 28.7974 17.5329C29.0599 17.7954 29.2349 18.0579 29.3224 18.4079C29.4099 18.6704 29.4974 19.0204 29.5849 19.7204C29.5849 20.5079 29.5849 20.6829 29.5849 22.6955C29.5849 24.708 29.5849 24.883 29.5849 25.6705C29.5849 26.3705 29.4099 26.7205 29.3224 26.983C29.1474 27.333 29.0599 27.5955 28.7974 27.858C28.5349 28.1206 28.2724 28.2956 27.9224 28.3831C27.6599 28.4706 27.3099 28.5581 26.6098 28.6456C25.8223 28.6456 25.6473 28.6456 23.6348 28.6456C21.6223 28.6456 21.4473 28.6456 20.6598 28.6456C19.9597 28.6456 19.6097 28.4706 19.3472 28.3831C18.9972 28.2081 18.7347 28.1206 18.4722 27.858C18.2097 27.5955 18.0347 27.333 17.9472 26.983C17.8597 26.7205 17.7722 26.3705 17.6847 25.6705C17.6847 24.883 17.6847 24.708 17.6847 22.6955C17.6847 20.6829 17.6847 20.5079 17.6847 19.7204C17.6847 19.0204 17.8597 18.6704 17.9472 18.4079C18.1222 18.0579 18.2097 17.7954 18.4722 17.5329C18.7347 17.2704 18.9972 17.0954 19.3472 17.0079C19.6097 16.9204 19.9597 16.8329 20.6598 16.7454C21.4473 16.7454 21.7098 16.7454 23.6348 16.7454ZM23.6348 15.4329C21.6223 15.4329 21.4473 15.4329 20.6598 15.4329C19.8722 15.4329 19.3472 15.6079 18.9097 15.7829C18.4722 15.9579 18.0347 16.2204 17.5972 16.6579C17.1597 17.0954 16.9847 17.4454 16.7222 17.9704C16.5472 18.4079 16.4597 18.9329 16.3722 19.7204C16.3722 20.5079 16.3722 20.7704 16.3722 22.6955C16.3722 24.708 16.3722 24.883 16.3722 25.6705C16.3722 26.458 16.5472 26.983 16.7222 27.4205C16.8972 27.858 17.1597 28.2956 17.5972 28.7331C18.0347 29.1706 18.3847 29.3456 18.9097 29.6081C19.3472 29.7831 19.8722 29.8706 20.6598 29.9581C21.4473 29.9581 21.7098 29.9581 23.6348 29.9581C25.5598 29.9581 25.8223 29.9581 26.6098 29.9581C27.3974 29.9581 27.9224 29.7831 28.3599 29.6081C28.7974 29.4331 29.2349 29.1706 29.6724 28.7331C30.1099 28.2956 30.2849 27.9455 30.5474 27.4205C30.7224 26.983 30.8099 26.458 30.8974 25.6705C30.8974 24.883 30.8974 24.6205 30.8974 22.6955C30.8974 20.7704 30.8974 20.5079 30.8974 19.7204C30.8974 18.9329 30.7224 18.4079 30.5474 17.9704C30.3724 17.5329 30.1099 17.0954 29.6724 16.6579C29.2349 16.2204 28.8849 16.0454 28.3599 15.7829C27.9224 15.6079 27.3974 15.5204 26.6098 15.4329C25.8223 15.4329 25.6473 15.4329 23.6348 15.4329Z" fill="white"/>
<path d="M23.6348 18.9329C21.5348 18.9329 19.8722 20.5954 19.8722 22.6955C19.8722 24.7955 21.5348 26.458 23.6348 26.458C25.7348 26.458 27.3974 24.7955 27.3974 22.6955C27.3974 20.5954 25.7348 18.9329 23.6348 18.9329ZM23.6348 25.1455C22.3223 25.1455 21.1848 24.0955 21.1848 22.6955C21.1848 21.383 22.2348 20.2454 23.6348 20.2454C24.9473 20.2454 26.0848 21.2954 26.0848 22.6955C26.0848 24.008 24.9473 25.1455 23.6348 25.1455Z" fill="white"/>
<path d="M27.4849 19.7204C27.9681 19.7204 28.3599 19.3287 28.3599 18.8454C28.3599 18.3622 27.9681 17.9704 27.4849 17.9704C27.0016 17.9704 26.6098 18.3622 26.6098 18.8454C26.6098 19.3287 27.0016 19.7204 27.4849 19.7204Z" fill="white"/>
</svg>
