<svg width="25" height="22" viewBox="0 0 25 22" fill="none" xmlns="http://www.w3.org/2000/svg">
<path fill-rule="evenodd" clip-rule="evenodd" d="M11.4411 2C14.2986 2 16.8447 3.33154 18.4933 5.40812H11.877C10.3487 5.40812 9.09831 6.65854 9.09831 8.18681V13.8129C9.09831 15.3415 10.3487 16.5919 11.877 16.5919H18.4933C16.8447 18.6685 14.2986 20 11.4411 20C6.47079 20 2.44141 15.9704 2.44141 11C2.44141 6.02938 6.47079 2 11.4411 2ZM10.7359 15.1218C10.7317 15.1023 9.1099 8.40619 16.5176 8.02932V6.83315C16.5176 6.60903 16.7689 6.48051 16.9501 6.60324L22.4095 9.75537C22.5967 9.86361 22.5904 10.1336 22.4058 10.236L16.9335 13.3955C16.7478 13.5035 16.5182 13.3663 16.5184 13.1564L16.5176 11.9502C13.897 11.9894 12.6126 12.5999 11.5428 15.1437C11.3645 15.5719 10.828 15.5224 10.7359 15.1218Z" fill="white"/>
</svg>
