<svg width="250" height="310" viewBox="0 0 250 310" fill="none" xmlns="http://www.w3.org/2000/svg">
<mask id="mask0_13801_46648" style="mask-type:alpha" maskUnits="userSpaceOnUse" x="0" y="0" width="250" height="310">
<rect width="250" height="310" rx="60" fill="#C4C4C4"/>
</mask>
<g mask="url(#mask0_13801_46648)">
<g clip-path="url(#clip0_13801_46648)">
<path d="M311 -20H-43V334H311V-20Z" fill="#137E88"/>
<path d="M310.993 189.178H-43V334H310.993V189.178Z" fill="#005E60"/>
<path style="mix-blend-mode:soft-light" d="M-42.587 284.659L310.993 284.407V189.152H-42.6821L-42.587 284.659Z" fill="url(#paint0_linear_13801_46648)"/>
<path style="mix-blend-mode:soft-light" d="M302.842 -15.4669H-35.8477V188.739H302.842V-15.4669Z" fill="url(#paint1_linear_13801_46648)"/>
<g style="mix-blend-mode:soft-light" opacity="0.5">
<path d="M34.9784 37.135L55.4153 31.4677L72.5221 10.467L70.2965 11.0832L34.9784 37.135Z" fill="white"/>
<path d="M69.4246 43.7396L59.4536 46.5093C57.5426 47.0403 56.6707 47.8696 57.3099 50.1739C57.9851 52.6126 59.1225 52.7404 61.04 52.2094L71.0044 49.4429C72.9187 48.9152 74.1151 47.2075 73.6791 45.6342C73.2399 44.0576 71.3322 43.2119 69.4246 43.7396Z" fill="#9BA4AB"/>
<path d="M54.8122 27.577C42.3206 30.3205 28.2687 33.5753 20.1202 37.0432C19.0385 37.5021 8.52668 44.7263 9.12651 47.4501C10.2639 52.6356 31.3138 51.6719 58.3129 43.5037C84.1581 35.6829 103.884 23.3027 103.884 23.3027C102.746 18.1239 81.1852 21.7851 54.8155 27.577H54.8122Z" fill="white"/>
<path d="M22.3885 45.9062C14.571 48.7153 9.10364 47.2075 9.10364 47.2075C9.10364 47.2862 9.11019 47.3747 9.1233 47.4501C10.2607 52.6355 31.3106 51.6719 58.3096 43.5036C84.1549 35.6829 103.881 23.3027 103.881 23.3027C103.864 23.2175 103.838 23.1322 103.805 23.0503C103.805 23.0503 37.9907 40.3078 22.3852 45.9062H22.3885Z" fill="#9BA4AB"/>
<path d="M33.9361 44.6049L96.3352 52.8617L99.921 52.0094L60.9974 35.201L33.9361 44.6049Z" fill="white"/>
<path d="M91.812 22.7717L103.078 21.9162L105.153 5.57971L100.993 6.84493L91.812 22.7717Z" fill="#9BA4AB"/>
<path d="M92.6739 26.4133L106.021 31.8642L112.124 30.1729L103.661 23.3682L92.6739 26.4133Z" fill="#E53600"/>
<path d="M57.4704 47.8172C57.0542 47.932 56.9919 49.0267 57.3328 50.2625C57.6769 51.4982 58.2637 52.2947 58.6799 52.1767C59.0962 52.062 59.1913 51.0753 58.8504 49.8429C58.5062 48.6039 57.89 47.6992 57.4704 47.8172Z" fill="black"/>
<path d="M19.2874 40.6914C17.6387 40.2063 16.4915 39.4622 16.4915 39.4622L12.4369 42.7334C12.4369 42.7334 14.7215 44.3232 16.9832 44.6444C19.2448 44.9591 23.7419 43.8053 23.7714 42.1926C23.7944 40.5767 20.9394 41.1798 19.2907 40.6914H19.2874Z" fill="black"/>
<path d="M56.7789 36.3712L98.7214 52.2979L58.6309 35.8533L56.7789 36.3712Z" fill="#E53600"/>
<path d="M56.7001 27.1671L71.4272 10.7684L54.8121 27.5768L56.7001 27.1671Z" fill="#E53600"/>
</g>
<path d="M309.187 82.6501H-42.1904V89.127H309.187V82.6501Z" fill="#137E88"/>
<path d="M50.6297 -17.8071H43.3956V189.034H50.6297V-17.8071Z" fill="#137E88"/>
<path d="M136.917 -17.7548H129.683V189.086H136.917V-17.7548Z" fill="#137E88"/>
<path d="M223.201 -17.7023H215.967V189.139H223.201V-17.7023Z" fill="#137E88"/>
<path d="M213.493 117.968C212.975 113.625 210.746 111.186 208.419 111.504C202.168 112.353 206.721 131.623 207.698 134.646C208.674 137.668 210.89 140.208 212.437 140.021C214.289 139.801 215.276 138.041 215.259 136.199C215.243 134.357 214.102 127.631 213.994 126.461C213.889 125.33 214.011 122.308 213.493 117.965V117.968Z" fill="#FFBD95"/>
<path d="M209.186 109.511C205.196 107.089 193.714 105.591 193.714 105.591V105.788C193.714 105.788 182.131 106.738 178.135 109.148C175.07 110.996 180.384 122.164 182.393 128.375C182.875 129.866 182.813 136.547 182.619 142.473C182.57 143.935 181.374 150.654 181.574 153.43C181.633 154.26 191.007 159.406 193.636 159.543V159.347C196.265 159.219 205.655 154.099 205.714 153.27C205.921 150.494 204.744 143.771 204.702 142.309C204.525 136.383 204.482 129.703 204.97 128.211C206.999 122.003 212.247 111.363 209.189 109.508L209.186 109.511Z" fill="#FFBD95"/>
<path d="M179.623 111.078C177.49 110.095 174.644 111.77 172.878 115.772C171.108 119.774 170.341 122.695 169.908 123.747C169.459 124.832 166.401 130.928 165.844 132.685C165.29 134.442 165.716 136.412 167.423 137.166C168.849 137.795 171.711 136.019 173.533 133.413C175.352 130.807 185.356 113.72 179.627 111.075L179.623 111.078Z" fill="#FFBD95"/>
<path d="M178.997 108.84C178.997 108.84 176.027 109.2 174.448 111.098C172.868 112.996 167.948 125.802 167.948 125.802C167.948 125.802 174.805 130.879 175.201 131.007C175.598 131.135 181.2 122.691 181.2 122.691C181.2 122.691 182.308 110.557 178.997 108.84Z" fill="#6D0000"/>
<path d="M198.516 103.759C198.254 102.576 197.608 96.7248 197.608 96.7248L193.731 96.7182V96.9149L189.853 96.9083C189.853 96.9083 189.188 102.756 188.922 103.939C188.657 105.122 185.464 106.902 185.464 106.902L193.714 106.915V106.719L201.968 106.732C201.968 106.732 198.779 104.942 198.52 103.759H198.516Z" fill="#FFBD95"/>
<path d="M197.386 96.7248L193.731 96.7182V96.9149L189.853 96.9083C189.853 96.9083 189.188 102.756 188.922 103.939C188.657 105.122 185.464 106.902 185.464 106.902H185.854C189.539 105.926 193.2 104.952 193.695 104.811C194.724 104.516 198.261 102.104 198.261 102.104C198.018 100.311 197.726 97.7606 197.638 96.9673L197.389 96.7215L197.386 96.7248Z" fill="#FFA47C"/>
<path d="M187.477 146.921C182.744 146.898 180.902 150.195 181.016 160.317C181.131 170.439 182.626 181.416 183.281 182.993C183.937 184.569 190.64 184.615 191.299 183.694C191.958 182.776 193.632 161.779 193.636 158.495C193.642 155.21 192.629 146.944 187.477 146.917V146.921Z" fill="#FFBD95"/>
<path d="M183.199 187.572L183.306 183.368C183.354 181.484 184.923 179.989 186.811 180.037L188.059 180.069C189.943 180.117 191.438 181.687 191.39 183.574L191.282 187.778C191.234 189.662 189.665 191.157 187.778 191.108L186.529 191.077C184.645 191.029 183.154 189.459 183.202 187.575L183.199 187.572Z" fill="#FFBD95"/>
<path d="M187.09 184.9C185.645 184.9 182.095 185.372 182.278 194.806C182.462 204.242 186.451 217.17 186.451 217.17L189.87 217.176C189.87 217.176 191.564 199.709 191.577 196.359C191.607 188.735 191.659 184.907 187.093 184.9H187.09Z" fill="#FFBD95"/>
<path d="M199.959 147.006C194.836 147.56 194.678 155.885 195.022 159.153C195.367 162.421 199.192 183.13 199.942 183.979C200.693 184.825 207.357 184.094 207.845 182.455C208.333 180.816 208.687 169.747 207.763 159.668C206.836 149.589 204.662 146.498 199.959 147.006Z" fill="#FFBD95"/>
<path d="M202.797 180.038L204.036 179.878C205.905 179.636 207.619 180.958 207.861 182.828L208.399 186.998C208.641 188.868 207.319 190.585 205.447 190.827L204.208 190.987C202.339 191.228 200.621 189.907 200.38 188.034L199.841 183.863C199.599 181.994 200.921 180.277 202.794 180.035L202.797 180.038Z" fill="#FFBD95"/>
<path d="M204.253 184.743C199.71 185.218 200.159 189.024 200.972 196.602C201.329 199.936 204.813 217.134 204.813 217.134L208.212 216.777C208.212 216.777 210.851 203.505 210.061 194.101C209.271 184.697 205.692 184.592 204.256 184.743H204.253Z" fill="#FFBD95"/>
<path d="M180.364 157.754C180.095 162.287 182.285 182.111 182.288 184.294C182.291 186.477 182.134 193.18 182.265 199.752C182.396 206.324 184.071 219.265 184.071 219.265L192.482 219.068C192.482 219.068 192.534 191.285 192.541 186.916C192.548 182.55 193.632 159.55 193.632 159.55L193.655 145.256L182.344 144.885C182.344 144.885 180.63 153.221 180.361 157.754H180.364Z" fill="#00233F"/>
<path d="M204.302 107.253C202.034 106.545 200.001 105.654 200.001 105.654L193.698 109.253L187.402 105.634C187.402 105.634 185.369 106.522 183.098 107.22C180.521 108.014 177.647 108.679 177.204 109.587C176.755 110.508 181.347 128.201 181.862 129.709C182.377 131.214 181.036 141.739 182.344 144.889L193.629 145.256H193.652L204.941 144.921C205.977 141.312 204.934 131.05 205.456 129.545C205.977 128.041 210.631 110.56 210.185 109.636C209.746 108.728 206.872 108.056 204.298 107.253H204.302Z" fill="#6D0000"/>
<path d="M208.966 183.845C208.746 181.675 208.884 161.73 208.147 157.249C207.412 152.768 204.849 144.652 204.849 144.652L193.656 145.256L193.6 160.268C193.6 160.268 198.575 183.166 199.031 187.509C199.487 191.852 202.378 219.484 202.378 219.484L210.766 218.812C210.766 218.812 211.126 205.767 210.579 199.218C210.031 192.669 209.186 186.015 208.963 183.845H208.966Z" fill="#00233F"/>
<path d="M182.229 223.486C182.314 223.991 183.527 225.82 185.73 225.954C187.405 226.056 190.135 224.532 190.561 224.486C191.548 224.384 191.545 219.084 191.545 219.084L184.953 219.238C184.953 219.238 182.078 222.598 182.229 223.483V223.486Z" fill="#191919"/>
<path d="M209.589 218.914L203.017 219.438C203.017 219.438 203.561 224.712 204.551 224.709C204.98 224.709 207.855 225.945 209.51 225.673C211.686 225.312 212.703 223.365 212.739 222.857C212.798 221.959 209.592 218.914 209.592 218.914H209.589Z" fill="#191919"/>
<path d="M195.501 143.748C194.416 143.069 192.79 142.388 191.804 141.775C190.817 141.162 191.777 139.061 191.767 137.976C191.758 136.891 194.77 134.858 196.805 134.118C198.841 133.374 202.368 133.652 203.184 132.23C204 130.807 201.83 129.447 200.883 129.444C199.936 129.44 193.832 127.67 192.882 127.805C191.931 127.939 184.74 128.673 183.589 127.792C182.439 126.907 176.729 110.308 176.729 110.308C178.007 115.883 181.538 128.749 181.869 129.706C182.383 131.21 181.043 141.735 182.35 144.885L193.636 145.252H193.659L204.947 144.918C204.947 144.918 202.489 144.571 201.473 144.259C200.457 143.948 196.589 144.423 195.504 143.745L195.501 143.748Z" fill="#5B0000"/>
<path d="M208.966 183.845C208.746 181.675 208.884 161.73 208.146 157.249C207.412 152.768 204.849 144.652 204.849 144.652L198.182 145.121C198.182 145.121 203.39 158.675 203.866 161.644C204.338 164.614 204.875 184.579 204.957 185.713C205.036 186.821 207.878 217.613 208.009 219.035L210.769 218.815C210.769 218.815 211.129 205.77 210.582 199.221C210.034 192.672 209.189 186.018 208.966 183.848V183.845Z" fill="#002D56"/>
<path d="M186.313 155.348C186.035 158.586 185.966 160.825 186.248 162.32C186.959 166.073 187.978 184.422 187.841 184.904C187.703 185.385 187.798 219.081 187.798 219.081L187.945 219.169L192.479 219.065C192.479 219.065 192.531 191.282 192.538 186.913C192.544 182.547 193.629 159.547 193.629 159.547V158.298L193.718 156.495L192.311 154.017C190.751 151.267 186.579 152.195 186.307 155.345L186.313 155.348Z" fill="#002D56"/>
<path d="M174.766 129.647C171.911 130.207 163.933 131.128 165.368 135.917C165.916 137.746 167.325 138.969 172.527 137.707C177.729 136.445 189.404 131.954 189.404 131.954L188.519 128.995C188.519 128.995 177.621 129.086 174.766 129.647Z" fill="#FFBD95"/>
<path d="M209.422 109.144C205.754 109.816 203.256 121.741 203.256 121.741C203.256 121.741 206.141 131.456 206.557 131.45C206.973 131.443 215.017 128.598 215.017 128.598C215.017 128.598 214.066 114.913 213.109 112.635C212.155 110.357 209.422 109.144 209.422 109.144Z" fill="#6D0000"/>
<path d="M211.516 133.633C209.615 133.829 208.153 134.99 208.425 140.336C208.697 145.682 210.933 157.99 210.933 157.99L214.007 157.672C214.007 157.672 215.948 146.947 215.928 144.04C215.908 141.132 216.492 133.121 211.516 133.636V133.633Z" fill="#FFBD95"/>
<path d="M204.639 112.075H179.882V128.863H204.639V112.075Z" fill="#E2F4FF"/>
<path d="M194.94 129.788L192.197 130.23C191.843 130.286 191.6 130.624 191.659 130.978C191.718 131.332 192.053 131.574 192.403 131.515L195.147 131.073C195.501 131.017 195.743 130.679 195.684 130.325C195.625 129.971 195.291 129.732 194.94 129.788Z" fill="#FFBD95"/>
<path d="M194.858 128.568L192.115 129.011C191.761 129.067 191.518 129.404 191.577 129.758C191.636 130.112 191.971 130.352 192.321 130.296L195.065 129.853C195.419 129.798 195.661 129.46 195.602 129.106C195.543 128.752 195.209 128.513 194.858 128.568Z" fill="#FFBD95"/>
<path d="M194.708 127.388L191.964 127.831C191.61 127.887 191.367 128.224 191.426 128.578C191.485 128.932 191.82 129.172 192.17 129.116L194.914 128.673C195.268 128.618 195.511 128.28 195.452 127.926C195.393 127.572 195.058 127.333 194.708 127.388Z" fill="#FFBD95"/>
<path d="M194.455 126.264L191.712 126.707C191.358 126.762 191.115 127.1 191.174 127.454C191.233 127.808 191.567 128.047 191.918 127.992L194.662 127.549C195.016 127.493 195.258 127.156 195.199 126.802C195.14 126.448 194.806 126.205 194.455 126.264Z" fill="#FFBD95"/>
<path d="M194.744 126.287C194.744 126.287 191.237 126.182 190.378 126.432C189.516 126.684 185.668 129.195 185.668 129.195L186.851 132.397C186.851 132.397 189.552 132.597 190.961 132.456C192.371 132.315 195.154 131.07 195.154 131.07C195.154 131.07 194.357 129.142 194.121 128.375C193.882 127.608 194.747 126.284 194.747 126.284L194.744 126.287Z" fill="#FFBD95"/>
<path d="M211.887 162.359C211.887 162.359 211.041 164.028 210.7 164.355C210.359 164.683 209.782 165.027 209.376 165.293C208.969 165.558 208.622 166.24 208.674 166.378C208.825 166.778 209.491 166.499 209.818 166.273C210.146 166.05 210.913 165.548 211.3 165.142C211.687 164.732 212.68 163.775 212.811 163.379C212.942 162.979 211.887 162.359 211.887 162.359Z" fill="#FFA47C"/>
<path d="M210.674 163.375C210.284 163.575 210.002 163.46 209.461 163.497C209.012 163.526 208.412 163.729 208.281 164.103C208.15 164.477 208.845 164.503 209.215 164.536C209.687 164.575 210.536 164.496 210.992 164.237C211.447 163.978 212.591 163.395 212.814 163.074C213.04 162.752 212.27 161.917 212.27 161.917C212.27 161.917 211.064 163.172 210.674 163.375Z" fill="#FFA47C"/>
<path d="M210.808 162.631C210.454 162.739 210.238 162.602 209.786 162.549C209.409 162.507 208.881 162.585 208.72 162.877C208.56 163.169 209.13 163.297 209.432 163.379C209.815 163.483 210.533 163.546 210.949 163.398C211.365 163.251 212.398 162.939 212.631 162.707C212.867 162.474 212.349 161.661 212.349 161.661C212.349 161.661 211.166 162.523 210.812 162.631H210.808Z" fill="#FFA47C"/>
<path d="M214.725 152.955L210.92 151.775C210.92 151.775 210.975 155.764 210.664 156.312C210.353 156.859 209.779 157.423 209.314 157.964C208.517 158.888 208.281 160.474 208.114 161.054C207.825 162.064 206.855 162.785 206.901 163.198C206.931 163.464 207.596 163.477 208.117 163.264C208.678 163.034 209.314 162.113 209.514 161.553C209.704 161.015 210.208 160.32 210.602 160.474C210.995 160.628 211.913 161.972 211.877 162.477C211.818 163.303 211.864 164.457 211.579 164.929C211.297 165.398 210.431 166.083 210.048 166.401C209.668 166.722 209.133 167.135 208.999 167.512C208.868 167.885 209.015 168.036 209.163 168.19C209.31 168.344 209.825 167.702 210.507 167.39C211.188 167.079 212.637 166.076 212.739 165.978C212.84 165.879 213.735 163.69 213.971 163.018C214.211 162.346 213.762 158.714 213.935 158.488C214.109 158.262 214.722 152.958 214.722 152.958L214.725 152.955Z" fill="#FFBD95"/>
<path d="M194.033 82.6631C190.112 82.037 185.94 85.6655 185.687 90.9591C185.442 96.0987 187.326 101.402 190.601 101.832C193.728 102.245 199.86 98.144 200.532 93.0438C201.204 87.9436 198.7 83.4071 194.036 82.6631H194.033Z" fill="#FFBD95"/>
<path d="M192.207 82.0633C190.945 82.3485 187.431 83.0303 186.461 87.298C186.461 87.298 190.964 84.9773 195.448 89.1106C196.412 89.9988 195.14 93.8666 195.383 94.201C195.642 94.5615 196.874 91.2051 197.041 91.6279C198.248 94.6795 197.186 98.4981 197.579 98.5211C198.772 98.5899 202.427 92.2933 200.585 87.2586C198.743 82.224 193.465 81.7782 192.207 82.0633Z" fill="#8D3B26"/>
<path d="M197.772 91.5C197.028 91.2836 196.543 91.6737 196.13 93.0897C195.714 94.5057 195.527 96.4101 196.271 96.6264C197.015 96.8427 197.956 95.8725 198.369 94.4565C198.785 93.0405 198.516 91.7163 197.772 91.5Z" fill="#FFBD95"/>
<path d="M199.895 122.04C199.671 122.04 199.484 121.996 199.336 121.908C199.189 121.818 199.086 121.691 199.026 121.526C198.967 121.361 198.956 121.164 198.994 120.936C199.031 120.714 199.107 120.52 199.222 120.354C199.337 120.188 199.482 120.058 199.658 119.966C199.833 119.873 200.028 119.827 200.243 119.827C200.396 119.827 200.531 119.85 200.649 119.898C200.768 119.945 200.865 120.016 200.943 120.11C201.02 120.203 201.072 120.318 201.1 120.454C201.128 120.59 201.127 120.746 201.098 120.922L201.071 121.092H199.208L199.271 120.695H200.5C200.511 120.623 200.505 120.558 200.482 120.501C200.458 120.444 200.421 120.4 200.369 120.368C200.317 120.336 200.254 120.32 200.18 120.32C200.105 120.32 200.034 120.337 199.968 120.373C199.902 120.407 199.847 120.454 199.801 120.512C199.756 120.571 199.726 120.637 199.712 120.711L199.638 121.117C199.623 121.207 199.627 121.285 199.651 121.349C199.674 121.413 199.714 121.463 199.771 121.497C199.827 121.531 199.901 121.547 199.99 121.547C200.05 121.547 200.105 121.539 200.158 121.524C200.21 121.507 200.256 121.482 200.297 121.45C200.339 121.416 200.373 121.376 200.399 121.328L201.022 121.346C200.972 121.487 200.894 121.609 200.789 121.714C200.684 121.817 200.555 121.897 200.403 121.955C200.253 122.012 200.083 122.04 199.895 122.04Z" fill="black"/>
<path d="M195.26 122L195.618 119.854H196.268L196.203 120.248H196.227C196.292 120.118 196.384 120.015 196.504 119.94C196.623 119.864 196.756 119.827 196.903 119.827C197.051 119.827 197.172 119.865 197.265 119.941C197.359 120.017 197.41 120.12 197.417 120.248H197.439C197.501 120.121 197.596 120.019 197.724 119.942C197.854 119.865 197.998 119.827 198.157 119.827C198.359 119.827 198.512 119.892 198.617 120.022C198.723 120.151 198.757 120.329 198.719 120.556L198.479 122H197.797L198.015 120.712C198.03 120.605 198.014 120.524 197.967 120.468C197.922 120.411 197.855 120.382 197.768 120.382C197.674 120.382 197.595 120.413 197.532 120.473C197.469 120.534 197.431 120.616 197.416 120.719L197.199 122H196.541L196.761 120.705C196.775 120.605 196.759 120.527 196.715 120.469C196.671 120.411 196.604 120.382 196.515 120.382C196.456 120.382 196.402 120.397 196.351 120.426C196.301 120.454 196.259 120.494 196.224 120.546C196.191 120.598 196.169 120.659 196.159 120.73L195.943 122H195.26Z" fill="black"/>
<path d="M193.821 122.04C193.595 122.04 193.408 121.994 193.261 121.901C193.115 121.808 193.012 121.678 192.952 121.511C192.893 121.344 192.881 121.151 192.917 120.93C192.954 120.71 193.029 120.517 193.142 120.352C193.256 120.186 193.401 120.057 193.578 119.965C193.755 119.873 193.956 119.827 194.18 119.827C194.405 119.827 194.591 119.873 194.737 119.966C194.885 120.059 194.988 120.189 195.047 120.356C195.108 120.523 195.12 120.717 195.084 120.938C195.047 121.158 194.972 121.351 194.858 121.517C194.743 121.681 194.598 121.81 194.422 121.902C194.246 121.994 194.046 122.04 193.821 122.04ZM193.898 121.525C193.982 121.525 194.057 121.5 194.123 121.45C194.19 121.399 194.246 121.329 194.292 121.239C194.337 121.148 194.37 121.044 194.39 120.924C194.409 120.807 194.411 120.704 194.395 120.616C194.38 120.526 194.349 120.457 194.3 120.408C194.252 120.357 194.186 120.332 194.103 120.332C194.019 120.332 193.944 120.358 193.877 120.409C193.81 120.459 193.754 120.53 193.708 120.62C193.663 120.709 193.631 120.814 193.612 120.934C193.592 121.051 193.59 121.154 193.605 121.243C193.62 121.331 193.652 121.401 193.701 121.451C193.75 121.5 193.816 121.525 193.898 121.525Z" fill="black"/>
<path d="M191.47 122.04C191.244 122.04 191.057 121.994 190.91 121.901C190.764 121.808 190.661 121.678 190.603 121.512C190.544 121.346 190.533 121.153 190.57 120.934C190.606 120.714 190.681 120.522 190.795 120.356C190.91 120.189 191.056 120.059 191.234 119.966C191.412 119.873 191.613 119.827 191.837 119.827C192.036 119.827 192.202 119.862 192.337 119.934C192.473 120.006 192.572 120.107 192.632 120.239C192.694 120.369 192.712 120.522 192.687 120.698H192.048C192.054 120.589 192.031 120.503 191.981 120.441C191.931 120.378 191.858 120.346 191.762 120.346C191.681 120.346 191.606 120.368 191.538 120.413C191.471 120.457 191.414 120.522 191.367 120.609C191.32 120.694 191.287 120.801 191.266 120.927C191.246 121.054 191.244 121.161 191.262 121.248C191.28 121.335 191.315 121.401 191.367 121.445C191.419 121.489 191.485 121.511 191.565 121.511C191.628 121.511 191.687 121.498 191.741 121.471C191.795 121.444 191.842 121.404 191.882 121.352C191.922 121.299 191.953 121.234 191.976 121.159H192.613C192.576 121.337 192.506 121.492 192.402 121.624C192.298 121.755 192.167 121.858 192.009 121.931C191.851 122.004 191.671 122.04 191.47 122.04Z" fill="black"/>
<path d="M190.514 119.139L190.039 122H189.356L189.831 119.139H190.514Z" fill="black"/>
<path d="M187.984 122.04C187.759 122.04 187.573 121.996 187.425 121.908C187.278 121.818 187.174 121.691 187.115 121.526C187.055 121.361 187.044 121.164 187.083 120.936C187.12 120.714 187.196 120.52 187.31 120.354C187.426 120.188 187.571 120.058 187.746 119.966C187.921 119.873 188.116 119.827 188.331 119.827C188.484 119.827 188.62 119.85 188.738 119.898C188.856 119.945 188.954 120.016 189.031 120.11C189.108 120.203 189.161 120.318 189.189 120.454C189.217 120.59 189.216 120.746 189.186 120.922L189.16 121.092H187.296L187.359 120.695H188.588C188.6 120.623 188.594 120.558 188.57 120.501C188.547 120.444 188.509 120.4 188.457 120.368C188.406 120.336 188.343 120.32 188.269 120.32C188.193 120.32 188.122 120.337 188.056 120.373C187.991 120.407 187.936 120.454 187.89 120.512C187.844 120.571 187.815 120.637 187.801 120.711L187.727 121.117C187.712 121.207 187.716 121.285 187.739 121.349C187.762 121.413 187.802 121.463 187.859 121.497C187.916 121.531 187.989 121.547 188.079 121.547C188.138 121.547 188.194 121.539 188.246 121.524C188.298 121.507 188.345 121.482 188.386 121.45C188.428 121.416 188.462 121.376 188.488 121.328L189.111 121.346C189.061 121.487 188.983 121.609 188.878 121.714C188.772 121.817 188.644 121.897 188.492 121.955C188.341 122.012 188.172 122.04 187.984 122.04Z" fill="black"/>
<path d="M183.723 122L183.366 119.139H184.13L184.253 121.014H184.277L185.078 119.139H185.701L185.886 121.018H185.908L186.651 119.139H187.414L186.108 122H185.441L185.217 120.265H185.194L184.388 122H183.723Z" fill="black"/>
<path opacity="0.35" d="M185.058 160.537H84.9971V218.803H185.058V160.537Z" fill="#BCD0D4"/>
<path d="M190.568 158.298H185.999V230.144H190.568V158.298Z" fill="#9BA4AB"/>
<path d="M83.8533 158.298H79.2841V230.144H83.8533V158.298Z" fill="#9BA4AB"/>
<path d="M81.5687 152.106C79.7955 152.106 78.3565 153.545 78.3565 155.318C78.3565 157.092 79.7955 158.531 81.5687 158.531C83.342 158.531 84.781 157.092 84.781 155.318C84.781 153.545 83.342 152.106 81.5687 152.106Z" fill="#9BA4AB"/>
<path d="M188.283 158.76C190.057 158.76 191.495 157.322 191.495 155.548C191.495 153.774 190.057 152.336 188.283 152.336C186.509 152.336 185.071 153.774 185.071 155.548C185.071 157.322 186.509 158.76 188.283 158.76Z" fill="#9BA4AB"/>
<path d="M187.035 164.28H181.8C180.925 164.28 180.21 164.994 180.21 165.87C180.21 166.745 180.925 167.463 181.8 167.463H187.035C187.91 167.463 188.628 166.748 188.628 165.87C188.628 164.991 187.913 164.28 187.035 164.28Z" fill="#9BA4AB"/>
<path d="M187.035 213.066H181.8C180.925 213.066 180.21 213.781 180.21 214.659C180.21 215.538 180.925 216.249 181.8 216.249H187.035C187.91 216.249 188.628 215.535 188.628 214.659C188.628 213.784 187.913 213.066 187.035 213.066Z" fill="#9BA4AB"/>
<g style="mix-blend-mode:soft-light">
<path d="M84.9971 218.803L185.058 160.537H84.9971V218.803Z" fill="#91B5AD"/>
</g>
<path d="M88.0978 163.88H82.8632C81.988 163.88 81.2735 164.595 81.2735 165.473C81.2735 166.351 81.988 167.066 82.8632 167.066H88.0978C88.973 167.066 89.6908 166.351 89.6908 165.473C89.6908 164.595 88.9763 163.88 88.0978 163.88Z" fill="#9BA4AB"/>
<path d="M88.0978 212.666H82.8632C81.988 212.666 81.2735 213.381 81.2735 214.259C81.2735 215.138 81.988 215.852 82.8632 215.852H88.0978C88.973 215.852 89.6908 215.138 89.6908 214.259C89.6908 213.381 88.9763 212.666 88.0978 212.666Z" fill="#9BA4AB"/>
<g style="mix-blend-mode:multiply">
<path d="M187.674 158.298H185.999V230.144H187.674V158.298Z" fill="#DCDADD"/>
</g>
<g style="mix-blend-mode:multiply">
<path d="M80.8082 158.298H79.2841V230.144H80.8082V158.298Z" fill="#DCDADD"/>
</g>
<path d="M86.0986 227.934H76.8455V230.563H86.0986V227.934Z" fill="#9BA4AB"/>
<path d="M192.908 227.934H183.655V230.563H192.908V227.934Z" fill="#9BA4AB"/>
<path opacity="0.35" d="M291.759 160.537H191.699V218.803H291.759V160.537Z" fill="#BCD0D4"/>
<path d="M188.27 152.106C186.497 152.106 185.058 153.545 185.058 155.318C185.058 157.092 186.497 158.531 188.27 158.531C190.044 158.531 191.482 157.092 191.482 155.318C191.482 153.545 190.044 152.106 188.27 152.106Z" fill="#9BA4AB"/>
<g style="mix-blend-mode:soft-light">
<path d="M191.699 218.803L291.759 160.537H191.699V218.803Z" fill="#91B5AD"/>
</g>
<path d="M194.799 163.88H189.565C188.69 163.88 187.972 164.595 187.972 165.473C187.972 166.351 188.686 167.063 189.565 167.063H194.799C195.675 167.063 196.389 166.348 196.389 165.473C196.389 164.598 195.675 163.88 194.799 163.88Z" fill="#9BA4AB"/>
<path d="M194.799 212.666H189.565C188.69 212.666 187.972 213.381 187.972 214.259C187.972 215.138 188.686 215.849 189.565 215.849H194.799C195.675 215.849 196.389 215.135 196.389 214.259C196.389 213.384 195.675 212.666 194.799 212.666Z" fill="#9BA4AB"/>
<path opacity="0.35" d="M78.1269 160.537H-21.9338V218.803H78.1269V160.537Z" fill="#BCD0D4"/>
<path d="M81.5524 152.106C79.7791 152.106 78.3401 153.545 78.3401 155.318C78.3401 157.092 79.7791 158.531 81.5524 158.531C83.3256 158.531 84.7646 157.092 84.7646 155.318C84.7646 153.545 83.3256 152.106 81.5524 152.106Z" fill="#9BA4AB"/>
<g style="mix-blend-mode:soft-light">
<path d="M-21.9338 218.803L78.1269 160.537H-21.9338V218.803Z" fill="#91B5AD"/>
</g>
<path d="M80.2576 163.88H75.023C74.1478 163.88 73.43 164.595 73.43 165.473C73.43 166.351 74.1446 167.063 75.023 167.063H80.2576C81.1328 167.063 81.8473 166.348 81.8473 165.473C81.8473 164.598 81.1328 163.88 80.2576 163.88Z" fill="#9BA4AB"/>
<path d="M80.2576 212.666H75.023C74.1478 212.666 73.43 213.381 73.43 214.259C73.43 215.138 74.1446 215.849 75.023 215.849H80.2576C81.1328 215.849 81.8473 215.135 81.8473 214.259C81.8473 213.384 81.1328 212.666 80.2576 212.666Z" fill="#9BA4AB"/>
<g style="mix-blend-mode:multiply">
<path d="M88.0556 274.184C127.13 274.184 158.806 266.848 158.806 257.798C158.806 248.749 127.13 241.413 88.0556 241.413C48.981 241.413 17.3047 248.749 17.3047 257.798C17.3047 266.848 48.981 274.184 88.0556 274.184Z" fill="#BFD9D2"/>
</g>
<path d="M41.5112 202.184L17.5211 236.637C16.8492 237.604 17.0885 238.944 18.0554 239.62C19.0224 240.291 20.363 240.052 21.0382 239.085L45.0283 204.636C45.7002 203.669 45.4609 202.328 44.494 201.653C43.527 200.981 42.1864 201.22 41.5112 202.187V202.184Z" fill="#FF6E26"/>
<path d="M35.8503 254.081C34.5064 253.144 32.6545 253.475 31.717 254.822C30.7796 256.166 31.1107 258.018 32.4578 258.955C33.8017 259.893 35.6537 259.562 36.5878 258.214C37.5253 256.871 37.1942 255.019 35.847 254.081H35.8503Z" fill="#0F0F0F"/>
<path d="M21.9855 244.428C20.6416 243.491 18.7897 243.822 17.8522 245.169C16.9148 246.513 17.2458 248.365 18.593 249.299C19.9369 250.236 21.7888 249.905 22.7263 248.558C23.6637 247.214 23.3327 245.362 21.9855 244.425V244.428Z" fill="#191919"/>
<path d="M64.2163 208.982L52.6458 200.926C49.8138 198.952 45.8804 199.657 43.9105 202.489L18.4094 239.112C16.4361 241.944 17.1409 245.877 19.9729 247.847L31.5434 255.904C34.3754 257.877 38.3088 257.172 40.2787 254.34L65.7798 217.718C67.753 214.886 67.0483 210.952 64.2163 208.982Z" fill="#FF8626"/>
<path d="M55.9319 203.208L23.3451 250.008L28.4667 253.574L61.0535 206.775L55.9319 203.208Z" fill="#FF6E26"/>
<path d="M33.3823 251.482C29.4555 248.748 27.3282 249.751 25.8171 251.918L31.3533 255.772C34.2869 257.818 38.3612 257.087 40.4065 254.153L42.9763 250.462C39.2921 247.899 35.8996 247.866 33.3823 251.482Z" fill="#191919"/>
<path d="M46.5392 220.369C46.0147 220.005 45.2903 220.133 44.9265 220.658L37.168 231.802C36.8041 232.327 36.9353 233.051 37.4564 233.415L38.5512 234.179C39.0756 234.542 39.8 234.415 40.1639 233.89L47.9224 222.746C48.2862 222.221 48.1584 221.497 47.6339 221.133L46.5392 220.369Z" fill="#174065"/>
<path d="M46.9457 220.428C46.4213 220.064 45.6969 220.192 45.3331 220.717L37.5746 231.861C37.2107 232.386 37.3386 233.11 37.863 233.474L38.9578 234.238C39.4822 234.601 40.2066 234.474 40.5705 233.949L48.329 222.805C48.6928 222.28 48.5617 221.556 48.0405 221.192L46.9457 220.428Z" fill="#5B7892"/>
<path d="M80.1792 181.759L62.2001 207.579L64.2148 208.982L82.1939 183.162L80.1792 181.759Z" fill="#929FA7"/>
<path d="M81.2413 181.305C80.5235 180.803 79.527 180.983 79.0255 181.701C78.524 182.419 78.7043 183.416 79.4221 183.917L81.9329 185.664C82.6507 186.166 83.6472 185.985 84.1487 185.267C84.6502 184.55 84.4699 183.553 83.7521 183.052L81.2413 181.305Z" fill="#191919"/>
<g style="mix-blend-mode:multiply">
<path d="M64.7571 215.331L39.256 251.954C37.2828 254.786 33.3527 255.491 30.5207 253.517L18.0455 244.831C17.8652 244.707 17.721 244.553 17.5571 244.412C17.9406 245.759 18.7404 246.991 19.9696 247.847L31.5401 255.904C34.3721 257.877 38.3055 257.172 40.2754 254.34L65.7765 217.717C67.6252 215.066 67.0975 211.47 64.7014 209.402C65.1996 211.152 65.8716 213.728 64.7538 215.331H64.7571Z" fill="#B8B5BB"/>
</g>
<path d="M84.2698 182.013C83.9354 181.836 83.5159 181.967 83.3421 182.301L81.9851 184.907C81.8114 185.241 81.9425 185.657 82.2736 185.831C82.6079 186.008 83.0275 185.88 83.2012 185.543L84.5582 182.937C84.7319 182.603 84.6008 182.186 84.2698 182.013Z" fill="#DD885B"/>
<path d="M83.0733 181.524C82.739 181.347 82.3194 181.478 82.1457 181.813L80.7887 184.419C80.615 184.753 80.7461 185.169 81.0772 185.343C81.4115 185.52 81.8311 185.389 82.0048 185.054L83.3618 182.449C83.5355 182.114 83.4044 181.698 83.0733 181.524Z" fill="#DD885B"/>
<path d="M81.9393 180.98C81.605 180.803 81.1854 180.934 81.0117 181.269L79.6547 183.874C79.481 184.209 79.6121 184.625 79.9431 184.799C80.2775 184.976 80.697 184.845 80.8708 184.51L82.2277 181.904C82.4015 181.57 82.2704 181.154 81.9393 180.98Z" fill="#DD885B"/>
<path d="M80.8938 180.351C80.5594 180.174 80.1399 180.305 79.9662 180.639L78.6092 183.245C78.4354 183.579 78.5666 183.996 78.8976 184.169C79.2319 184.346 79.6515 184.218 79.8252 183.881L81.1822 181.275C81.3559 180.941 81.2248 180.524 80.8938 180.351Z" fill="#DD885B"/>
<path d="M80.1334 179.207C79.5958 179.987 78.5338 183.54 78.5338 183.54C78.5338 183.54 80.1498 183.114 80.8414 183.609C81.533 184.104 83.2014 185.543 83.2014 185.543C83.2014 185.543 85.3745 183.166 85.9875 181.796C86.5971 180.426 86.8823 178.938 86.8823 178.938L84.4731 175.398C84.4731 175.398 80.6709 178.427 80.1334 179.207Z" fill="#DD885B"/>
<path d="M130.981 156.564C130.981 156.564 127.831 156.475 127.343 158.465C126.438 162.205 140.913 180.351 142.913 181.695C144.909 183.045 146.944 181.527 145.613 178.849C142.001 171.615 135.439 157.911 130.981 156.564Z" fill="#D17345"/>
<path d="M142.388 180.97C141.713 183.406 143.958 188.974 143.493 190.305C143.024 191.633 143.08 192.75 143.407 193.18C143.735 193.609 147.619 185.087 147.396 184.897C147.174 184.707 145.99 179.613 145.99 179.613C145.99 179.613 143.07 178.535 142.391 180.97H142.388Z" fill="#D17345"/>
<path d="M114.419 132.426C114.419 132.426 111.043 133.561 110.639 136.314C109.886 141.483 125.698 161.038 127.913 161.985C130.132 162.926 134.21 160.17 132.63 157.262C128.343 149.373 120.329 131.784 114.419 132.426Z" fill="#B8D1FF"/>
<path d="M132.473 156.974C127.753 154.099 127.809 161.123 128.136 162.72C128.464 164.316 140.192 180.656 140.192 180.656L145.361 177.591C145.361 177.591 141.916 170.953 139.743 166.879C137.573 162.805 133.712 157.731 132.47 156.974H132.473Z" fill="#B8D1FF"/>
<path d="M91.409 253.927C90.0782 252.675 87.4855 246.47 87.4855 246.47L81.415 242.94C81.415 242.94 78.4814 245.156 77.8849 246.542C77.2883 247.929 77.4883 248.824 77.8783 249.587C78.9436 251.672 80.943 251.331 82.6081 252.603C84.1094 253.747 86.9283 256.222 88.731 257.021C90.855 257.949 94.7687 258.611 97.4237 258.336C97.7154 258.306 97.5679 257.549 97.404 257.162C96.5846 255.248 92.7365 255.176 91.4057 253.927H91.409Z" fill="#D17345"/>
<path d="M112.357 171.484C109.971 173.166 107.477 175.857 106.588 181.698C106.057 185.156 105.159 204.118 101.013 209.261C95.7946 215.734 80.1039 243.346 80.1039 243.346L89.9602 248.447C89.9602 248.447 106.182 222.9 108.748 220.769C109.447 220.192 112.442 215.521 113.065 214.866C114.757 213.083 116.209 208.363 116.209 208.363L127.923 180.036C127.923 180.036 114.655 169.868 112.354 171.488L112.357 171.484Z" fill="#00233F"/>
<path d="M143.575 259.798C140.562 259.362 138.255 258.542 136.495 258.047C134.731 257.556 131.873 254.92 131.873 254.92L122.679 254.478C122.679 254.478 120.84 257.398 120.945 258.903C121.056 260.411 121.872 261.627 123.193 261.882C124.626 262.158 128.087 261.797 128.087 261.797C128.087 261.797 134.197 261.925 136.17 262.069C138.635 262.253 143.775 262.348 144.679 261.246C144.941 260.928 143.981 259.86 143.571 259.801L143.575 259.798Z" fill="#D17345"/>
<path d="M133.505 214.325C133.568 212.332 132.289 206.92 132.289 206.92L127.582 173.913C127.582 173.913 112.351 169.649 110.803 172.035C109.253 174.428 107.516 177.788 108.47 183.678C109.033 187.162 119.801 207.861 119.047 214.499C118.29 221.136 120.191 255.474 120.191 255.474L133.695 255.697L133.125 218.35C133.125 218.35 133.476 215.312 133.505 214.322V214.325Z" fill="#002D56"/>
<path d="M120.699 122.275C120.614 121.449 113.193 118.81 112.269 121.056C111.715 122.403 110.712 125.874 109.977 130.437C109.938 130.686 113.406 132.026 115.248 132.328C117.09 132.63 120.493 131.99 120.493 131.99C119.45 129.486 120.788 123.088 120.699 122.272V122.275Z" fill="#D17345"/>
<path d="M127.36 139.464C126.291 134.183 120.283 130.653 120.283 130.653C118.352 131.731 111.066 130.706 110.22 130.04C109.378 129.371 105.815 134.701 105.667 140.201C105.533 145.124 109.102 154.024 109.915 165.289C110.174 168.911 106.955 176.067 106.955 176.067C106.955 176.067 108.401 177.879 113.763 178.319C118.054 178.669 128.14 176.496 128.14 176.496C128.14 176.496 127.789 169.469 127.13 155.653C126.809 148.897 128.428 144.738 127.36 139.464Z" fill="#B8D1FF"/>
<path d="M121.974 108.361C120.086 105.529 113.006 104.552 109.611 109.433C108.965 110.35 107.883 113.163 109.217 117.919C110.014 120.774 111.62 122.806 112.734 123.76C113.498 124.396 116.684 125.392 118.854 124.953C121.175 124.481 123.744 124.274 123.695 123.294C123.616 121.469 123.548 119.168 123.548 119.168C123.548 119.168 124.747 119.138 124.823 118.817C125.029 117.952 124.177 116.785 123.446 113.661C123.249 112.822 124.334 111.894 121.971 108.361H121.974Z" fill="#DD885B"/>
<path d="M121.066 106.004C119.218 104.841 116.795 103.982 112.829 104.306C107.794 104.719 106.3 111.796 106.526 114.746C106.778 118.139 109.581 122.56 110.368 125.343C110.807 126.88 113.029 122.141 113.029 122.141L113.632 118.08C113.632 118.08 112.442 113.566 115.11 114.123C117.015 114.53 116.605 117.483 116.605 117.483L117.51 117.309C117.51 117.309 117.539 113.779 118.165 112.704C118.782 111.632 122.374 109.066 122.374 109.066C122.374 109.066 122.148 106.683 121.069 106.001L121.066 106.004Z" fill="#563B26"/>
<path d="M120.725 121.924C117.221 121.144 117.506 117.316 117.506 117.316L116.602 117.489C116.602 117.489 114.747 123.776 116.231 125.169C117.72 126.562 125.016 125.995 125.232 124.93C125.445 123.865 123.642 121.872 123.642 121.872C123.642 121.872 121.774 122.16 120.729 121.928L120.725 121.924Z" fill="#563B26"/>
<path d="M122.03 119.296C121.364 119.676 119.824 122.187 119.824 122.187L120.483 122.544C120.483 122.544 121.561 120.984 122.148 120.613C122.731 120.24 123.783 120.099 123.783 120.099L123.754 119.161C123.754 119.161 122.702 118.915 122.036 119.296H122.03Z" fill="#563B26"/>
<path d="M144.699 260.948H121.518C121.117 260.948 120.791 261.274 120.791 261.676V261.879C120.791 262.281 121.117 262.607 121.518 262.607H144.699C145.101 262.607 145.427 262.281 145.427 261.879V261.676C145.427 261.274 145.101 260.948 144.699 260.948Z" fill="#303030"/>
<path d="M134.767 261.01H141.982V258.968L135.469 257.244L134.767 261.01Z" fill="#303030"/>
<path d="M97.5873 258.84L88.7668 256.231L76.3998 249.433C76.0327 249.269 75.6033 249.436 75.4394 249.804L75.3574 249.99C75.1935 250.357 75.3607 250.787 75.7278 250.951L88.203 257.798L96.9154 260.361C97.2825 260.525 97.7119 260.358 97.8758 259.991L97.9577 259.804C98.1216 259.437 97.9544 259.008 97.5873 258.844V258.84Z" fill="#303030"/>
<path d="M86.7708 255.543L94.9423 258.522L95.906 255.93L90.655 251.711L86.7708 255.543Z" fill="#303030"/>
<path d="M129.405 175.037C128.894 163.932 129.182 145.665 127.619 138.913C126.629 134.639 120.28 130.653 120.28 130.653C120.28 130.653 117.49 131.04 114.855 130.869C112.547 130.722 109.974 129.762 109.974 129.762C109.974 129.762 105.153 132.656 104.641 140.313C104.13 147.973 106.428 161.504 105.153 166.61C103.878 171.717 103.366 200.309 101.324 204.649C99.2821 208.989 77.5111 242.179 77.5111 242.179C77.5111 242.179 95.198 254.943 108.729 257.241C122.259 259.539 136.301 255.114 136.301 255.114C136.301 255.114 136.813 215.882 136.301 209.5C135.79 203.118 129.877 185.264 129.408 175.034L129.405 175.037Z" fill="#CEE0FF"/>
<path d="M110.856 178.781C110.856 175.886 109.496 155.974 110.174 154.751C110.856 153.529 113.58 150.018 116.13 146.783C118.68 143.548 117.831 133.338 116.13 131.296L115.232 130.886C115.107 130.879 114.979 130.879 114.855 130.869C112.547 130.722 109.974 129.762 109.974 129.762C109.974 129.762 105.153 132.656 104.641 140.313C104.13 147.973 106.428 161.504 105.153 166.61C103.878 171.717 103.366 200.309 101.324 204.649C99.2821 208.989 77.5111 242.179 77.5111 242.179C77.5111 242.179 95.198 254.943 108.729 257.241C110.125 257.477 111.525 257.628 112.914 257.736C114.694 247.293 119.234 219.681 118.683 212.82C118.001 204.311 110.853 181.675 110.853 178.781H110.856Z" fill="#B8D1FF"/>
<path d="M110.584 134.036C105.654 134.708 93.1199 154.663 92.9887 156.98C92.8642 159.301 96.6959 162.375 98.8101 160.127C104.553 154.027 117.861 141.87 115.343 136.527C115.343 136.527 113.209 133.678 110.584 134.036Z" fill="#CEE0FF"/>
<path d="M94.9686 154.817C91.2483 155.797 82.1656 177.158 81.9328 179.558C81.6936 181.954 83.9946 183.025 85.7187 180.58C90.3666 173.966 99.3018 161.677 98.3709 157.115C98.3709 157.115 96.9516 154.299 94.9686 154.817Z" fill="#DD885B"/>
<path d="M94.2866 153.968C94.2866 153.968 91.8348 157.423 90.1763 160.36C88.5177 163.297 81.9163 176.316 81.9163 176.316L87.6655 180.272C87.6655 180.272 94.1752 169.167 95.7059 166.614C97.2366 164.06 99.79 158.445 100.046 157.423C100.301 156.4 97.4628 152.044 94.2866 153.968Z" fill="#CEE0FF"/>
<path d="M123.777 110.108L122.37 108.662C122.37 108.662 122.787 105.788 121.797 104.972C120.807 104.152 113.347 102.372 109.971 104.241C106.595 106.109 104.89 112.383 105.657 114.946C106.424 117.512 99.3605 142.617 99.3605 142.617C99.3605 142.617 107.729 142.106 109.971 142.958C112.213 143.81 116.382 145.17 116.808 144.915C117.234 144.659 114.425 116.745 115.192 115.897C115.959 115.044 123.777 110.111 123.777 110.111V110.108Z" fill="#B90000"/>
<path d="M122.371 108.659V108.653C122.279 108.449 122.102 108.292 121.797 108.233C121.027 108.089 111.017 112.589 108.463 113.101C106.952 113.402 106.077 112.678 105.608 112.035C105.444 113.176 105.444 114.218 105.661 114.946C106.428 117.512 99.364 142.617 99.364 142.617C99.364 142.617 103.556 142.365 106.801 142.515C107.001 136.527 107.667 118.486 108.463 117.316C109.42 115.913 120.974 110.741 121.866 109.911C122.4 109.416 122.512 108.984 122.381 108.672L122.371 108.662V108.659Z" fill="#8D0000"/>
<path d="M122.417 107.578C122.358 107.614 116.451 111.15 112.832 112.815C109.302 114.438 105.428 114.769 105.389 114.772C104.966 114.805 104.654 115.175 104.687 115.598C104.72 115.998 105.054 116.303 105.451 116.303C105.471 116.303 105.49 116.303 105.513 116.303C105.684 116.29 109.689 115.949 113.475 114.212C117.169 112.511 122.964 109.043 123.207 108.895C123.57 108.679 123.688 108.207 123.469 107.843C123.249 107.479 122.781 107.364 122.417 107.581V107.578Z" fill="#303030"/>
<path d="M99.9047 141.231L100.511 142.352L101.557 141.607L100.973 140.654L99.9047 141.231Z" fill="#CEE0FF"/>
<path d="M102.274 140.636L101.522 141.587L102.522 142.378L103.274 141.427L102.274 140.636Z" fill="#CEE0FF"/>
<path d="M103.232 141.407L104.192 142.25L104.956 141.44L104.031 140.496L103.232 141.407Z" fill="#CEE0FF"/>
<path d="M105.731 140.558L104.872 141.415L105.772 142.318L106.631 141.461L105.731 140.558Z" fill="#CEE0FF"/>
<path d="M107.418 140.621L106.564 141.482L107.469 142.38L108.324 141.519L107.418 140.621Z" fill="#CEE0FF"/>
<path d="M108.211 141.503L108.886 142.532L110.112 141.948L109.348 140.834L108.211 141.503Z" fill="#CEE0FF"/>
<path d="M110.085 141.899L110.692 143.023L111.937 142.538L111.151 141.322L110.085 141.899Z" fill="#CEE0FF"/>
<path d="M111.938 142.538L112.544 143.663L113.517 143.177L113.003 141.961L111.938 142.538Z" fill="#CEE0FF"/>
<path d="M116.259 143.104L115.192 143.681L115.798 144.802L116.865 144.226L116.259 143.104Z" fill="#CEE0FF"/>
<path d="M114.578 142.618L113.511 143.194L114.117 144.316L115.184 143.74L114.578 142.618Z" fill="#CEE0FF"/>
</g>
</g>
<defs>
<linearGradient id="paint0_linear_13801_46648" x1="134.157" y1="189.938" x2="134.157" y2="280.487" gradientUnits="userSpaceOnUse">
<stop stop-color="white"/>
<stop offset="0.05" stop-color="#DFDFDF"/>
<stop offset="0.11" stop-color="#BDBDBD"/>
<stop offset="0.17" stop-color="#A0A0A0"/>
<stop offset="0.24" stop-color="#898989"/>
<stop offset="0.33" stop-color="#777777"/>
<stop offset="0.43" stop-color="#6A6A6A"/>
<stop offset="0.56" stop-color="#636363"/>
<stop offset="0.85" stop-color="#616161"/>
</linearGradient>
<linearGradient id="paint1_linear_13801_46648" x1="87.8065" y1="236.85" x2="178.568" y2="-61.5557" gradientUnits="userSpaceOnUse">
<stop stop-color="white"/>
<stop offset="0.23" stop-color="#FBFBFB"/>
<stop offset="0.41" stop-color="#F2F2F2"/>
<stop offset="0.57" stop-color="#E1E1E1"/>
<stop offset="0.72" stop-color="#CACACA"/>
<stop offset="0.86" stop-color="#ACACAC"/>
<stop offset="1" stop-color="#878787"/>
</linearGradient>
<clipPath id="clip0_13801_46648">
<rect width="354" height="354" fill="white" transform="translate(-43 -20)"/>
</clipPath>
</defs>
</svg>
