<svg width="25" height="22" viewBox="0 0 25 22" fill="none" xmlns="http://www.w3.org/2000/svg">
<path d="M17.8294 1H7.50331C5.90005 1 4.5957 2.30435 4.5957 3.90761V18.0924C4.5957 19.6957 5.90005 21 7.50331 21H17.8294C19.4327 21 20.737 19.6957 20.737 18.0924V3.90761C20.737 2.30435 19.4327 1 17.8294 1ZM8.12831 7.08696C7.80222 6.73369 7.58483 6.24457 7.58483 5.72826C7.58483 4.6413 8.48157 3.74456 9.56853 3.74456C10.6555 3.74456 11.5522 4.6413 11.5522 5.72826C11.5522 6.24457 11.3348 6.73369 11.0087 7.08696L12.1229 9.47826L11.0903 8.88043L10.7642 9.83152L9.78592 7.71196C9.7044 7.71196 9.65005 7.71196 9.56853 7.71196C9.48701 7.71196 9.43266 7.71196 9.35114 7.71196L8.37288 9.83152L8.04679 8.88043L7.01418 9.47826L8.12831 7.08696ZM17.6392 16.6522H7.74788C7.44896 16.6522 7.2044 16.4076 7.2044 16.1087C7.2044 15.8098 7.44896 15.5652 7.74788 15.5652H17.6392C17.9381 15.5652 18.1827 15.8098 18.1827 16.1087C18.1827 16.4076 17.9381 16.6522 17.6392 16.6522ZM17.6392 13.9076H7.74788C7.44896 13.9076 7.2044 13.663 7.2044 13.3641C7.2044 13.0652 7.44896 12.8207 7.74788 12.8207H17.6392C17.9381 12.8207 18.1827 13.0652 18.1827 13.3641C18.1827 13.663 17.9381 13.9076 17.6392 13.9076ZM17.6392 11.163H14.0522C13.7533 11.163 13.5087 10.9185 13.5087 10.6196C13.5087 10.3207 13.7533 10.0761 14.0522 10.0761H17.612C17.9109 10.0761 18.1555 10.3207 18.1555 10.6196C18.1827 10.9185 17.9381 11.163 17.6392 11.163ZM17.6392 8.41848H14.0522C13.7533 8.41848 13.5087 8.17391 13.5087 7.875C13.5087 7.57609 13.7533 7.33152 14.0522 7.33152H17.612C17.9109 7.33152 18.1555 7.57609 18.1555 7.875C18.1827 8.17391 17.9381 8.41848 17.6392 8.41848ZM17.6392 5.67391H14.0522C13.7533 5.67391 13.5087 5.42935 13.5087 5.13043C13.5087 4.83152 13.7533 4.58696 14.0522 4.58696H17.612C17.9109 4.58696 18.1555 4.83152 18.1555 5.13043C18.1827 5.42935 17.9381 5.67391 17.6392 5.67391Z" fill="white"/>
</svg>
