<svg width="25" height="22" viewBox="0 0 25 22" fill="none" xmlns="http://www.w3.org/2000/svg">
<path d="M16.646 6.27691C16.2543 6.27681 15.8787 6.12118 15.6017 5.84423C15.3248 5.56728 15.1691 5.19167 15.169 4.8V1H6.41902C5.94042 1.00053 5.48152 1.19063 5.14274 1.52869C4.80396 1.86675 4.61288 2.32525 4.61133 2.80385V19.1962C4.61288 19.6748 4.80396 20.1332 5.14274 20.4713C5.48152 20.8094 5.94042 20.9995 6.41902 21H18.3498C18.8284 20.9995 19.2873 20.8094 19.6261 20.4713C19.9649 20.1332 20.1559 19.6748 20.1575 19.1962V6.27691H16.646ZM16.496 13.5231C16.5283 15.8625 14.7028 18.1725 12.3498 18.4577C11.2039 18.2274 10.1725 17.6088 9.42974 16.7063C8.687 15.8038 8.27839 14.6727 8.27288 13.5038V9.71537C8.27538 9.65255 8.2911 9.59095 8.31902 9.53461C8.35884 9.46147 8.421 9.40297 8.49643 9.36768C8.57187 9.33239 8.65661 9.32215 8.73827 9.33846C9.88699 9.55196 11.5055 9.16161 12.0383 8.12304C12.0721 8.06132 12.1219 8.00984 12.1825 7.97397C12.243 7.93811 12.3121 7.91919 12.3825 7.91919C12.4529 7.9192 12.522 7.93813 12.5826 7.97399C12.6431 8.00986 12.6929 8.06136 12.7267 8.12308C13.2959 9.16747 14.7938 9.53927 16.0267 9.33846C16.0829 9.32778 16.1408 9.32942 16.1963 9.34327C16.2518 9.35712 16.3037 9.38285 16.3483 9.41868C16.3929 9.45451 16.4292 9.49959 16.4547 9.55082C16.4802 9.60204 16.4943 9.65819 16.496 9.71538V13.5231Z" fill="white"/>
<path d="M16.6472 5.50707H19.6472L15.9395 1.58398V4.79938C15.9392 4.89239 15.9574 4.98452 15.9928 5.0705C16.0283 5.15647 16.0804 5.23458 16.1462 5.30034C16.212 5.36611 16.2901 5.41822 16.376 5.4537C16.462 5.48918 16.5542 5.50731 16.6472 5.50707Z" fill="white"/>
<path d="M14.1392 11.5952L11.8931 14.0106L10.57 13.0452C10.4878 12.9872 10.3861 12.9638 10.2868 12.9801C10.1875 12.9963 10.0986 13.0509 10.0391 13.132C9.97963 13.2132 9.95439 13.3144 9.96881 13.414C9.98322 13.5136 10.0361 13.6035 10.1162 13.6644L11.7162 14.8336C11.7923 14.8888 11.886 14.9142 11.9795 14.905C12.0731 14.8958 12.16 14.8526 12.2239 14.7836L14.7008 12.1183C14.7691 12.0436 14.8051 11.945 14.801 11.8439C14.797 11.7429 14.7532 11.6475 14.6792 11.5785C14.6051 11.5096 14.5069 11.4726 14.4058 11.4758C14.3047 11.4789 14.2089 11.5218 14.1392 11.5952Z" fill="white"/>
</svg>
