<svg width="25" height="22" viewBox="0 0 25 22" fill="none" xmlns="http://www.w3.org/2000/svg">
<path d="M4.32931 7.25483C4.39607 7.25458 4.46017 7.28093 4.50754 7.32797C4.5549 7.375 4.58163 7.43895 4.58186 7.50569L4.58246 7.68423C4.5827 7.75097 4.55639 7.81508 4.50935 7.86245C4.4623 7.9098 4.39837 7.93654 4.33161 7.93677L2.42606 7.94321C2.28704 7.94368 2.17397 7.83136 2.1735 7.69235L2.1729 7.51385C2.17243 7.37483 2.28474 7.26175 2.42375 7.26129L4.32931 7.25483ZM8.53639 6.26258C8.71919 6.26193 8.86789 6.40965 8.86849 6.59245L8.87237 7.73857C8.87298 7.92139 8.7253 8.07008 8.54249 8.07069C8.3597 8.07131 8.21101 7.92363 8.21039 7.74082L8.20652 6.59469C8.2059 6.41191 8.35358 6.26318 8.53639 6.26258ZM4.33227 8.12865C4.39902 8.12841 4.46313 8.15474 4.5105 8.20177C4.55786 8.2488 4.58461 8.31274 4.58482 8.37952L4.58615 8.77384C4.58638 8.84061 4.56008 8.90472 4.51303 8.95209C4.46599 8.99943 4.40206 9.02619 4.3353 9.02641L2.42973 9.03285C2.29072 9.0333 2.17765 8.921 2.17718 8.78198L2.17585 8.38766C2.17538 8.24865 2.28769 8.13556 2.4267 8.13509L4.33227 8.12865ZM4.33609 9.26052C4.40285 9.26028 4.46696 9.28659 4.51432 9.33366C4.56168 9.3807 4.58842 9.44464 4.58864 9.51138L4.58925 9.6899C4.58947 9.75668 4.56318 9.82078 4.51612 9.86814C4.46908 9.91551 4.40515 9.94224 4.3384 9.94246L2.43283 9.9489C2.29381 9.94939 2.18074 9.83706 2.18028 9.69804L2.17967 9.51955C2.1792 9.38053 2.29151 9.26747 2.43052 9.26698L4.33609 9.26052ZM8.54543 8.93687C8.72822 8.93622 8.87691 9.08396 8.87753 9.26676L8.88141 10.4129C8.88203 10.5957 8.73433 10.7444 8.55154 10.745C8.36874 10.7456 8.22005 10.5979 8.21943 10.4151L8.21556 9.26901C8.21494 9.08619 8.36262 8.9375 8.54543 8.93687ZM4.33958 10.2912C4.40633 10.291 4.47045 10.3173 4.51781 10.3643C4.56518 10.4114 4.5919 10.4753 4.59213 10.5421L4.59244 10.6357C4.59268 10.7025 4.56637 10.7666 4.51933 10.8139C4.47228 10.8613 4.40835 10.888 4.34159 10.8882L2.43603 10.8947C2.29701 10.8951 2.18395 10.7828 2.18348 10.6438L2.18316 10.5502C2.18269 10.4112 2.295 10.2981 2.43401 10.2977L4.33958 10.2912ZM4.34258 11.178C4.40933 11.1778 4.47343 11.2041 4.5208 11.2511C4.56817 11.2982 4.5949 11.3621 4.59513 11.4289L4.59672 11.9006C4.59694 11.9674 4.57065 12.0315 4.5236 12.0789C4.47655 12.1263 4.41262 12.153 4.34587 12.1532L2.4403 12.1597C2.30129 12.1601 2.18822 12.0478 2.18775 11.9088L2.18616 11.437C2.18569 11.298 2.298 11.1849 2.43701 11.1844L4.34258 11.178ZM4.34657 12.3619C4.41334 12.3617 4.47744 12.388 4.52481 12.4351C4.57216 12.4821 4.59891 12.5461 4.59913 12.6128L4.59973 12.7913C4.59996 12.8581 4.57366 12.9222 4.52662 12.9696C4.47957 13.0169 4.41565 13.0436 4.34888 13.0439L2.44331 13.0503C2.3043 13.0508 2.19123 12.9385 2.19076 12.7995L2.19015 12.621C2.18969 12.4819 2.302 12.3689 2.441 12.3684L4.34657 12.3619ZM8.55426 11.5488C8.73706 11.5482 8.88573 11.6959 8.88635 11.8787L8.89024 13.0248C8.89086 13.2077 8.74316 13.3564 8.56037 13.357C8.37757 13.3576 8.22888 13.2099 8.22826 13.0271L8.22439 11.8809C8.22377 11.6981 8.37146 11.5495 8.55426 11.5488ZM4.34951 13.2302C4.41627 13.23 4.48038 13.2563 4.52774 13.3033C4.5751 13.3504 4.60184 13.4143 4.60206 13.4811L4.60238 13.5747C4.60261 13.6414 4.5763 13.7055 4.52926 13.7529C4.48222 13.8003 4.41828 13.827 4.35153 13.8272L2.44596 13.8336C2.30695 13.8341 2.19388 13.7218 2.19341 13.5828L2.19309 13.4892C2.19262 13.3502 2.30493 13.2371 2.44394 13.2367L4.34951 13.2302ZM20.3318 8.27286C20.3407 8.27278 20.3493 8.27288 20.3578 8.27305C20.5228 8.27638 20.6225 8.31748 20.7099 8.35337C20.7467 8.36851 20.7729 8.40199 20.7787 8.44143C20.7919 8.53084 20.807 8.63312 20.7665 8.79281C20.7281 8.94411 20.6394 9.14999 20.5074 9.31952C20.3755 9.48911 20.2029 9.61813 20.0451 9.73677L18.7652 10.708L19.0574 13.5693C19.0614 13.6078 19.0453 13.6455 19.015 13.6695L18.6929 13.9229C18.6779 13.9348 18.6603 13.9424 18.6418 13.9455C18.6358 13.9465 18.6297 13.9471 18.6235 13.9471C18.6146 13.9471 18.6056 13.9461 18.5968 13.944C18.5632 13.9359 18.5351 13.9129 18.5206 13.8816L17.4986 11.669L16.3784 12.5191C16.3645 12.5297 16.3483 12.5369 16.3311 12.5401L15.9001 12.6217L15.9348 13.4568C15.9363 13.4932 15.9202 13.5281 15.8915 13.5505L15.5322 13.8321C15.5171 13.844 15.4996 13.8516 15.4812 13.8547C15.4751 13.8557 15.469 13.8562 15.4628 13.8562C15.4527 13.8563 15.4424 13.8549 15.4324 13.8521C15.3978 13.8426 15.3698 13.8172 15.3569 13.7837L15.0556 12.9997L14.8244 13.0227C14.8208 13.0231 14.8172 13.0232 14.8136 13.0233C14.7785 13.0234 14.7451 13.0072 14.7235 12.979C14.6997 12.948 14.6936 12.9068 14.7074 12.8702L14.7906 12.6502L14.1166 12.1524C14.0878 12.1312 14.0708 12.0975 14.0707 12.0618C14.0706 12.026 14.0875 11.9923 14.1162 11.9708L14.4803 11.6992C14.4949 11.6883 14.5117 11.6813 14.5292 11.6783C14.5352 11.6773 14.5413 11.6768 14.5475 11.6768C14.5591 11.6767 14.5708 11.6785 14.5822 11.6821L14.7247 11.7275C14.73 11.7284 14.7352 11.7297 14.7405 11.7313L15.3815 11.9379L15.5746 11.5459C15.5823 11.5303 15.5936 11.5166 15.6075 11.506L16.7231 10.6556L14.8783 9.09054C14.8521 9.06827 14.8374 9.03524 14.8385 9.00083C14.8397 8.96642 14.8564 8.93441 14.8841 8.9139L15.2127 8.67007C15.2273 8.6593 15.2439 8.65233 15.2612 8.64942C15.2673 8.64841 15.2734 8.64789 15.2796 8.64787C15.2935 8.64782 15.3076 8.65036 15.321 8.65561L17.9823 9.69557L19.2231 8.74972C19.3917 8.61884 19.5742 8.47631 19.7769 8.38884C19.8872 8.34123 20.0015 8.31057 20.1073 8.29281C20.1875 8.27932 20.2642 8.27306 20.3318 8.27286ZM4.35268 14.1697C4.41944 14.1694 4.48355 14.1958 4.53091 14.2428C4.57828 14.2898 4.60501 14.3538 4.60524 14.4205L4.60658 14.8149C4.6068 14.8817 4.58049 14.9458 4.53345 14.9931C4.48642 15.0405 4.42247 15.0672 4.35573 15.0674L2.45016 15.0739C2.31115 15.0744 2.19807 14.962 2.1976 14.823L2.19627 14.4287C2.1958 14.2897 2.30811 14.1766 2.44712 14.1761L4.35268 14.1697ZM8.56329 14.2231C8.7461 14.2225 8.89479 14.3702 8.8954 14.553L8.89928 15.6991C8.89989 15.882 8.7522 16.0306 8.56941 16.0312C8.38661 16.0319 8.23793 15.8842 8.2373 15.7014L8.23343 14.5553C8.23281 14.3724 8.3805 14.2237 8.56329 14.2231ZM6.95805 4.30335L2.22222 4.31936C2.21876 4.31938 2.21528 4.31945 2.2118 4.31951C1.8007 4.32907 1.0178 4.31254 0.571165 4.76223C0.127876 5.20853 0.137914 5.99424 0.125248 6.41319C0.125062 6.41908 0.124989 6.42497 0.125001 6.43085L0.157031 15.9027C0.157031 15.9039 0.157044 15.905 0.157056 15.9061C0.161025 16.3125 0.133 17.0974 0.586137 17.5475C1.03121 17.9896 1.82283 17.9844 2.24784 17.9996C2.25472 17.9999 2.26159 18 2.26847 18L7.00429 17.984C7.14372 17.9835 7.27726 17.9277 7.37551 17.8288L8.5783 16.6178L9.78924 17.8206C9.88816 17.9189 10.0221 17.9738 10.1615 17.9733L22.7903 17.9306C22.7915 17.9306 22.7926 17.9306 22.7937 17.9306C23.1972 17.9267 23.9771 17.9546 24.427 17.5016C24.8671 17.0586 24.8685 16.2703 24.8871 15.8438C24.8874 15.8356 24.8876 15.8274 24.8876 15.8191L24.8556 6.34728C24.8555 6.3456 24.8555 6.34398 24.8555 6.34232C24.8502 5.92965 24.8759 5.13621 24.4232 4.68656C23.9741 4.24049 23.1778 4.25884 22.7568 4.25012C22.7525 4.25003 22.7483 4.25 22.7441 4.25L10.1153 4.2927C9.97583 4.29316 9.8423 4.34899 9.74403 4.44793L8.54126 5.6589L7.33031 4.45609C7.23139 4.35785 7.09748 4.30289 6.95805 4.30335Z" fill="white"/>
</svg>
