<svg width="25" height="22" viewBox="0 0 25 22" fill="none" xmlns="http://www.w3.org/2000/svg">
<path d="M13 2C8.0356 2 4 6.0356 4 11C4 15.9644 8.0356 20 13 20C17.9644 20 22 15.9644 22 11C22 6.0356 17.9644 2 13 2ZM13 3.0188C17.3992 3.0188 20.9812 6.6008 20.9812 11C20.9812 12.944 20.2792 14.7296 19.12 16.1156C17.7052 14.546 15.9808 13.0988 13 13.0988C10.0192 13.0988 8.2984 14.5496 6.898 16.0976L6.88 16.1156C5.7208 14.7296 5.0188 12.9476 5.0188 11C5.0188 6.6008 8.6008 3.0188 13 3.0188Z" fill="white"/>
<path d="M13.0012 11.3676C14.5023 11.3676 15.7192 10.1508 15.7192 8.64964C15.7192 7.14853 14.5023 5.93164 13.0012 5.93164C11.5001 5.93164 10.2832 7.14853 10.2832 8.64964C10.2832 10.1508 11.5001 11.3676 13.0012 11.3676Z" fill="white"/>
</svg>
