<svg width="46" height="46" viewBox="0 0 46 46" fill="none" xmlns="http://www.w3.org/2000/svg">
<rect x="0.862604" y="0.453669" width="44.4835" height="44.4835" rx="22.2417" stroke="white" stroke-width="0.907826"/>
<path d="M32.5912 17.6376C32.3415 16.7298 31.7174 16.0813 30.8436 15.8219C29.3457 15.4329 22.9795 15.4329 22.9795 15.4329C22.9795 15.4329 16.7383 15.4329 15.1155 15.8219C14.2417 16.0813 13.6176 16.7298 13.3679 17.6376C13.1183 19.3235 13.1183 22.6955 13.1183 22.6955C13.1183 22.6955 13.1183 26.0674 13.4928 27.7534C13.7424 28.6612 14.3665 29.3096 15.2403 29.569C16.7382 29.9581 23.1044 29.9581 23.1044 29.9581C23.1044 29.9581 29.3457 29.9581 30.9684 29.569C31.8422 29.3096 32.4663 28.6612 32.716 27.7534C33.0905 26.0674 33.0905 22.6955 33.0905 22.6955C33.0905 22.6955 33.0905 19.3235 32.5912 17.6376ZM21.1071 25.808V19.5829L26.3499 22.6955L21.1071 25.808Z" fill="white"/>
</svg>
