<svg xmlns="http://www.w3.org/2000/svg" width="58" height="58" viewBox="0 0 58 58">
  <g id="Group_8366" data-name="Group 8366" transform="translate(-1886 -4842)">
    <g id="Ellipse_13" data-name="Ellipse 13" transform="translate(1886 4842)" fill="#f7f7f7" stroke="#dfdfdf" stroke-width="2" opacity="0">
      <circle cx="29" cy="29" r="29" stroke="none"/>
      <circle cx="29" cy="29" r="28" fill="none"/>
    </g>
    <g id="noun-arrow-1713355" transform="translate(1907 4863)">
      <path id="Path_344" data-name="Path 344" d="M232.2,165.243l-6.333,6.685a1.185,1.185,0,0,1-1.534.085,1.1,1.1,0,0,1,.005-1.536l4.64-4.9H216.655a1.056,1.056,0,1,1,0-2.111h12.326l-4.64-4.9a1.076,1.076,0,0,1-.005-1.536,1.157,1.157,0,0,1,1.534.085l6.333,6.685a1.071,1.071,0,0,1,0,1.452Z" transform="translate(-215.599 -156.772)"/>
    </g>
  </g>
</svg>
