<svg xmlns="http://www.w3.org/2000/svg" width="29.15" height="20.738" viewBox="0 0 29.15 20.738">
  <g id="breadcrumbs" transform="translate(-254.391 -213.262)">
    <path id="Path_6868" data-name="Path 6868" d="M306.085,216.742h25.669a1.74,1.74,0,1,0,0-3.48H306.085a1.74,1.74,0,0,0,0,3.48Z" transform="translate(-49.955)"/>
    <path id="Path_6869" data-name="Path 6869" d="M281.8,269.27H256.131a1.74,1.74,0,1,0,0,3.48H281.8a1.74,1.74,0,0,0,0-3.48Z" transform="translate(0 -47.306)"/>
    <path id="Path_6870" data-name="Path 6870" d="M331.752,324.34H306.085a1.74,1.74,0,0,0,0,3.48h25.669a1.74,1.74,0,1,0,0-3.48Z" transform="translate(-49.955 -93.82)"/>
  </g>
</svg>
