<svg xmlns="http://www.w3.org/2000/svg" width="35.636" height="42" viewBox="0 0 35.636 42">
  <g id="compare-hover" transform="translate(-193.201 -95.199)">
    <path id="Path_3291" data-name="Path 3291" d="M197.655,143.816h7.637V140h-7.637a4.454,4.454,0,0,0-4.454,4.454v22.909a4.454,4.454,0,0,0,4.454,4.454h7.637V168h-7.637a.636.636,0,0,1-.636-.636V144.452a.636.636,0,0,1,.636-.636Z" transform="translate(0 -39.708)" fill="#ee1a3a"/>
    <path id="Path_3292" data-name="Path 3292" d="M342.62,95.2H338.8v42h3.818v-5.091h10.819a4.454,4.454,0,0,0,4.454-4.454V104.744a4.454,4.454,0,0,0-4.454-4.454H342.62Zm10.819,8.909a.636.636,0,0,1,.636.636v22.909a.636.636,0,0,1-.636.636H342.62V104.108Z" transform="translate(-129.055 0)" fill="#ee1a3a"/>
  </g>
</svg>
