<svg xmlns="http://www.w3.org/2000/svg" width="28.499" height="28.499" viewBox="0 0 28.499 28.499">
  <path id="contact-whatsapp" d="M16.249,2A14.248,14.248,0,0,0,3.836,23.244L2.023,29.713a.619.619,0,0,0,.6.787.639.639,0,0,0,.149-.018l6.751-1.672A14.249,14.249,0,1,0,16.249,2ZM11.072,9.435c.244,0,.487,0,.7.013s.527-.085.824.62c.3.724,1.036,2.5,1.127,2.683a.659.659,0,0,1,.031.633,2.441,2.441,0,0,1-.365.6c-.183.211-.385.47-.549.633-.183.18-.374.375-.161.737a10.888,10.888,0,0,0,2.035,2.5,10.033,10.033,0,0,0,2.942,1.793c.366.181.579.15.793-.091s.915-1.055,1.158-1.416.487-.3.823-.181,2.134.994,2.5,1.175.61.272.7.422a2.975,2.975,0,0,1-.213,1.716A3.769,3.769,0,0,1,20.948,23a5.089,5.089,0,0,1-2.305-.144,21.443,21.443,0,0,1-2.085-.761,16.239,16.239,0,0,1-6.25-5.455A6.979,6.979,0,0,1,8.815,12.9,4.029,4.029,0,0,1,10.1,9.887,1.354,1.354,0,0,1,11.072,9.435Z" transform="translate(-2 -2)" fill="#e5002b"/>
</svg>
