<svg id="contact-call" xmlns="http://www.w3.org/2000/svg" xmlns:xlink="http://www.w3.org/1999/xlink" width="25.713" height="26.07" viewBox="0 0 25.713 26.07">
  <defs>
    <clipPath id="clip-path">
      <rect id="Rectangle_5" data-name="Rectangle 5" width="25.713" height="26.07" fill="#e5002b"/>
    </clipPath>
  </defs>
  <g id="Group_3" data-name="Group 3" clip-path="url(#clip-path)">
    <path id="Path_11" data-name="Path 11" d="M5.833,1.332,9.666,6.275a1.517,1.517,0,0,1-.1,1.917L6.943,10.815C5.833,12.025,14,20.2,15.215,19.087l2.623-2.623a1.517,1.517,0,0,1,1.917-.1L24.8,20.2a1.165,1.165,0,0,1,.1,1.715l-2.825,2.825-.2.3C18.343,28.57,9.465,22.114,6.641,19.39,3.917,16.565-2.439,7.688.991,4.257L4.118,1.13a1.107,1.107,0,0,1,1.715.2Zm8.373,3.632a.658.658,0,0,1,.1-1.312,8.885,8.885,0,0,1,7.667,7.667c.2.807-1.211,1.009-1.312.1a7.706,7.706,0,0,0-6.457-6.457ZM14,1.332c-.908-.1-.706-1.513.1-1.312a13.38,13.38,0,0,1,11.6,11.4.664.664,0,1,1-1.312.2A12.2,12.2,0,0,0,14,1.332Z" transform="translate(0 0)" fill="#e5002b" fill-rule="evenodd"/>
  </g>
</svg>
