<svg xmlns="http://www.w3.org/2000/svg" width="32.01" height="20.298" viewBox="0 0 32.01 20.298">
  <g id="contact-mail" transform="translate(-120.398 -134.4)">
    <path id="Path_7804" data-name="Path 7804" d="M122.741,134.4a2.322,2.322,0,0,0-1.244.366l13.858,11.723a1.6,1.6,0,0,0,2.123,0l13.834-11.723a2.322,2.322,0,0,0-1.244-.366H122.74Zm-2.208,1.574a2.336,2.336,0,0,0-.134.768v15.615a2.323,2.323,0,0,0,.378,1.269l9.918-9.039Zm31.742,0-10.138,8.6,9.894,9.052a2.323,2.323,0,0,0,.378-1.269V136.743a2.336,2.336,0,0,0-.134-.768ZM140.942,145.6l-2.464,2.086a3.2,3.2,0,0,1-4.135,0l-2.452-2.074-9.845,8.978a2.345,2.345,0,0,0,.7.11h27.326a2.347,2.347,0,0,0,.7-.11l-9.82-8.991Z" transform="translate(0)" fill="#e5002b"/>
  </g>
</svg>
