<svg xmlns="http://www.w3.org/2000/svg" width="31.168" height="31.218" viewBox="0 0 31.168 31.218">
  <g id="Group_315" data-name="Group 315" transform="translate(-1620.511 -426.35)">
    <g id="Group_304" data-name="Group 304" transform="translate(-111 -58)">
      <g id="noun-call-1995644" transform="translate(1731.511 484.35)">
        <path id="Path_80" data-name="Path 80" d="M110.086,110.827l-4.008-3.154a1.955,1.955,0,0,0-2.694.263c-.723.821-1.183,1.38-1.347,1.511-1.215,1.215-3.745-.558-6.439-3.252S91.165,101,92.38,99.789c.131-.131.69-.624,1.511-1.347a1.955,1.955,0,0,0,.263-2.694L91,91.741a2,2,0,0,0-2.3-.591,16.823,16.823,0,0,0-3.548,2.6c-2.891,2.924.723,9.559,7.03,15.9s12.976,9.954,15.867,7.03a16.817,16.817,0,0,0,2.6-3.548,1.926,1.926,0,0,0-.558-2.3Z" transform="translate(-84.143 -86.484)" fill="#e5002b"/>
        <path id="Path_81" data-name="Path 81" d="M332.51,188.156a1.3,1.3,0,0,0-1.61,1.347,1.37,1.37,0,0,0,.986,1.183,3.971,3.971,0,0,1,2.924,2.924,1.262,1.262,0,0,0,1.183.986,1.3,1.3,0,0,0,1.347-1.61,6.177,6.177,0,0,0-1.708-3.088,6.452,6.452,0,0,0-3.121-1.741Z" transform="translate(-316.421 -177.906)" fill="#e5002b"/>
        <path id="Path_82" data-name="Path 82" d="M335.9,112.718a1.3,1.3,0,0,0,1.38-1.412A11.576,11.576,0,0,0,326.7,100.728a1.3,1.3,0,0,0-.23,2.6,8.815,8.815,0,0,1,5.617,2.628,9.143,9.143,0,0,1,2.628,5.617,1.193,1.193,0,0,0,1.182,1.15Z" transform="translate(-311.141 -95.635)" fill="#e5002b"/>
        <path id="Path_83" data-name="Path 83" d="M331.147,18.843a16.744,16.744,0,0,0-11.268-4.862,1.276,1.276,0,0,0-1.314,1.38,1.312,1.312,0,0,0,1.248,1.215,14.108,14.108,0,0,1,13.567,13.6,1.3,1.3,0,0,0,2.6-.066,16.558,16.558,0,0,0-4.829-11.268Z" transform="translate(-304.809 -13.98)" fill="#e5002b"/>
      </g>
    </g>
  </g>
</svg>
