<svg id="Group_316" data-name="Group 316" xmlns="http://www.w3.org/2000/svg" width="31.998" height="32.4" viewBox="0 0 31.998 32.4">
  <g id="noun-app-2465542">
    <path id="Path_121" data-name="Path 121" d="M128.767,87.6a.788.788,0,0,1-.739-1.061l2.6-7.027a16.276,16.276,0,0,1-2.514-10.025A15.48,15.48,0,0,1,143.627,55.2a16.232,16.232,0,0,1,11.541,4.815,15.983,15.983,0,0,1,.279,22.572,15.48,15.48,0,0,1-11.028,4.536h0a16.189,16.189,0,0,1-8.574-2.457l-6.77,2.872a.793.793,0,0,1-.307.062Z" transform="translate(-127.978 -55.201)" fill="#e5002b"/>
  </g>
  <path id="Path_122" data-name="Path 122" d="M98.152,101.706,95.988,100a1.055,1.055,0,0,0-1.455.142c-.39.443-.639.745-.727.816-.656.656-2.022-.3-3.477-1.756s-2.394-2.8-1.738-3.459c.071-.071.373-.337.816-.727a1.055,1.055,0,0,0,.142-1.455l-1.7-2.164a1.078,1.078,0,0,0-1.242-.319,9.085,9.085,0,0,0-1.916,1.4c-1.561,1.579.39,5.162,3.8,8.585s7.006,5.375,8.567,3.8a9.08,9.08,0,0,0,1.4-1.916,1.04,1.04,0,0,0-.3-1.242Z" transform="translate(-75.345 -82.01)" fill="#fffefe"/>
</svg>
