<svg id="Group_166" data-name="Group 166" xmlns="http://www.w3.org/2000/svg" xmlns:xlink="http://www.w3.org/1999/xlink" width="24.353" height="17.351" viewBox="0 0 24.353 17.351">
  <defs>
    <clipPath id="clip-path">
      <rect id="Rectangle_6" data-name="Rectangle 6" width="24.353" height="17.351" fill="#fff" stroke="#fff" stroke-width="1"/>
    </clipPath>
  </defs>
  <g id="Group_5" data-name="Group 5" clip-path="url(#clip-path)">
    <path id="Path_12" data-name="Path 12" d="M22.509,17.351H1.845A1.847,1.847,0,0,1,0,15.506V1.722A1.725,1.725,0,0,1,1.723,0H22.63a1.724,1.724,0,0,1,1.722,1.722V15.507a1.846,1.846,0,0,1-1.844,1.844ZM1.724,1.014a.709.709,0,0,0-.709.708V15.506a.831.831,0,0,0,.83.83H22.51a.831.831,0,0,0,.83-.83V1.722a.708.708,0,0,0-.708-.708H1.724Z" fill="#fff" stroke="#fff" stroke-width="1"/>
    <path id="Path_13" data-name="Path 13" d="M50.108,48.879a2.186,2.186,0,0,1-1.443-.539l-8.227-7.2a.507.507,0,1,1,.668-.764l8.227,7.2a1.18,1.18,0,0,0,1.549,0l8.227-7.2a.507.507,0,1,1,.668.764l-8.227,7.2a2.189,2.189,0,0,1-1.443.54Z" transform="translate(-37.931 -37.918)" fill="#fff" stroke="#fff" stroke-width="1"/>
  </g>
</svg>
