<svg id="noun-call-4771620" xmlns="http://www.w3.org/2000/svg" width="28.15" height="28.042" viewBox="0 0 28.15 28.042">
  <path id="Path_62" data-name="Path 62" d="M140.1,85.809l1.424-1.424a2.1,2.1,0,0,0,0-2.97l-3.12-3.12a2.1,2.1,0,0,0-2.97,0l-1.729,1.729a14.959,14.959,0,0,1-8.539-8.511l1.634-1.634a2.1,2.1,0,0,0,0-2.97l-3.12-3.12a2.1,2.1,0,0,0-2.97,0c-.432.432-.93.93-1.314,1.321a3.1,3.1,0,0,0-.905,2.131v0A19.247,19.247,0,0,0,137.96,86.719h.006a3.106,3.106,0,0,0,2.137-.91Zm-1.036-1.037h0a1.641,1.641,0,0,1-1.123.481,17.781,17.781,0,0,1-17.985-17.987,1.637,1.637,0,0,1,.479-1.123l0,0c.382-.389.877-.884,1.307-1.314h0a.634.634,0,0,1,.9,0l3.121,3.121a.634.634,0,0,1,0,.9L123.8,70.808a.733.733,0,0,0-.172.764,16.461,16.461,0,0,0,9.978,10,.733.733,0,0,0,.792-.162l2.075-2.075h0a.634.634,0,0,1,.9,0h0l3.12,3.12a.634.634,0,0,1,0,.9l-1.424,1.424Zm-6.977-16.685a6.024,6.024,0,0,1,5.03,5.03.733.733,0,1,0,1.449-.224,7.49,7.49,0,0,0-6.255-6.255.733.733,0,0,0-.224,1.449Zm.831-5.353a11.439,11.439,0,0,1,9.551,9.551.733.733,0,0,0,1.449-.224,12.9,12.9,0,0,0-10.776-10.776.733.733,0,0,0-.224,1.449Z" transform="translate(-115.778 -61.277)" fill="#fff" fill-rule="evenodd"/>
  <g id="Group_167" data-name="Group 167" transform="translate(0.001 27.977)">
    <path id="Path_63" data-name="Path 63" d="M.052-.43l0,0h0a.012.012,0,0,1-.01,0,.012.012,0,0,1,0-.01.013.013,0,0,1,0-.01.013.013,0,0,1,.01,0H.052v.005l0,0h0a.006.006,0,0,0-.005,0,.008.008,0,0,0,0,.006.01.01,0,0,0,0,.006l.005,0h0l0,0Z" transform="translate(-0.031 0.453)" fill="#fff"/>
  </g>
  <g id="Group_168" data-name="Group 168" transform="translate(0.026 27.983)">
    <path id="Path_64" data-name="Path 64" d="M.061-.338h0l0,0a0,0,0,0,0,0,0v.009H.047V-.343H.053v0l0,0H.061Z" transform="translate(-0.047 0.344)" fill="#fff"/>
  </g>
  <g id="Group_169" data-name="Group 169" transform="translate(0.042 27.983)">
    <path id="Path_65" data-name="Path 65" d="M.05-.334v0H.036l0,0H.045l.005,0v.005H.042a.011.011,0,0,1-.008,0,.009.009,0,0,1,0-.007.011.011,0,0,1,0-.008.009.009,0,0,1,.007,0,.01.01,0,0,1,.007,0,.01.01,0,0,1,0,.007Zm-.005,0a0,0,0,0,0,0,0H.038l0,0Z" transform="translate(-0.031 0.344)" fill="#fff"/>
  </g>
  <g id="Group_170" data-name="Group 170" transform="translate(0.065 27.983)">
    <path id="Path_66" data-name="Path 66" d="M.041-.333h0v0s0,0,0,0H.043v0Zm.009,0v.01H.043v0l0,0h0l0,0a.006.006,0,0,1,0-.005,0,0,0,0,1,0,0l.007,0h0s0,0,0,0H.033v0H.04a.008.008,0,0,1,.007,0,.007.007,0,0,1,0,.006Z" transform="translate(-0.031 0.344)" fill="#fff"/>
  </g>
  <g id="Group_171" data-name="Group 171" transform="translate(0.087 27.979)">
    <path id="Path_67" data-name="Path 67" d="M.024-.422v.005H.03v0H.024V-.4H.03v0H.024L.019-.4a.009.009,0,0,1,0,0V-.412h0v0h0V-.422Z" transform="translate(-0.016 0.422)" fill="#fff"/>
  </g>
  <g id="Group_172" data-name="Group 172" transform="translate(0.104 27.983)">
    <path id="Path_68" data-name="Path 68" d="M.05-.334v0H.036l0,0H.045l.005,0v.005H.042a.011.011,0,0,1-.008,0,.009.009,0,0,1,0-.007.011.011,0,0,1,0-.008.009.009,0,0,1,.007,0,.01.01,0,0,1,.007,0,.01.01,0,0,1,0,.007Zm-.005,0a0,0,0,0,0,0,0H.038l0,0Z" transform="translate(-0.031 0.344)" fill="#fff"/>
  </g>
  <g id="Group_173" data-name="Group 173" transform="translate(0.127 27.976)">
    <path id="Path_69" data-name="Path 69" d="M.045-.458v-.01H.05v.026H.045v0l0,0h0a.008.008,0,0,1-.006,0,.011.011,0,0,1,0-.007.013.013,0,0,1,0-.008.008.008,0,0,1,.006,0h0l0,0Zm0,.012h0a.006.006,0,0,0,0,0,.006.006,0,0,0,0,0l0,0,0,0a.009.009,0,0,0,0,0,.009.009,0,0,0,0,0Z" transform="translate(-0.031 0.469)" fill="#fff"/>
  </g>
  <g id="Group_174" data-name="Group 174" transform="translate(0.164 27.976)">
    <path id="Path_70" data-name="Path 70" d="M.056-.446h0a.012.012,0,0,0,0,0,.013.013,0,0,0,0,0l0,0,0,0a.009.009,0,0,0,0,0,.006.006,0,0,0,0,0A0,0,0,0,0,.056-.446Zm0-.012,0,0h0a.006.006,0,0,1,.005,0,.011.011,0,0,1,0,.008.009.009,0,0,1,0,.007.006.006,0,0,1-.005,0h0l0,0v0H.047V-.469H.053Z" transform="translate(-0.047 0.469)" fill="#fff"/>
  </g>
  <g id="Group_175" data-name="Group 175" transform="translate(0.186 27.984)">
    <path id="Path_71" data-name="Path 71" d="M.016-.328H.021l.005.012,0-.012H.037l-.008.02,0,0,0,0h0v0h0l0,0Z" transform="translate(-0.016 0.328)" fill="#fff"/>
  </g>
  <g id="Group_176" data-name="Group 176" transform="translate(0.223 27.978)">
    <path id="Path_72" data-name="Path 72" d="M.069-.433v.016h0l.006,0a.011.011,0,0,0,0-.006.008.008,0,0,0,0-.005.007.007,0,0,0-.006,0Zm-.006,0H.077a.005.005,0,0,1,0,0l0,0a.016.016,0,0,1,0,.005.022.022,0,0,1,0,.005l0,0,0,0H.063Z" transform="translate(-0.063 0.438)" fill="#fff"/>
  </g>
  <g id="Group_177" data-name="Group 177" transform="translate(0.249 27.983)">
    <path id="Path_73" data-name="Path 73" d="M.041-.333h0v0s0,0,0,0H.043v0Zm.009,0v.01H.043v0l0,0h0l0,0a.006.006,0,0,1,0-.005,0,0,0,0,1,0,0l.007,0h0s0,0,0,0H.033v0H.04a.008.008,0,0,1,.007,0,.007.007,0,0,1,0,.006Z" transform="translate(-0.031 0.344)" fill="#fff"/>
  </g>
  <g id="Group_178" data-name="Group 178" transform="translate(0.273 27.983)">
    <path id="Path_74" data-name="Path 74" d="M.064-.34l0,0,0,0a.005.005,0,0,1,0,0,.008.008,0,0,1,0,.005v.011H.07v-.01h0a0,0,0,0,0,0,0h0l0,0a0,0,0,0,0,0,0v.009H.059v-.01a.006.006,0,0,0,0,0h0l0,0a0,0,0,0,0,0,0v.009H.047V-.343H.053v0l0,0h0l0,0,0,0Z" transform="translate(-0.047 0.344)" fill="#fff"/>
  </g>
  <g id="Group_179" data-name="Group 179" transform="translate(0.308 27.976)">
    <path id="Path_75" data-name="Path 75" d="M.047-.461H.053v.018H.047Zm0-.008H.053v.005H.047Z" transform="translate(-0.047 0.469)" fill="#fff"/>
  </g>
  <g id="Group_180" data-name="Group 180" transform="translate(0.319 27.983)">
    <path id="Path_76" data-name="Path 76" d="M.041-.333h0v0s0,0,0,0H.043v0Zm.009,0v.01H.043v0l0,0h0l0,0a.006.006,0,0,1,0-.005,0,0,0,0,1,0,0l.007,0h0s0,0,0,0H.033v0H.04a.008.008,0,0,1,.007,0,.007.007,0,0,1,0,.006Z" transform="translate(-0.031 0.344)" fill="#fff"/>
  </g>
  <g id="Group_181" data-name="Group 181" transform="translate(0.342 27.983)">
    <path id="Path_77" data-name="Path 77" d="M.066-.336v.011H.06V-.338h0l0,0a0,0,0,0,0,0,0v.009H.047V-.343H.053v0l0,0h0a.006.006,0,0,1,.005,0,.008.008,0,0,1,0,.005Z" transform="translate(-0.047 0.344)" fill="#fff"/>
  </g>
  <g id="Group_182" data-name="Group 182" transform="translate(0.379 27.978)">
    <path id="Path_78" data-name="Path 78" d="M.063-.437H.069v.009h.01V-.437H.084v.024H.078v-.01H.069v.01H.063Z" transform="translate(-0.063 0.438)" fill="#fff"/>
  </g>
  <g id="Group_183" data-name="Group 183" transform="translate(0.405 27.983)">
    <path id="Path_79" data-name="Path 79" d="M.05-.334v0H.036l0,0H.045l.005,0v.005H.042a.011.011,0,0,1-.008,0,.009.009,0,0,1,0-.007.011.011,0,0,1,0-.008.009.009,0,0,1,.007,0,.01.01,0,0,1,.007,0,.01.01,0,0,1,0,.007Zm-.005,0a0,0,0,0,0,0,0H.038l0,0Z" transform="translate(-0.031 0.344)" fill="#fff"/>
  </g>
  <g id="Group_184" data-name="Group 184" transform="translate(0.427 27.979)">
    <path id="Path_80" data-name="Path 80" d="M.024-.422v.005H.03v0H.024V-.4H.03v0H.024L.019-.4a.009.009,0,0,1,0,0V-.412h0v0h0V-.422Z" transform="translate(-0.016 0.422)" fill="#fff"/>
  </g>
  <g id="Group_185" data-name="Group 185" transform="translate(0.445 27.983)">
    <path id="Path_81" data-name="Path 81" d="M.064-.34l0,0,0,0a.005.005,0,0,1,0,0,.008.008,0,0,1,0,.005v.011H.07v-.01h0a0,0,0,0,0,0,0h0l0,0a0,0,0,0,0,0,0v.009H.059v-.01a.006.006,0,0,0,0,0h0l0,0a0,0,0,0,0,0,0v.009H.047V-.343H.053v0l0,0h0l0,0,0,0Z" transform="translate(-0.047 0.344)" fill="#fff"/>
  </g>
  <g id="Group_186" data-name="Group 186" transform="translate(0.48 27.983)">
    <path id="Path_82" data-name="Path 82" d="M.041-.333h0v0s0,0,0,0H.043v0Zm.009,0v.01H.043v0l0,0h0l0,0a.006.006,0,0,1,0-.005,0,0,0,0,1,0,0l.007,0h0s0,0,0,0H.033v0H.04a.008.008,0,0,1,.007,0,.007.007,0,0,1,0,.006Z" transform="translate(-0.031 0.344)" fill="#fff"/>
  </g>
  <g id="Group_187" data-name="Group 187" transform="translate(0.503 27.983)">
    <path id="Path_83" data-name="Path 83" d="M.066-.336v.011H.06V-.338h0l0,0a0,0,0,0,0,0,0v.009H.047V-.343H.053v0l0,0h0a.006.006,0,0,1,.005,0,.008.008,0,0,1,0,.005Z" transform="translate(-0.047 0.344)" fill="#fff"/>
  </g>
  <g id="Group_188" data-name="Group 188" transform="translate(0 28.01)">
    <path id="Path_84" data-name="Path 84" d="M.03-.469v0H.024v0H.03v0H.024v.014H.018V-.457h0v0h0a.007.007,0,0,1,0-.005l.005,0Z" transform="translate(-0.016 0.469)" fill="#fff"/>
  </g>
  <g id="Group_189" data-name="Group 189" transform="translate(0.016 28.016)">
    <path id="Path_85" data-name="Path 85" d="M.061-.338h0l0,0a0,0,0,0,0,0,0v.009H.047V-.343H.053v0l0,0H.061Z" transform="translate(-0.047 0.344)" fill="#fff"/>
  </g>
  <g id="Group_190" data-name="Group 190" transform="translate(0.032 28.016)">
    <path id="Path_86" data-name="Path 86" d="M.041-.339l0,0a.007.007,0,0,0,0,0,.009.009,0,0,0,0,0H.044a.012.012,0,0,0,0,0,.009.009,0,0,0,0,0Zm0,0a.011.011,0,0,1,.008,0,.011.011,0,0,1,0,.008.009.009,0,0,1,0,.007.011.011,0,0,1-.008,0,.009.009,0,0,1-.007,0,.009.009,0,0,1,0-.007.011.011,0,0,1,0-.008A.009.009,0,0,1,.041-.344Z" transform="translate(-0.031 0.344)" fill="#fff"/>
  </g>
  <g id="Group_191" data-name="Group 191" transform="translate(0.056 28.016)">
    <path id="Path_87" data-name="Path 87" d="M.064-.34l0,0,0,0a.005.005,0,0,1,0,0,.008.008,0,0,1,0,.005v.011H.07v-.01h0a0,0,0,0,0,0,0h0l0,0a0,0,0,0,0,0,0v.009H.059v-.01a.006.006,0,0,0,0,0h0l0,0a0,0,0,0,0,0,0v.009H.047V-.343H.053v0l0,0h0l0,0,0,0Z" transform="translate(-0.047 0.344)" fill="#fff"/>
  </g>
  <g id="Group_192" data-name="Group 192" transform="translate(0.101 28.012)">
    <path id="Path_88" data-name="Path 88" d="M.024-.422v.005H.03v0H.024V-.4H.03v0H.024L.019-.4a.009.009,0,0,1,0,0V-.412h0v0h0V-.422Z" transform="translate(-0.016 0.422)" fill="#fff"/>
  </g>
  <g id="Group_193" data-name="Group 193" transform="translate(0.119 28.01)">
    <path id="Path_89" data-name="Path 89" d="M.066-.454v.011H.06V-.456h0l0,0a0,0,0,0,0,0,0v.009H.047V-.469H.053v.01l0,0h0a.006.006,0,0,1,.005,0,.008.008,0,0,1,0,.005Z" transform="translate(-0.047 0.469)" fill="#fff"/>
  </g>
  <g id="Group_194" data-name="Group 194" transform="translate(0.142 28.016)">
    <path id="Path_90" data-name="Path 90" d="M.05-.334v0H.036l0,0H.045l.005,0v.005H.042a.011.011,0,0,1-.008,0,.009.009,0,0,1,0-.007.011.011,0,0,1,0-.008.009.009,0,0,1,.007,0,.01.01,0,0,1,.007,0,.01.01,0,0,1,0,.007Zm-.005,0a0,0,0,0,0,0,0H.038l0,0Z" transform="translate(-0.031 0.344)" fill="#fff"/>
  </g>
  <g id="Group_195" data-name="Group 195" transform="translate(0.179 28.011)">
    <path id="Path_91" data-name="Path 91" d="M.063-.437H.069l.01.017V-.437H.084v.024H.077L.068-.43v.017H.063Z" transform="translate(-0.063 0.438)" fill="#fff"/>
  </g>
  <g id="Group_196" data-name="Group 196" transform="translate(0.205 28.016)">
    <path id="Path_92" data-name="Path 92" d="M.041-.339l0,0a.007.007,0,0,0,0,0,.009.009,0,0,0,0,0H.044a.012.012,0,0,0,0,0,.009.009,0,0,0,0,0Zm0,0a.011.011,0,0,1,.008,0,.011.011,0,0,1,0,.008.009.009,0,0,1,0,.007.011.011,0,0,1-.008,0,.009.009,0,0,1-.007,0,.009.009,0,0,1,0-.007.011.011,0,0,1,0-.008A.009.009,0,0,1,.041-.344Z" transform="translate(-0.031 0.344)" fill="#fff"/>
  </g>
  <g id="Group_197" data-name="Group 197" transform="translate(0.23 28.017)">
    <path id="Path_93" data-name="Path 93" d="M.047-.317V-.328H.053v.012H.058a.006.006,0,0,0,0,0V-.328H.065V-.31H.06v0l0,0h0l0,0a.01.01,0,0,1,0-.006Z" transform="translate(-0.047 0.328)" fill="#fff"/>
  </g>
  <g id="Group_198" data-name="Group 198" transform="translate(0.254 28.016)">
    <path id="Path_94" data-name="Path 94" d="M.066-.336v.011H.06V-.338h0l0,0a0,0,0,0,0,0,0v.009H.047V-.343H.053v0l0,0h0a.006.006,0,0,1,.005,0,.008.008,0,0,1,0,.005Z" transform="translate(-0.047 0.344)" fill="#fff"/>
  </g>
  <g id="Group_199" data-name="Group 199" transform="translate(0.29 28.011)">
    <path id="Path_95" data-name="Path 95" d="M.062-.437h.01l.007,0a.007.007,0,0,1,0,.006.007.007,0,0,1,0,.006l-.007,0h0v.009H.062Zm.006,0v.007H.075a0,0,0,0,0,0,0,0,0,0,0,0,0,0h0Z" transform="translate(-0.062 0.438)" fill="#fff"/>
  </g>
  <g id="Group_200" data-name="Group 200" transform="translate(0.314 28.016)">
    <path id="Path_96" data-name="Path 96" d="M.061-.338h0l0,0a0,0,0,0,0,0,0v.009H.047V-.343H.053v0l0,0H.061Z" transform="translate(-0.047 0.344)" fill="#fff"/>
  </g>
  <g id="Group_201" data-name="Group 201" transform="translate(0.33 28.016)">
    <path id="Path_97" data-name="Path 97" d="M.041-.339l0,0a.007.007,0,0,0,0,0,.009.009,0,0,0,0,0H.044a.012.012,0,0,0,0,0,.009.009,0,0,0,0,0Zm0,0a.011.011,0,0,1,.008,0,.011.011,0,0,1,0,.008.009.009,0,0,1,0,.007.011.011,0,0,1-.008,0,.009.009,0,0,1-.007,0,.009.009,0,0,1,0-.007.011.011,0,0,1,0-.008A.009.009,0,0,1,.041-.344Z" transform="translate(-0.031 0.344)" fill="#fff"/>
  </g>
  <g id="Group_202" data-name="Group 202" transform="translate(0.351 28.01)">
    <path id="Path_98" data-name="Path 98" d="M-.012-.461h.006v.017a.009.009,0,0,1,0,.006l-.005,0h0v0h0a.006.006,0,0,0,0,0Zm0-.008h.006v.005H-.012Z" transform="translate(0.016 0.469)" fill="#fff"/>
  </g>
  <g id="Group_203" data-name="Group 203" transform="translate(0.365 28.016)">
    <path id="Path_99" data-name="Path 99" d="M.05-.334v0H.036l0,0H.045l.005,0v.005H.042a.011.011,0,0,1-.008,0,.009.009,0,0,1,0-.007.011.011,0,0,1,0-.008.009.009,0,0,1,.007,0,.01.01,0,0,1,.007,0,.01.01,0,0,1,0,.007Zm-.005,0a0,0,0,0,0,0,0H.038l0,0Z" transform="translate(-0.031 0.344)" fill="#fff"/>
  </g>
  <g id="Group_204" data-name="Group 204" transform="translate(0.388 28.016)">
    <path id="Path_100" data-name="Path 100" d="M.048-.343v.005H.042l0,0a.006.006,0,0,0,0,0,0,0,0,0,0,0,0l0,0h0l0,0v0H.042a.011.011,0,0,1-.008,0,.009.009,0,0,1,0-.007.011.011,0,0,1,0-.008.011.011,0,0,1,.008,0H.048Z" transform="translate(-0.031 0.344)" fill="#fff"/>
  </g>
  <g id="Group_205" data-name="Group 205" transform="translate(0.407 28.012)">
    <path id="Path_101" data-name="Path 101" d="M.024-.422v.005H.03v0H.024V-.4H.03v0H.024L.019-.4a.009.009,0,0,1,0,0V-.412h0v0h0V-.422Z" transform="translate(-0.016 0.422)" fill="#fff"/>
  </g>
</svg>
