<svg id="noun-location-1755662" xmlns="http://www.w3.org/2000/svg" width="24.354" height="32.741" viewBox="0 0 24.354 32.741">
  <path id="Path_61" data-name="Path 61" d="M199.777,61.68A12.19,12.19,0,0,0,187.6,73.857a9.754,9.754,0,0,0,1.824,5.918l9.658,14.277a.84.84,0,0,0,1.391,0l9.658-14.277a9.755,9.755,0,0,0,1.824-5.918A12.19,12.19,0,0,0,199.777,61.68Zm0,1.679a10.485,10.485,0,0,1,10.5,10.5,7.732,7.732,0,0,1-1.535,4.986L199.778,92.1l-8.962-13.253a7.732,7.732,0,0,1-1.535-4.986,10.485,10.485,0,0,1,10.5-10.5Zm0,4.2a5.879,5.879,0,1,0,5.879,5.879A5.891,5.891,0,0,0,199.777,67.559Zm0,1.679a4.2,4.2,0,1,1-4.2,4.2A4.187,4.187,0,0,1,199.777,69.238Z" transform="translate(-187.6 -61.68)" fill="#fff"/>
</svg>
