<svg xmlns="http://www.w3.org/2000/svg" width="37" height="37" viewBox="0 0 37 37">
  <g id="home" transform="translate(-3199 -3835)">
    <circle id="Ellipse_58" data-name="Ellipse 58" cx="18.5" cy="18.5" r="18.5" transform="translate(3199 3835)" fill="#fff" opacity="0"/>
    <g id="noun-home-4925900" transform="translate(3127.554 3792.971)">
      <path id="Path_11320" data-name="Path 11320" d="M103.618,50.029h0a.582.582,0,0,0-.347.111l-11.037,8a.591.591,0,0,0,.694.958l10.69-7.745,10.673,7.736a.591.591,0,0,0,.694-.957l-11.02-7.988a.59.59,0,0,0-.347-.112h0Zm-1.383,11.94h0Zm9.132-4.1h0V68.428h0a3.29,3.29,0,0,1-.165,1.411h0c-.055.074-.21.125-.842.137l-2.8,0c-.429-.012-.489-.052-.494-.057h0a3.2,3.2,0,0,1-.109-1.172l0-5.389a3.677,3.677,0,0,0-.323-1.958h0a1.907,1.907,0,0,0-1.617-.618H102.2a1.907,1.907,0,0,0-1.617.618h0a3.687,3.687,0,0,0-.323,1.96h0l0,5.385h0a3.207,3.207,0,0,1-.109,1.171,2.1,2.1,0,0,1-.495.057l-2.8,0c-.632-.012-.787-.064-.842-.138h0a3.289,3.289,0,0,1-.164-1.411l0-10.548-1.186.859,0,9.689v.007h0a3.874,3.874,0,0,0,.4,2.112h0a2.133,2.133,0,0,0,1.776.615h.011l2.046,0h.753l.6-.044a1.3,1.3,0,0,0,.888-.545h0a3.644,3.644,0,0,0,.3-1.821v0l0-5.389v0a3.188,3.188,0,0,1,.114-1.28h0c.024-.034.108-.087.673-.106h2.752c.565.02.649.072.673.106h0a3.191,3.191,0,0,1,.113,1.28v0l0,5.389v0a3.642,3.642,0,0,0,.3,1.82h0a1.3,1.3,0,0,0,.889.545h0l.6.044h.751l2.047,0h.01a2.131,2.131,0,0,0,1.776-.614h0a3.876,3.876,0,0,0,.4-2.112V58.729l-1.185-.859h0Z" transform="translate(-13.544 0)" fill="#e5002b"/>
    </g>
  </g>
</svg>
