<svg xmlns="http://www.w3.org/2000/svg" width="40" height="40" viewBox="0 0 40 40">
  <g id="mobile_whatsapp" transform="translate(4486 -6359)">
    <circle id="Ellipse_138" data-name="Ellipse 138" cx="20" cy="20" r="20" transform="translate(-4486 6359)" fill="#e5002b"/>
    <g id="mobile_whatsapp-2" data-name="mobile_whatsapp" transform="translate(-4474.365 6370.53)">
      <g id="noun-app-2465542">
        <path id="Path_121" data-name="Path 121" d="M128.39,72.14a.412.412,0,0,1-.387-.555l1.359-3.674a8.51,8.51,0,0,1-1.315-5.242A8.094,8.094,0,0,1,136.16,55.2a8.487,8.487,0,0,1,6.034,2.518,8.356,8.356,0,0,1,.146,11.8,8.094,8.094,0,0,1-5.766,2.372h0a8.464,8.464,0,0,1-4.483-1.285l-3.54,1.5a.415.415,0,0,1-.161.032Z" transform="translate(-127.978 -55.201)" fill="#fff"/>
      </g>
      <path id="Path_122" data-name="Path 122" d="M91.467,96.6l-1.131-.89a.552.552,0,0,0-.76.074c-.2.232-.334.39-.38.427-.343.343-1.057-.158-1.818-.918s-1.252-1.465-.909-1.808c.037-.037.195-.176.427-.38a.552.552,0,0,0,.074-.76l-.89-1.131a.563.563,0,0,0-.649-.167,4.75,4.75,0,0,0-1,.733c-.816.825.2,2.7,1.985,4.489s3.663,2.81,4.479,1.985a4.748,4.748,0,0,0,.733-1,.544.544,0,0,0-.158-.649Z" transform="translate(-79.543 -86.301)" fill="#e5002b"/>
    </g>
  </g>
</svg>
