<svg xmlns="http://www.w3.org/2000/svg" width="40" height="40" viewBox="0 0 40 40">
  <g id="mobile_call" transform="translate(4423 -6359)">
    <circle id="Ellipse_139" data-name="Ellipse 139" cx="20" cy="20" r="20" transform="translate(-4423 6359)" fill="#e5002b"/>
    <g id="mobile_call-2" data-name="mobile_call" transform="translate(-6031.967 5944.179)">
      <g id="Group_304" data-name="Group 304" transform="translate(1620.511 426.35)">
        <g id="noun-call-1995644">
          <path id="Path_80" data-name="Path 80" d="M98.221,101.759l-2.175-1.711a1.061,1.061,0,0,0-1.462.143c-.392.446-.642.749-.731.82-.66.66-2.032-.3-3.494-1.765s-2.406-2.816-1.747-3.476c.071-.071.374-.339.82-.731a1.061,1.061,0,0,0,.143-1.462L87.864,91.4a1.083,1.083,0,0,0-1.248-.321,9.129,9.129,0,0,0-1.925,1.408c-1.569,1.587.392,5.187,3.815,8.628s7.041,5.4,8.61,3.815a9.125,9.125,0,0,0,1.408-1.925,1.045,1.045,0,0,0-.3-1.248Z" transform="translate(-84.143 -88.55)" fill="#fff"/>
          <path id="Path_81" data-name="Path 81" d="M331.772,188.14a.705.705,0,0,0-.874.731.744.744,0,0,0,.535.642,2.155,2.155,0,0,1,1.587,1.587.685.685,0,0,0,.642.535.705.705,0,0,0,.731-.873,3.352,3.352,0,0,0-.927-1.676,3.5,3.5,0,0,0-1.694-.945Z" transform="translate(-323.042 -182.578)" fill="#fff"/>
          <path id="Path_82" data-name="Path 82" d="M331.047,107.232a.707.707,0,0,0,.749-.766,6.282,6.282,0,0,0-5.74-5.74.707.707,0,0,0-.125,1.408,4.783,4.783,0,0,1,3.048,1.426,4.961,4.961,0,0,1,1.426,3.048.647.647,0,0,0,.642.624Z" transform="translate(-317.611 -97.962)" fill="#fff"/>
          <path id="Path_83" data-name="Path 83" d="M325.39,16.619a9.086,9.086,0,0,0-6.114-2.638.693.693,0,0,0-.713.749.712.712,0,0,0,.677.66,7.656,7.656,0,0,1,7.362,7.38.7.7,0,0,0,1.408-.036,8.985,8.985,0,0,0-2.62-6.115Z" transform="translate(-311.099 -13.98)" fill="#fff"/>
        </g>
      </g>
    </g>
  </g>
</svg>
