<svg id="new-tag" xmlns="http://www.w3.org/2000/svg" xmlns:xlink="http://www.w3.org/1999/xlink" width="115.292" height="146.667" viewBox="0 0 115.292 146.667">
  <defs>
    <clipPath id="clip-path">
      <rect id="Rectangle_2493" data-name="Rectangle 2493" width="115.292" height="146.667" fill="none"/>
    </clipPath>
  </defs>
  <g id="Group_5634" data-name="Group 5634" clip-path="url(#clip-path)">
    <path id="Path_3294" data-name="Path 3294" d="M389.368,0h0A11.334,11.334,0,0,1,400.7,11.334v4.753H378.034V11.334A11.334,11.334,0,0,1,389.368,0" transform="translate(-285.41)" fill="#c80026"/>
    <path id="Path_3295" data-name="Path 3295" d="M103.958,0H11.329A11.326,11.326,0,0,0,0,11.329V141.782a4.875,4.875,0,0,0,8.015,3.729L39.4,119.079a10.726,10.726,0,0,1,13.817,0l31.388,26.433a4.875,4.875,0,0,0,8.015-3.729V11.334A11.334,11.334,0,0,1,103.958,0" fill="#e5002b"/>
  </g>
</svg>
