<svg xmlns="http://www.w3.org/2000/svg" width="25.756" height="32" viewBox="0 0 25.756 32">
  <g id="pdf-icon" transform="translate(-165.198 -50.4)">
    <path id="Path_3296" data-name="Path 3296" d="M183.851,71.629a3.5,3.5,0,0,0,1.561-.039,1.758,1.758,0,0,0,1.444-1.8c.039-.585-.312-1.6-1.834-1.873a9.128,9.128,0,0,0-2.927,0,2.342,2.342,0,0,1-.468.078,11.1,11.1,0,0,1-1.093-1.366,37.706,37.706,0,0,1-2.146-3.434c-.117-.2-.234-.429-.351-.624.078-.351.156-.742.234-1.21l.117-.546a6.493,6.493,0,0,0,.156-3.2c-.273-1.327-1.21-1.639-1.639-1.6-.234,0-1.171.156-1.561,1.522a4.586,4.586,0,0,0,0,2.615,10.151,10.151,0,0,0,1.093,2.615,28.818,28.818,0,0,1-.859,2.81c-.429,1.288-.624,1.8-.7,2.107-.117.351-.117.351-.351.937l-.039.078a19.8,19.8,0,0,1-1.054,2.225c-.468.234-.937.468-1.6.859-1.4.82-2.38,1.4-2.732,2.342a2.136,2.136,0,0,0,.351,2.576,1.914,1.914,0,0,0,1.249.468,1.841,1.841,0,0,0,1.249-.468A4.955,4.955,0,0,0,173,75.141c.117-.2.234-.429.39-.742.624-1.21,1.015-2.029,1.093-2.146,0-.039.039-.078.078-.117.273-.117.585-.234.937-.39a31.948,31.948,0,0,1,3-1.093l.546-.2c.429-.156.742-.234,1.054-.351.39-.156.7-.234,1.015-.351.273.234.546.507.9.78a5.3,5.3,0,0,0,1.834,1.093Zm-.429-2.263a5.717,5.717,0,0,1,1.327.117c.39.078.507.234.507.273v.273a.538.538,0,0,1-.234.078,1.837,1.837,0,0,1-.78.039,3.91,3.91,0,0,1-1.171-.742,1.2,1.2,0,0,1,.351-.039Zm-11.4,4.293c-.156.273-.273.546-.39.742a4.049,4.049,0,0,1-.7,1.132.409.409,0,0,1-.468-.039c-.039-.039-.156-.117.117-.82.156-.39.9-.859,1.561-1.288a1.866,1.866,0,0,1-.117.273Zm4.839-15.688a.936.936,0,0,1,.117-.273c.039.039.039.117.078.234a4.526,4.526,0,0,1-.078,2.263,1.21,1.21,0,0,1-.078-.312,3.208,3.208,0,0,1-.039-1.912ZM179.6,68.585c-.273.117-.585.2-1.015.351l-.546.2c-.976.312-1.522.507-2.419.859.117-.234.2-.468.312-.7l.039-.078c.234-.624.234-.624.39-1.015.078-.273.273-.82.7-2.068.2-.507.312-.976.429-1.366a29.984,29.984,0,0,0,1.756,2.771c.273.351.468.663.7.937l-.351.117Zm11.356-13.463A4.672,4.672,0,0,0,186.31,50.4H169.842a4.672,4.672,0,0,0-4.644,4.722V77.717a4.664,4.664,0,0,0,4.644,4.683h12.722c.039,0,.039,0,.078-.039.039,0,.039,0,.078-.039.039,0,.039-.039.078-.039a.038.038,0,0,0,.039-.039l.117-.117,7.727-7.844a.038.038,0,0,1,.039-.039l.078-.078c0-.039.039-.039.039-.078s.039-.039.039-.078,0-.039.039-.078V55.122ZM166.759,77.678V55.122a3.157,3.157,0,0,1,3.083-3.161H186.31a3.107,3.107,0,0,1,3.083,3.161V73h-5.034a2.765,2.765,0,0,0-2.732,2.732v5.112H169.842a3.132,3.132,0,0,1-3.083-3.161ZM188.3,74.556l-5.073,5.151V75.727a1.15,1.15,0,0,1,1.171-1.171Z" transform="translate(0)" fill="#fff"/>
  </g>
</svg>
