<svg xmlns="http://www.w3.org/2000/svg" width="65" height="64" viewBox="0 0 65 64">
  <g id="share-active" transform="translate(-927 -936)">
    <g id="Ellipse_27" data-name="Ellipse 27" transform="translate(927 936)" fill="#e5002b" stroke="#e5002b" stroke-width="1">
      <ellipse cx="32.5" cy="32" rx="32.5" ry="32" stroke="none"/>
      <ellipse cx="32.5" cy="32" rx="32" ry="31.5" fill="none"/>
    </g>
    <g id="noun-share-3772168" transform="translate(945.75 953.029)">
      <path id="Path_3297" data-name="Path 3297" d="M161.5,64.532a.625.625,0,0,0-.3-.537L149.043,56.11a.638.638,0,0,0-.663-.019.651.651,0,0,0-.339.571l.011,2.659c-.038.011-.072.019-.111.034-.232.076-.461.156-.728.24a21.958,21.958,0,0,0-4.3,2.107,23.383,23.383,0,0,0-6.769,6.609,25.076,25.076,0,0,0-3.71,8.59,25.407,25.407,0,0,0-.37,9.021.651.651,0,0,0,1.288,0,21.586,21.586,0,0,1,2.5-7.5,17.619,17.619,0,0,1,4.583-5.337,14,14,0,0,1,5.615-2.606,12.589,12.589,0,0,1,2.057-.24l.008,2.309a.652.652,0,0,0,1.005.537l12.1-8.007a.653.653,0,0,0,.294-.545Z" transform="translate(-131.821 -56.007)" fill="#fff"/>
    </g>
  </g>
</svg>
