<svg xmlns="http://www.w3.org/2000/svg" xmlns:xlink="http://www.w3.org/1999/xlink" width="26.706" height="26.7" viewBox="0 0 26.706 26.7">
  <defs>
    <linearGradient id="linear-gradient" x1="0.5" x2="0.5" y2="1" gradientUnits="objectBoundingBox">
      <stop offset="0" stop-color="#9422f3"/>
      <stop offset="1" stop-color="#ff7805"/>
    </linearGradient>
  </defs>
  <path id="share-instagram" d="M13.351,8.742A6.845,6.845,0,1,0,20.2,15.588,6.835,6.835,0,0,0,13.351,8.742Zm0,11.3a4.45,4.45,0,1,1,4.45-4.45,4.459,4.459,0,0,1-4.45,4.45ZM22.073,8.462a1.6,1.6,0,1,1-1.6-1.6A1.593,1.593,0,0,1,22.073,8.462Zm4.534,1.621A7.9,7.9,0,0,0,24.45,4.488a7.954,7.954,0,0,0-5.594-2.157c-2.2-.125-8.812-.125-11.016,0A7.942,7.942,0,0,0,2.245,4.482,7.927,7.927,0,0,0,.089,10.077c-.125,2.2-.125,8.812,0,11.016a7.9,7.9,0,0,0,2.157,5.594A7.964,7.964,0,0,0,7.84,28.844c2.2.125,8.812.125,11.016,0a7.9,7.9,0,0,0,5.594-2.157,7.954,7.954,0,0,0,2.157-5.594c.125-2.2.125-8.806,0-11.01ZM23.759,23.458A4.506,4.506,0,0,1,21.221,26c-1.758.7-5.928.536-7.87.536S7.232,26.687,5.48,26a4.506,4.506,0,0,1-2.538-2.538c-.7-1.758-.536-5.928-.536-7.87s-.155-6.119.536-7.87A4.506,4.506,0,0,1,5.48,5.179c1.758-.7,5.928-.536,7.87-.536s6.119-.155,7.87.536a4.506,4.506,0,0,1,2.538,2.538c.7,1.758.536,5.928.536,7.87S24.456,21.706,23.759,23.458Z" transform="translate(0.005 -2.238)" fill="url(#linear-gradient)"/>
</svg>
