<svg xmlns="http://www.w3.org/2000/svg" width="34.208" height="27.783" viewBox="0 0 34.208 27.783">
  <path id="share-twitter" d="M30.692,10.3c.022.3.022.608.022.912,0,9.268-7.054,19.948-19.948,19.948A19.812,19.812,0,0,1,0,28.017a14.5,14.5,0,0,0,1.693.087,14.041,14.041,0,0,0,8.7-3,7.023,7.023,0,0,1-6.555-4.862,8.841,8.841,0,0,0,1.324.109,7.415,7.415,0,0,0,1.845-.239,7.012,7.012,0,0,1-5.622-6.881v-.087a7.061,7.061,0,0,0,3.169.89A7.021,7.021,0,0,1,2.388,4.661,19.928,19.928,0,0,0,16.844,12a7.915,7.915,0,0,1-.174-1.606A7.018,7.018,0,0,1,28.8,5.595,13.8,13.8,0,0,0,33.253,3.9a6.992,6.992,0,0,1-3.082,3.864A14.055,14.055,0,0,0,34.208,6.68,15.071,15.071,0,0,1,30.692,10.3Z" transform="translate(0 -3.381)" fill="#1d9bf0"/>
</svg>
