<svg xmlns="http://www.w3.org/2000/svg" width="32.187" height="32.128" viewBox="0 0 32.187 32.128">
  <g id="sort" transform="translate(-122.497 -52.91)">
    <path id="Path_7836" data-name="Path 7836" d="M123.738,57.833h20.03a3.714,3.714,0,0,0,6.982,0h2.7a1.238,1.238,0,1,0,0-2.476h-2.7a3.714,3.714,0,0,0-6.982,0h-20.03a1.238,1.238,0,1,0,0,2.476Zm23.521-2.476a1.238,1.238,0,1,1-.875.363A1.238,1.238,0,0,1,147.259,55.357Z" transform="translate(-0.003)"/>
    <path id="Path_7837" data-name="Path 7837" d="M153.448,230.357h-20.03a3.714,3.714,0,0,0-6.982,0h-2.7a1.238,1.238,0,1,0,0,2.476h2.7a3.714,3.714,0,0,0,6.982,0h20.03a1.238,1.238,0,1,0,0-2.476Zm-23.521,2.476a1.238,1.238,0,1,1,.875-.363A1.238,1.238,0,0,1,129.927,232.833Z" transform="translate(-0.002 -162.621)"/>
    <path id="Path_7838" data-name="Path 7838" d="M153.446,405.357h-8.888a3.714,3.714,0,0,0-6.982,0h-13.84a1.238,1.238,0,1,0,0,2.476h13.84a3.714,3.714,0,0,0,6.982,0h8.888a1.238,1.238,0,1,0,0-2.476Zm-12.379,2.476a1.238,1.238,0,1,1,.875-.362A1.238,1.238,0,0,1,141.067,407.833Z" transform="translate(0 -325.241)"/>
  </g>
</svg>
