<svg width="100" height="100" viewBox="0 0 100 100" fill="none" xmlns="http://www.w3.org/2000/svg">
<rect width="100" height="100" rx="50" fill="#CECEC4"/>
<path d="M50 25C43.3698 25 37.0112 27.6339 32.3222 32.3222C27.6339 37.0105 25 43.3693 25 50C25 56.6307 27.6339 62.9888 32.3222 67.6778C37.0105 72.3661 43.3693 75 50 75C56.6307 75 62.9888 72.3661 67.6778 67.6778C72.3661 62.9895 75 56.6307 75 50C75 43.3693 72.3661 37.0112 67.6778 32.3222C62.9895 27.6339 56.6307 25 50 25ZM50 71.1532C44.3896 71.1532 39.0089 68.9246 35.042 64.9574C31.0748 60.9902 28.8461 55.61 28.8461 49.9993C28.8461 44.3886 31.0748 39.0083 35.042 35.0413C39.0092 31.0741 44.3893 28.8454 50 28.8454C55.6107 28.8454 60.9911 31.0741 64.958 35.0413C68.9252 39.0085 71.1539 44.3886 71.1539 49.9993C71.1539 55.61 68.9252 60.9904 64.958 64.9574C60.9908 68.9246 55.6107 71.1532 50 71.1532ZM62.4995 41.7689C62.4997 41.769 62.4999 41.7691 62.5001 41.7693C62.8687 42.1191 63.0836 42.6006 63.0978 43.1087C63.1124 43.6169 62.9248 44.1101 62.5767 44.4801L49.9999 57.7689C49.0916 58.727 47.8296 59.2691 46.5096 59.2691H46.3461C44.9862 59.2356 43.704 58.6278 42.8172 57.5958L37.3941 51.2886C37.3941 51.2885 37.3941 51.2884 37.3942 51.2884V51.2884C37.3943 51.2884 37.3943 51.2883 37.3943 51.2883C36.993 50.9174 36.7686 50.3934 36.7767 49.847C36.7853 49.301 37.0253 48.7842 37.4374 48.4253C37.8499 48.0669 38.395 47.9003 38.9371 47.9677C39.4793 48.0351 39.9669 48.33 40.279 48.7786L45.702 55.0857C45.7021 55.0859 45.7021 55.086 45.702 55.0862V55.0862C45.7019 55.0863 45.7018 55.0865 45.702 55.0866C45.8805 55.2947 46.1393 55.4173 46.4135 55.4229C46.6852 55.4298 46.947 55.3216 47.1346 55.1246L59.73 41.8358C60.0833 41.4507 60.5778 41.2262 61.1003 41.2133C61.6225 41.2009 62.1272 41.4012 62.4989 41.7685C62.499 41.7687 62.4993 41.7688 62.4995 41.7689V41.7689Z" fill="white"/>
</svg>
