<svg xmlns="http://www.w3.org/2000/svg" width="65.471" height="72.303" viewBox="0 0 65.471 72.303">
  <g id="noun-coffee-machine-1347154" transform="translate(-171.759 -82.929)">
    <path id="Path_3266" data-name="Path 3266" d="M236.73,106.385c0-.009,0-.016,0-.024v-5.807c0-.009,0-.016,0-.024s0-.016,0-.024V87.6a4.173,4.173,0,0,0-4.168-4.168h-54.18a.508.508,0,0,0-.508.508.2.2,0,0,0,0,.024v33.132c0,.009,0,.016,0,.024a.508.508,0,0,0,.508.508h4.259v7.289h-2.057a.508.508,0,0,0-.508.508v1.81h-7.3a.508.508,0,1,0,0,1.016h7.3v1.81a.508.508,0,0,0,.508.508h4.558v2.178a.508.508,0,0,0,1.016,0v-2.178h4.434a.508.508,0,0,0,.508-.508v-4.636a.508.508,0,0,0-.508-.508h-1.935v-7.289h9.967v27.3h-25.85a.508.508,0,0,0-.508.508v8.786a.508.508,0,0,0,.508.508h63.45a.508.508,0,0,0,.508-.508V112.267c0-.009,0-.016,0-.024s0-.016,0-.024v-5.807c0-.011,0-.018,0-.028Zm-46.655,23.166h-8.99v-3.62h8.99Zm-6.425-4.636v-7.287h3.984v7.287Zm15.476,21.031a.508.508,0,0,0,.508-.508V117.118a.508.508,0,0,0-.508-.508H178.889V84.443h53.668A3.157,3.157,0,0,1,235.71,87.6v12.422H219.872a.508.508,0,1,0,0,1.016h15.838v4.842H219.872a.508.508,0,0,0,0,1.016h15.838v4.842H219.872a.508.508,0,1,0,0,1.016h15.838v8.02H224.5a.508.508,0,0,0-.508.508v32.439H173.276v-7.77Zm36.584,7.771h-10.7V121.786h10.7Z" fill="#fff" stroke="#fff" stroke-width="1"/>
    <path id="Path_3267" data-name="Path 3267" d="M241.028,115.72a4.168,4.168,0,1,0,4.168,4.168A4.172,4.172,0,0,0,241.028,115.72Zm0,7.322a3.153,3.153,0,1,1,3.153-3.153A3.157,3.157,0,0,1,241.028,123.042Z" transform="translate(-52.884 -26.434)" fill="#fff" stroke="#fff" stroke-width="1"/>
  </g>
</svg>
